M48
; DRILL file {KiCad (6.0.0)} date Sun Feb 13 17:17:27 2022
; FORMAT={-:-/ absolute / inch / decimal}
; #@! TF.CreationDate,2022-02-13T17:17:27+01:00
; #@! TF.GenerationSoftware,Kicad,Pcbnew,(6.0.0)
; #@! TF.FileFunction,Plated,1,2,PTH
FMAT,2
INCH
; #@! TA.AperFunction,Plated,PTH,ViaDrill
T1C0.0315
; #@! TA.AperFunction,Plated,PTH,ComponentDrill
T2C0.0315
; #@! TA.AperFunction,Plated,PTH,ComponentDrill
T3C0.0394
%
G90
G05
T1
X2.1362Y-3.578
X2.1478Y-4.4132
X2.4584Y-4.4174
X2.46Y-3.5828
X2.5664Y-5.209
X2.6162Y-2.4902
X2.6224Y-2.8126
X2.8414Y-5.5142
X2.8442Y-5.3576
X2.9512Y-5.1946
X3.2016Y-4.8774
X3.2058Y-5.442
X3.3588Y-3.246
X3.3796Y-4.629
X3.3842Y-3.7932
X3.3938Y-4.0284
X4.039Y-2.4038
X4.0443Y-2.6855
X4.4032Y-4.5826
X4.4046Y-4.7668
X4.5002Y-5.1206
X4.5908Y-3.8358
X4.8116Y-3.8262
X4.9354Y-5.1142
X5.2076Y-4.269
X5.229Y-4.5388
X5.5148Y-2.7868
X5.5256Y-3.9592
X5.5298Y-2.967
X5.6361Y-4.0703
X5.6486Y-4.378
X5.7682Y-4.0616
X5.7682Y-4.3728
X5.97Y-3.7888
X5.9734Y-3.9606
X6.2362Y-3.8056
T2
X2.2042Y-3.375
X2.2104Y-4.2222
X2.4882Y-5.0524
X2.5042Y-3.375
X2.5104Y-4.2222
X2.7215Y-4.7439
X2.7225Y-3.0644
X2.7449Y-3.9334
X2.78Y-2.8658
X2.7882Y-5.0524
X2.8212Y-3.7608
X2.8302Y-4.5926
X3.08Y-2.8658
X3.1212Y-3.7608
X3.1215Y-4.7439
X3.1225Y-3.0644
X3.1302Y-4.5926
X3.1449Y-3.9334
X3.3419Y-3.9202
X3.3796Y-4.7666
X3.3904Y-3.0677
X3.4434Y-3.6372
X3.4571Y-4.4831
X3.4738Y-5.4396
X3.4779Y-2.7812
X3.4882Y-5.169
X3.5389Y-3.5117
X3.5576Y-4.3511
X3.5734Y-2.6527
X3.5876Y-4.999
X3.6419Y-3.9202
X3.6796Y-4.7666
X3.6904Y-3.0677
X3.7738Y-5.4396
X3.8389Y-3.5117
X3.8434Y-3.6372
X3.8571Y-4.4831
X3.8576Y-4.3511
X3.8734Y-2.6527
X3.8779Y-2.7812
X3.8876Y-4.999
X3.8882Y-5.169
X4.0674Y-3.5712
X4.0674Y-3.6712
X4.0674Y-3.7712
X4.0674Y-3.8712
X4.0674Y-3.9712
X4.0674Y-4.0712
X4.0674Y-4.1712
X4.0674Y-4.2712
X4.1219Y-3.4067
X4.1676Y-3.235
X4.1738Y-2.4855
X4.1738Y-2.5855
X4.1738Y-2.6855
X4.1738Y-2.7855
X4.1738Y-2.8855
X4.1738Y-2.9855
X4.1738Y-3.0855
X4.2227Y-2.3402
X4.3188Y-3.4067
X4.3674Y-3.5712
X4.3674Y-3.6712
X4.3674Y-3.7712
X4.3674Y-3.8712
X4.3674Y-3.9712
X4.3674Y-4.0712
X4.3674Y-4.1712
X4.3674Y-4.2712
X4.4196Y-2.3402
X4.4676Y-3.235
X4.4738Y-2.4855
X4.4738Y-2.5855
X4.4738Y-2.6855
X4.4738Y-2.7855
X4.4738Y-2.8855
X4.4738Y-2.9855
X4.4738Y-3.0855
X4.4982Y-3.5396
X4.499Y-3.6738
X4.5062Y-4.0416
X4.5114Y-4.1694
X4.5118Y-4.9924
X4.5908Y-3.2233
X4.5908Y-3.4202
X4.6164Y-3.0838
X4.6174Y-2.8122
X4.6206Y-2.685
X4.6242Y-2.945
X4.6408Y-4.4594
X4.6984Y-5.3838
X4.7096Y-5.5228
X4.7982Y-3.5396
X4.799Y-3.6738
X4.8062Y-4.0416
X4.9114Y-3.6718
X4.9114Y-4.1694
X4.9118Y-4.9924
X4.9174Y-2.8122
X4.9408Y-4.4594
X5.0164Y-3.0838
X5.0206Y-2.685
X5.0242Y-2.945
X5.071Y-2.3094
X5.091Y-4.4878
X5.091Y-4.8878
X5.0984Y-5.3838
X5.1096Y-5.5228
X5.1298Y-3.081
X5.2243Y-5.5536
X5.24Y-4.7918
X5.24Y-4.8918
X5.24Y-4.9918
X5.24Y-5.0918
X5.24Y-5.1918
X5.24Y-5.2918
X5.24Y-5.3918
X5.2988Y-4.6356
X5.3114Y-3.6718
X5.4316Y-3.289
X5.4316Y-3.689
X5.471Y-2.3094
X5.4957Y-4.6356
X5.5298Y-3.081
X5.54Y-4.7918
X5.54Y-4.8918
X5.54Y-4.9918
X5.54Y-5.0918
X5.54Y-5.1918
X5.54Y-5.2918
X5.54Y-5.3918
X5.6243Y-5.5536
X5.8152Y-3.2822
X5.8152Y-3.4786
X5.8486Y-4.587
X5.8486Y-4.987
X5.9174Y-5.2112
X5.9174Y-5.6112
X6.2152Y-3.2822
X6.2152Y-3.4786
X6.3442Y-3.2854
X6.3442Y-3.3854
X6.3442Y-3.4854
X6.3442Y-3.5854
X6.3867Y-3.1344
X6.5836Y-3.1344
X6.6442Y-3.2854
X6.6442Y-3.3854
X6.6442Y-3.4854
X6.6442Y-3.5854
T3
X2.3606Y-2.839
X2.3606Y-2.939
X2.3606Y-3.039
X2.3744Y-3.7336
X2.3744Y-3.8336
X2.3744Y-3.9336
X2.3812Y-4.5516
X2.3812Y-4.6516
X2.3812Y-4.7516
X2.574Y-4.6439
X2.574Y-4.7439
X2.583Y-2.9314
X2.583Y-3.0314
X2.6009Y-3.8189
X2.6009Y-3.9189
X2.8145Y-3.2114
X2.8245Y-4.8949
X2.8514Y-4.0769
X2.9145Y-3.2114
X2.9245Y-4.8949
X2.9514Y-4.0769
X3.0145Y-3.2114
X3.0245Y-4.8949
X3.0514Y-4.0769
X3.0744Y-3.4352
X3.0744Y-3.5352
X3.0744Y-3.6352
X3.0835Y-5.093
X3.0835Y-5.193
X3.0835Y-5.293
X3.0928Y-4.253
X3.0928Y-4.353
X3.0928Y-4.453
X3.0964Y-2.5202
X3.0964Y-2.6202
X3.0964Y-2.7202
X3.2999Y-3.5292
X3.2999Y-3.6292
X3.3026Y-4.3611
X3.3026Y-4.4611
X3.3222Y-5.1838
X3.3222Y-5.2838
X3.3269Y-2.6157
X3.3269Y-2.7157
X3.5424Y-3.7842
X3.5566Y-4.6231
X3.5809Y-2.9212
X3.6362Y-5.3138
X3.6424Y-3.7842
X3.6566Y-4.6231
X3.6809Y-2.9212
X3.7362Y-5.3138
X3.7424Y-3.7842
X3.7566Y-4.6231
X3.7809Y-2.9212
X3.8362Y-5.3138
X4.5388Y-4.3212
X4.539Y-4.7484
X4.539Y-4.8484
X4.5424Y-5.268
X4.5424Y-5.368
X4.6388Y-4.3212
X4.7388Y-4.3212
X4.9338Y-2.4256
X4.9338Y-2.5256
X5.0428Y-4.057
X5.0428Y-4.157
X5.1512Y-2.8418
X5.1512Y-2.9418
X5.1724Y-2.4772
X5.1724Y-2.5772
X5.1724Y-2.6772
X5.2724Y-2.4772
X5.2724Y-2.5772
X5.2724Y-2.6772
X5.2724Y-3.9656
X5.2724Y-4.0656
X5.2724Y-4.1656
X5.4488Y-2.48
X5.4488Y-2.58
X5.6766Y-3.3652
X5.6766Y-3.4652
X5.679Y-3.0954
X5.679Y-3.1954
X5.766Y-5.3674
X5.766Y-5.4674
X5.766Y-5.5674
X5.9858Y-4.6196
X5.9858Y-4.7196
X6.156Y-5.2146
X6.165Y-5.6116
X6.356Y-5.215
X6.365Y-5.612
X6.5906Y-4.916
X6.5906Y-5.016
X6.5906Y-5.116
X6.5906Y-5.216
X6.5906Y-5.316
X6.5906Y-5.416
X6.5906Y-5.516
X6.5906Y-5.616
X6.6906Y-4.916
X6.6906Y-5.016
X6.6906Y-5.116
X6.6906Y-5.216
X6.6906Y-5.316
X6.6906Y-5.416
X6.6906Y-5.516
X6.6906Y-5.616
T0
M30
