%TF.GenerationSoftware,KiCad,Pcbnew,(6.0.0)*%
%TF.CreationDate,2022-02-13T17:17:33+01:00*%
%TF.ProjectId,SynthBaby8,53796e74-6842-4616-9279-382e6b696361,rev?*%
%TF.SameCoordinates,Original*%
%TF.FileFunction,Copper,L1,Top*%
%TF.FilePolarity,Positive*%
%FSLAX46Y46*%
G04 Gerber Fmt 4.6, Leading zero omitted, Abs format (unit mm)*
G04 Created by KiCad (PCBNEW (6.0.0)) date 2022-02-13 17:17:33*
%MOMM*%
%LPD*%
G01*
G04 APERTURE LIST*
%TA.AperFunction,ComponentPad*%
%ADD10C,1.900000*%
%TD*%
%TA.AperFunction,ComponentPad*%
%ADD11R,1.700000X1.700000*%
%TD*%
%TA.AperFunction,ComponentPad*%
%ADD12O,1.900000X1.900000*%
%TD*%
%TA.AperFunction,ComponentPad*%
%ADD13R,1.600000X1.600000*%
%TD*%
%TA.AperFunction,ComponentPad*%
%ADD14O,1.700000X1.700000*%
%TD*%
%TA.AperFunction,ComponentPad*%
%ADD15R,2.400000X1.600000*%
%TD*%
%TA.AperFunction,ComponentPad*%
%ADD16O,2.400000X1.600000*%
%TD*%
%TA.AperFunction,ComponentPad*%
%ADD17C,2.000000*%
%TD*%
%TA.AperFunction,ViaPad*%
%ADD18C,1.800000*%
%TD*%
%TA.AperFunction,Conductor*%
%ADD19C,0.750000*%
%TD*%
G04 APERTURE END LIST*
D10*
%TO.P,C2,1*%
%TO.N,+12V*%
X112257840Y-59441080D03*
%TO.P,C2,2*%
%TO.N,GND*%
X107257840Y-59441080D03*
%TD*%
D11*
%TO.P,D1,1,K*%
%TO.N,GND*%
X83817460Y-89641680D03*
D12*
%TO.P,D1,2,A*%
%TO.N,Net-(D1-Pad2)*%
X83817460Y-92181680D03*
%TD*%
D11*
%TO.P,D2,1,K*%
%TO.N,GND*%
X65608200Y-74457560D03*
D12*
%TO.P,D2,2,A*%
%TO.N,Net-(D2-Pad2)*%
X65608200Y-76997560D03*
%TD*%
D11*
%TO.P,D3,1,K*%
%TO.N,GND*%
X66062860Y-97000060D03*
D12*
%TO.P,D3,2,A*%
%TO.N,Net-(D3-Pad2)*%
X66062860Y-99540060D03*
%TD*%
D11*
%TO.P,D4,1,K*%
%TO.N,GND*%
X84383880Y-131668520D03*
D12*
%TO.P,D4,2,A*%
%TO.N,Net-(D4-Pad2)*%
X84383880Y-134208520D03*
%TD*%
D11*
%TO.P,D6,1,K*%
%TO.N,GND*%
X84503260Y-66438780D03*
D12*
%TO.P,D6,2,A*%
%TO.N,Net-(D6-Pad2)*%
X84503260Y-68978780D03*
%TD*%
D11*
%TO.P,D7,1,K*%
%TO.N,GND*%
X83886040Y-110771940D03*
D12*
%TO.P,D7,2,A*%
%TO.N,Net-(D7-Pad2)*%
X83886040Y-113311940D03*
%TD*%
D11*
%TO.P,D8,1,K*%
%TO.N,GND*%
X65379600Y-117955060D03*
D12*
%TO.P,D8,2,A*%
%TO.N,Net-(D8-Pad2)*%
X65379600Y-120495060D03*
%TD*%
D13*
%TO.P,D9,1,K*%
%TO.N,Net-(D10-Pad1)*%
X84884260Y-99573080D03*
D12*
%TO.P,D9,2,A*%
%TO.N,Net-(D9-Pad2)*%
X92504260Y-99573080D03*
%TD*%
D13*
%TO.P,D10,1,K*%
%TO.N,Net-(D10-Pad1)*%
X55986680Y-85725000D03*
D12*
%TO.P,D10,2,A*%
%TO.N,Net-(D10-Pad2)*%
X63606680Y-85725000D03*
%TD*%
D13*
%TO.P,D11,1,K*%
%TO.N,Net-(D10-Pad1)*%
X56144160Y-107243880D03*
D12*
%TO.P,D11,2,A*%
%TO.N,Net-(D11-Pad2)*%
X63764160Y-107243880D03*
%TD*%
D13*
%TO.P,D12,1,K*%
%TO.N,Net-(D10-Pad1)*%
X88234520Y-138165840D03*
D12*
%TO.P,D12,2,A*%
%TO.N,Net-(D12-Pad2)*%
X95854520Y-138165840D03*
%TD*%
D13*
%TO.P,D14,1,K*%
%TO.N,Net-(D10-Pad1)*%
X86116160Y-77919580D03*
D12*
%TO.P,D14,2,A*%
%TO.N,Net-(D14-Pad2)*%
X93736160Y-77919580D03*
%TD*%
D13*
%TO.P,D15,1,K*%
%TO.N,Net-(D10-Pad1)*%
X85841840Y-121071640D03*
D12*
%TO.P,D15,2,A*%
%TO.N,Net-(D15-Pad2)*%
X93461840Y-121071640D03*
%TD*%
D13*
%TO.P,D16,1,K*%
%TO.N,Net-(D10-Pad1)*%
X63200280Y-128330960D03*
D12*
%TO.P,D16,2,A*%
%TO.N,Net-(D16-Pad2)*%
X70820280Y-128330960D03*
%TD*%
D13*
%TO.P,D17,1,K*%
%TO.N,Net-(D17-Pad1)*%
X89888060Y-89197180D03*
D12*
%TO.P,D17,2,A*%
%TO.N,Net-(D17-Pad2)*%
X97508060Y-89197180D03*
%TD*%
D13*
%TO.P,D18,1,K*%
%TO.N,Net-(D18-Pad1)*%
X70612000Y-72791320D03*
D12*
%TO.P,D18,2,A*%
%TO.N,Net-(D18-Pad2)*%
X78232000Y-72791320D03*
%TD*%
D13*
%TO.P,D19,1,K*%
%TO.N,Net-(D19-Pad1)*%
X71658480Y-95524320D03*
D12*
%TO.P,D19,2,A*%
%TO.N,Net-(D19-Pad2)*%
X79278480Y-95524320D03*
%TD*%
D13*
%TO.P,D20,1,K*%
%TO.N,Net-(D20-Pad1)*%
X91125040Y-126974600D03*
D12*
%TO.P,D20,2,A*%
%TO.N,Net-(D20-Pad2)*%
X98745040Y-126974600D03*
%TD*%
D13*
%TO.P,D22,1,K*%
%TO.N,Net-(D22-Pad1)*%
X90764360Y-67378580D03*
D12*
%TO.P,D22,2,A*%
%TO.N,Net-(D22-Pad2)*%
X98384360Y-67378580D03*
%TD*%
D13*
%TO.P,D23,1,K*%
%TO.N,Net-(D23-Pad1)*%
X90363040Y-110517940D03*
D12*
%TO.P,D23,2,A*%
%TO.N,Net-(D23-Pad2)*%
X97983040Y-110517940D03*
%TD*%
D13*
%TO.P,D24,1,K*%
%TO.N,Net-(D24-Pad1)*%
X71887080Y-116652040D03*
D12*
%TO.P,D24,2,A*%
%TO.N,Net-(D24-Pad2)*%
X79507080Y-116652040D03*
%TD*%
D13*
%TO.P,D27,1,K*%
%TO.N,CLOCK*%
X105857040Y-82169000D03*
D12*
%TO.P,D27,2,A*%
%TO.N,Net-(D27-Pad2)*%
X113477040Y-82169000D03*
%TD*%
D11*
%TO.P,J1,1,Pin_1*%
%TO.N,GND*%
X89976960Y-96118680D03*
D12*
%TO.P,J1,2,Pin_2*%
%TO.N,Net-(D9-Pad2)*%
X92516960Y-96118680D03*
%TO.P,J1,3,Pin_3*%
%TO.N,Net-(D17-Pad2)*%
X95056960Y-96118680D03*
%TD*%
D11*
%TO.P,J2,1,Pin_1*%
%TO.N,GND*%
X71488300Y-81569560D03*
D12*
%TO.P,J2,2,Pin_2*%
%TO.N,Net-(D10-Pad2)*%
X74028300Y-81569560D03*
%TO.P,J2,3,Pin_3*%
%TO.N,Net-(D18-Pad2)*%
X76568300Y-81569560D03*
%TD*%
D11*
%TO.P,J3,1,Pin_1*%
%TO.N,GND*%
X72425560Y-103553260D03*
D12*
%TO.P,J3,2,Pin_2*%
%TO.N,Net-(D11-Pad2)*%
X74965560Y-103553260D03*
%TO.P,J3,3,Pin_3*%
%TO.N,Net-(D19-Pad2)*%
X77505560Y-103553260D03*
%TD*%
D11*
%TO.P,J4,1,Pin_1*%
%TO.N,GND*%
X92359480Y-134970520D03*
D12*
%TO.P,J4,2,Pin_2*%
%TO.N,Net-(D12-Pad2)*%
X94899480Y-134970520D03*
%TO.P,J4,3,Pin_3*%
%TO.N,Net-(D20-Pad2)*%
X97439480Y-134970520D03*
%TD*%
D11*
%TO.P,J6,1,Pin_1*%
%TO.N,GND*%
X90954860Y-74198480D03*
D12*
%TO.P,J6,2,Pin_2*%
%TO.N,Net-(D14-Pad2)*%
X93494860Y-74198480D03*
%TO.P,J6,3,Pin_3*%
%TO.N,Net-(D22-Pad2)*%
X96034860Y-74198480D03*
%TD*%
D11*
%TO.P,J7,1,Pin_1*%
%TO.N,GND*%
X90337640Y-117426740D03*
D12*
%TO.P,J7,2,Pin_2*%
%TO.N,Net-(D15-Pad2)*%
X92877640Y-117426740D03*
%TO.P,J7,3,Pin_3*%
%TO.N,Net-(D23-Pad2)*%
X95417640Y-117426740D03*
%TD*%
D11*
%TO.P,J8,1,Pin_1*%
%TO.N,GND*%
X71742300Y-124330460D03*
D12*
%TO.P,J8,2,Pin_2*%
%TO.N,Net-(D16-Pad2)*%
X74282300Y-124330460D03*
%TO.P,J8,3,Pin_3*%
%TO.N,Net-(D24-Pad2)*%
X76822300Y-124330460D03*
%TD*%
D11*
%TO.P,J9,1,Pin_1*%
%TO.N,Net-(J10-Pad1)*%
X78089760Y-87254080D03*
D12*
%TO.P,J9,2,Pin_2*%
%TO.N,Net-(D17-Pad1)*%
X78089760Y-89794080D03*
%TO.P,J9,3,Pin_3*%
%TO.N,Net-(J10-Pad3)*%
X78089760Y-92334080D03*
%TD*%
D11*
%TO.P,J10,1,Pin_1*%
%TO.N,Net-(J10-Pad1)*%
X59959240Y-72110600D03*
D12*
%TO.P,J10,2,Pin_2*%
%TO.N,Net-(D18-Pad1)*%
X59959240Y-74650600D03*
%TO.P,J10,3,Pin_3*%
%TO.N,Net-(J10-Pad3)*%
X59959240Y-77190600D03*
%TD*%
D11*
%TO.P,J11,1,Pin_1*%
%TO.N,Net-(J10-Pad1)*%
X60309760Y-94833440D03*
D12*
%TO.P,J11,2,Pin_2*%
%TO.N,Net-(D19-Pad1)*%
X60309760Y-97373440D03*
%TO.P,J11,3,Pin_3*%
%TO.N,Net-(J10-Pad3)*%
X60309760Y-99913440D03*
%TD*%
D11*
%TO.P,J12,1,Pin_1*%
%TO.N,Net-(J10-Pad1)*%
X78320900Y-129362200D03*
D12*
%TO.P,J12,2,Pin_2*%
%TO.N,Net-(D20-Pad1)*%
X78320900Y-131902200D03*
%TO.P,J12,3,Pin_3*%
%TO.N,Net-(J10-Pad3)*%
X78320900Y-134442200D03*
%TD*%
D11*
%TO.P,J14,1,Pin_1*%
%TO.N,Net-(J10-Pad1)*%
X78648560Y-64013080D03*
D12*
%TO.P,J14,2,Pin_2*%
%TO.N,Net-(D22-Pad1)*%
X78648560Y-66553080D03*
%TO.P,J14,3,Pin_3*%
%TO.N,Net-(J10-Pad3)*%
X78648560Y-69093080D03*
%TD*%
D11*
%TO.P,J15,1,Pin_1*%
%TO.N,Net-(J10-Pad1)*%
X78557120Y-108026200D03*
D12*
%TO.P,J15,2,Pin_2*%
%TO.N,Net-(D23-Pad1)*%
X78557120Y-110566200D03*
%TO.P,J15,3,Pin_3*%
%TO.N,Net-(J10-Pad3)*%
X78557120Y-113106200D03*
%TD*%
D11*
%TO.P,J16,1,Pin_1*%
%TO.N,Net-(J10-Pad1)*%
X60482480Y-115610640D03*
D12*
%TO.P,J16,2,Pin_2*%
%TO.N,Net-(D24-Pad1)*%
X60482480Y-118150640D03*
%TO.P,J16,3,Pin_3*%
%TO.N,Net-(J10-Pad3)*%
X60482480Y-120690640D03*
%TD*%
D11*
%TO.P,J20,1,Pin_1*%
%TO.N,Net-(F2-Pad1)*%
X169941240Y-142646400D03*
D14*
%TO.P,J20,2,Pin_2*%
X167401240Y-142646400D03*
%TO.P,J20,3,Pin_3*%
%TO.N,GND*%
X169941240Y-140106400D03*
%TO.P,J20,4,Pin_4*%
X167401240Y-140106400D03*
%TO.P,J20,5,Pin_5*%
X169941240Y-137566400D03*
%TO.P,J20,6,Pin_6*%
X167401240Y-137566400D03*
%TO.P,J20,7,Pin_7*%
X169941240Y-135026400D03*
%TO.P,J20,8,Pin_8*%
X167401240Y-135026400D03*
%TO.P,J20,9,Pin_9*%
%TO.N,Net-(F1-Pad1)*%
X169941240Y-132486400D03*
%TO.P,J20,10,Pin_10*%
X167401240Y-132486400D03*
%TO.P,J20,11,Pin_11*%
%TO.N,unconnected-(J20-Pad11)*%
X169941240Y-129946400D03*
%TO.P,J20,12,Pin_12*%
%TO.N,unconnected-(J20-Pad12)*%
X167401240Y-129946400D03*
%TO.P,J20,13,Pin_13*%
%TO.N,unconnected-(J20-Pad13)*%
X169941240Y-127406400D03*
%TO.P,J20,14,Pin_14*%
%TO.N,unconnected-(J20-Pad14)*%
X167401240Y-127406400D03*
%TO.P,J20,15,Pin_15*%
%TO.N,unconnected-(J20-Pad15)*%
X169941240Y-124866400D03*
%TO.P,J20,16,Pin_16*%
%TO.N,unconnected-(J20-Pad16)*%
X167401240Y-124866400D03*
%TD*%
D10*
%TO.P,R5,1*%
%TO.N,Net-(D1-Pad2)*%
X87462360Y-92384880D03*
D12*
%TO.P,R5,2*%
%TO.N,Net-(D17-Pad2)*%
X97622360Y-92384880D03*
%TD*%
D10*
%TO.P,R6,1*%
%TO.N,Net-(D2-Pad2)*%
X69151500Y-77835760D03*
D12*
%TO.P,R6,2*%
%TO.N,Net-(D18-Pad2)*%
X79311500Y-77835760D03*
%TD*%
D10*
%TO.P,R7,1*%
%TO.N,Net-(D3-Pad2)*%
X69720460Y-99908360D03*
D12*
%TO.P,R7,2*%
%TO.N,Net-(D19-Pad2)*%
X79880460Y-99908360D03*
%TD*%
D10*
%TO.P,R8,1*%
%TO.N,Net-(D4-Pad2)*%
X88600280Y-131292600D03*
D12*
%TO.P,R8,2*%
%TO.N,Net-(D20-Pad2)*%
X98760280Y-131292600D03*
%TD*%
D10*
%TO.P,R10,1*%
%TO.N,Net-(D6-Pad2)*%
X88338660Y-70642480D03*
D12*
%TO.P,R10,2*%
%TO.N,Net-(D22-Pad2)*%
X98498660Y-70642480D03*
%TD*%
D10*
%TO.P,R11,1*%
%TO.N,Net-(D7-Pad2)*%
X87810340Y-113870740D03*
D12*
%TO.P,R11,2*%
%TO.N,Net-(D23-Pad2)*%
X97970340Y-113870740D03*
%TD*%
D10*
%TO.P,R12,1*%
%TO.N,Net-(D8-Pad2)*%
X69126100Y-120495060D03*
D12*
%TO.P,R12,2*%
%TO.N,Net-(D24-Pad2)*%
X79286100Y-120495060D03*
%TD*%
D15*
%TO.P,U1,1*%
%TO.N,Net-(J10-Pad1)*%
X106014520Y-63131700D03*
D16*
%TO.P,U1,2*%
%TO.N,CLOCK*%
X106014520Y-65671700D03*
%TO.P,U1,3*%
%TO.N,Net-(U1-Pad3)*%
X106014520Y-68211700D03*
%TO.P,U1,4*%
%TO.N,unconnected-(U1-Pad4)*%
X106014520Y-70751700D03*
%TO.P,U1,5*%
%TO.N,GND*%
X106014520Y-73291700D03*
%TO.P,U1,6*%
X106014520Y-75831700D03*
%TO.P,U1,7,VSS*%
X106014520Y-78371700D03*
%TO.P,U1,8*%
%TO.N,STEPHOLD*%
X113634520Y-78371700D03*
%TO.P,U1,9*%
X113634520Y-75831700D03*
%TO.P,U1,10*%
%TO.N,Net-(D27-Pad2)*%
X113634520Y-73291700D03*
%TO.P,U1,11*%
%TO.N,Net-(D28-Pad2)*%
X113634520Y-70751700D03*
%TO.P,U1,12*%
%TO.N,Net-(R24-Pad2)*%
X113634520Y-68211700D03*
%TO.P,U1,13*%
%TO.N,StartStop*%
X113634520Y-65671700D03*
%TO.P,U1,14,VDD*%
%TO.N,+12V*%
X113634520Y-63131700D03*
%TD*%
D15*
%TO.P,U3,1,Q5*%
%TO.N,Net-(D22-Pad2)*%
X103311960Y-90708480D03*
D16*
%TO.P,U3,2,Q1*%
%TO.N,Net-(D18-Pad2)*%
X103311960Y-93248480D03*
%TO.P,U3,3,Q0*%
%TO.N,Net-(D17-Pad2)*%
X103311960Y-95788480D03*
%TO.P,U3,4,Q2*%
%TO.N,Net-(D19-Pad2)*%
X103311960Y-98328480D03*
%TO.P,U3,5,Q6*%
%TO.N,Net-(D23-Pad2)*%
X103311960Y-100868480D03*
%TO.P,U3,6,Q7*%
%TO.N,Net-(D24-Pad2)*%
X103311960Y-103408480D03*
%TO.P,U3,7,Q3*%
%TO.N,Net-(D20-Pad2)*%
X103311960Y-105948480D03*
%TO.P,U3,8,VSS*%
%TO.N,GND*%
X103311960Y-108488480D03*
%TO.P,U3,9,Q8*%
%TO.N,Net-(J10-Pad3)*%
X110931960Y-108488480D03*
%TO.P,U3,10,Q4*%
%TO.N,Net-(D21-Pad2)*%
X110931960Y-105948480D03*
%TO.P,U3,11,Q9*%
%TO.N,unconnected-(U3-Pad11)*%
X110931960Y-103408480D03*
%TO.P,U3,12,Cout*%
%TO.N,unconnected-(U3-Pad12)*%
X110931960Y-100868480D03*
%TO.P,U3,13,CKEN*%
%TO.N,Net-(J10-Pad3)*%
X110931960Y-98328480D03*
%TO.P,U3,14,CLK*%
%TO.N,CLOCK*%
X110931960Y-95788480D03*
%TO.P,U3,15,Reset*%
%TO.N,Net-(D26-Pad1)*%
X110931960Y-93248480D03*
%TO.P,U3,16,VDD*%
%TO.N,+12V*%
X110931960Y-90708480D03*
%TD*%
D10*
%TO.P,C7,1*%
%TO.N,GND*%
X104696260Y-86530180D03*
%TO.P,C7,2*%
%TO.N,+12V*%
X109696260Y-86530180D03*
%TD*%
%TO.P,C1,1*%
%TO.N,+12V*%
X167223440Y-79613760D03*
%TO.P,C1,2*%
%TO.N,-12V*%
X162223440Y-79613760D03*
%TD*%
D13*
%TO.P,D29,1,K*%
%TO.N,Net-(D26-Pad1)*%
X114274600Y-93314520D03*
D12*
%TO.P,D29,2,A*%
%TO.N,Net-(D29-Pad2)*%
X121894600Y-93314520D03*
%TD*%
D11*
%TO.P,D30,1,K*%
%TO.N,GND*%
X144185640Y-85476080D03*
D12*
%TO.P,D30,2,A*%
%TO.N,Net-(D30-Pad2)*%
X144185640Y-88016080D03*
%TD*%
D11*
%TO.P,J17,1,Pin_1*%
%TO.N,GND*%
X152039320Y-119877840D03*
D12*
%TO.P,J17,2,Pin_2*%
%TO.N,RESETIN*%
X152039320Y-117337840D03*
%TD*%
D10*
%TO.P,R14,1*%
%TO.N,Net-(R14-Pad1)*%
X137962640Y-93700600D03*
D12*
%TO.P,R14,2*%
%TO.N,GND*%
X137962640Y-83540600D03*
%TD*%
D10*
%TO.P,R15,1*%
%TO.N,RESETIN*%
X148554440Y-116509800D03*
D12*
%TO.P,R15,2*%
%TO.N,Net-(R15-Pad2)*%
X148554440Y-126669800D03*
%TD*%
D10*
%TO.P,R19,1*%
%TO.N,Net-(D29-Pad2)*%
X124749560Y-93263720D03*
D12*
%TO.P,R19,2*%
%TO.N,Net-(R14-Pad1)*%
X134909560Y-93263720D03*
%TD*%
D10*
%TO.P,R20,1*%
%TO.N,GATEOUT*%
X147706080Y-83367880D03*
D12*
%TO.P,R20,2*%
%TO.N,Net-(R20-Pad2)*%
X157866080Y-83367880D03*
%TD*%
D10*
%TO.P,R21,1*%
%TO.N,CASCADEIN*%
X114599720Y-126806960D03*
D12*
%TO.P,R21,2*%
%TO.N,Net-(R2-Pad1)*%
X124759720Y-126806960D03*
%TD*%
D10*
%TO.P,R22,1*%
%TO.N,CASCADEOUT*%
X150301960Y-142524480D03*
D12*
%TO.P,R22,2*%
%TO.N,Net-(R22-Pad2)*%
X150301960Y-132364480D03*
%TD*%
D10*
%TO.P,R23,1*%
%TO.N,Net-(D30-Pad2)*%
X147706080Y-88356440D03*
D12*
%TO.P,R23,2*%
%TO.N,Net-(R23-Pad2)*%
X157866080Y-88356440D03*
%TD*%
D10*
%TO.P,R24,1*%
%TO.N,CLOCKIN*%
X127523240Y-68199000D03*
D12*
%TO.P,R24,2*%
%TO.N,Net-(R24-Pad2)*%
X117363240Y-68199000D03*
%TD*%
D15*
%TO.P,U4,1*%
%TO.N,Net-(R20-Pad2)*%
X161142680Y-83449160D03*
D16*
%TO.P,U4,2,-*%
X161142680Y-85989160D03*
%TO.P,U4,3,+*%
%TO.N,Net-(R23-Pad2)*%
X161142680Y-88529160D03*
%TO.P,U4,4,V-*%
%TO.N,-12V*%
X161142680Y-91069160D03*
%TO.P,U4,5,+*%
%TO.N,Net-(U1-Pad3)*%
X168762680Y-91069160D03*
%TO.P,U4,6,-*%
%TO.N,Net-(R23-Pad2)*%
X168762680Y-88529160D03*
%TO.P,U4,7*%
X168762680Y-85989160D03*
%TO.P,U4,8,V+*%
%TO.N,+12V*%
X168762680Y-83449160D03*
%TD*%
D10*
%TO.P,C3,1*%
%TO.N,+12V*%
X134589520Y-117744240D03*
%TO.P,C3,2*%
%TO.N,-12V*%
X139589520Y-117744240D03*
%TD*%
%TO.P,C4,1*%
%TO.N,+12V*%
X116606320Y-86873080D03*
%TO.P,C4,2*%
%TO.N,STEPHOLD*%
X116606320Y-81873080D03*
%TD*%
D11*
%TO.P,D5,1,K*%
%TO.N,GND*%
X128087120Y-103047800D03*
D12*
%TO.P,D5,2,A*%
%TO.N,Net-(D5-Pad2)*%
X128087120Y-105587800D03*
%TD*%
D13*
%TO.P,D13,1,K*%
%TO.N,Net-(D10-Pad1)*%
X125496320Y-113268760D03*
D12*
%TO.P,D13,2,A*%
%TO.N,Net-(D13-Pad2)*%
X117876320Y-113268760D03*
%TD*%
D13*
%TO.P,D21,1,K*%
%TO.N,Net-(D21-Pad1)*%
X122077480Y-102656640D03*
D12*
%TO.P,D21,2,A*%
%TO.N,Net-(D21-Pad2)*%
X114457480Y-102656640D03*
%TD*%
D11*
%TO.P,D25,1,K*%
%TO.N,Net-(D25-Pad1)*%
X138399520Y-62992000D03*
D12*
%TO.P,D25,2,A*%
%TO.N,Net-(D25-Pad2)*%
X138399520Y-65532000D03*
%TD*%
D13*
%TO.P,D26,1,K*%
%TO.N,Net-(D26-Pad1)*%
X114254280Y-89905840D03*
D12*
%TO.P,D26,2,A*%
%TO.N,Net-(D26-Pad2)*%
X121874280Y-89905840D03*
%TD*%
D13*
%TO.P,D28,1,K*%
%TO.N,CLOCK*%
X117281960Y-71429880D03*
D12*
%TO.P,D28,2,A*%
%TO.N,Net-(D28-Pad2)*%
X124901960Y-71429880D03*
%TD*%
D11*
%TO.P,J5,1,Pin_1*%
%TO.N,GND*%
X120365520Y-109758480D03*
D12*
%TO.P,J5,2,Pin_2*%
%TO.N,Net-(D13-Pad2)*%
X117825520Y-109758480D03*
%TO.P,J5,3,Pin_3*%
%TO.N,Net-(D21-Pad2)*%
X115285520Y-109758480D03*
%TD*%
D11*
%TO.P,J13,1,Pin_1*%
%TO.N,Net-(J10-Pad1)*%
X133918960Y-100726240D03*
D12*
%TO.P,J13,2,Pin_2*%
%TO.N,Net-(D21-Pad1)*%
X133918960Y-103266240D03*
%TO.P,J13,3,Pin_3*%
%TO.N,Net-(J10-Pad3)*%
X133918960Y-105806240D03*
%TD*%
D11*
%TO.P,J18,1,Pin_1*%
%TO.N,+12V*%
X133918960Y-68000880D03*
D14*
%TO.P,J18,2,Pin_2*%
X131378960Y-68000880D03*
%TO.P,J18,3,Pin_3*%
%TO.N,Net-(D25-Pad2)*%
X133918960Y-65460880D03*
%TO.P,J18,4,Pin_4*%
%TO.N,StartStop*%
X131378960Y-65460880D03*
%TO.P,J18,5,Pin_5*%
%TO.N,unconnected-(J18-Pad5)*%
X133918960Y-62920880D03*
%TO.P,J18,6,Pin_6*%
%TO.N,GND*%
X131378960Y-62920880D03*
%TD*%
D11*
%TO.P,J19,1,Pin_1*%
%TO.N,GND*%
X146456400Y-141411960D03*
D12*
%TO.P,J19,2,Pin_2*%
%TO.N,CASCADEOUT*%
X146456400Y-138871960D03*
%TO.P,J19,3,Pin_3*%
%TO.N,BREAKINJACK*%
X146456400Y-136331960D03*
%TD*%
D11*
%TO.P,J21,1,Pin_1*%
%TO.N,GND*%
X115376960Y-133807200D03*
D12*
%TO.P,J21,2,Pin_2*%
%TO.N,CVOUT*%
X115376960Y-136347200D03*
%TD*%
D11*
%TO.P,J22,1,Pin_1*%
%TO.N,GND*%
X115290600Y-120609360D03*
D12*
%TO.P,J22,2,Pin_2*%
%TO.N,CASCADEIN*%
X115290600Y-123149360D03*
%TD*%
D11*
%TO.P,J23,1,Pin_1*%
%TO.N,GND*%
X125318520Y-61610240D03*
D12*
%TO.P,J23,2,Pin_2*%
%TO.N,CLOCKIN*%
X125318520Y-64150240D03*
%TD*%
D11*
%TO.P,J24,1,Pin_1*%
%TO.N,GND*%
X144246600Y-78623160D03*
D12*
%TO.P,J24,2,Pin_2*%
%TO.N,GATEOUT*%
X144246600Y-81163160D03*
%TD*%
D11*
%TO.P,J25,1,Pin_1*%
%TO.N,+12V*%
X130840480Y-72181720D03*
D12*
%TO.P,J25,2,Pin_2*%
%TO.N,Net-(J25-Pad2)*%
X130840480Y-74721720D03*
%TD*%
D10*
%TO.P,R1,1*%
%TO.N,CLOCK*%
X117454680Y-74803000D03*
D12*
%TO.P,R1,2*%
%TO.N,GND*%
X127614680Y-74803000D03*
%TD*%
D10*
%TO.P,R2,1*%
%TO.N,Net-(R2-Pad1)*%
X132696200Y-141060920D03*
D12*
%TO.P,R2,2*%
%TO.N,BREAKINJACK*%
X142856200Y-141060920D03*
%TD*%
D10*
%TO.P,R3,1*%
%TO.N,Net-(R3-Pad1)*%
X119623840Y-140279120D03*
D12*
%TO.P,R3,2*%
%TO.N,GND*%
X129783840Y-140279120D03*
%TD*%
D10*
%TO.P,R4,1*%
%TO.N,Net-(R3-Pad1)*%
X129311400Y-124150120D03*
D12*
%TO.P,R4,2*%
%TO.N,Net-(D26-Pad2)*%
X129311400Y-113990120D03*
%TD*%
D10*
%TO.P,R9,1*%
%TO.N,Net-(D5-Pad2)*%
X124749560Y-105902760D03*
D12*
%TO.P,R9,2*%
%TO.N,Net-(D21-Pad2)*%
X114589560Y-105902760D03*
%TD*%
D10*
%TO.P,R13,1*%
%TO.N,CVOUT*%
X119339360Y-136748520D03*
D12*
%TO.P,R13,2*%
%TO.N,Net-(R13-Pad2)*%
X129499360Y-136748520D03*
%TD*%
D10*
%TO.P,R16,1*%
%TO.N,GND*%
X128803400Y-58658760D03*
D12*
%TO.P,R16,2*%
%TO.N,Net-(D25-Pad1)*%
X138963400Y-58658760D03*
%TD*%
D10*
%TO.P,R17,1*%
%TO.N,Net-(J25-Pad2)*%
X127416560Y-78328520D03*
D12*
%TO.P,R17,2*%
%TO.N,STEPHOLD*%
X117256560Y-78328520D03*
%TD*%
D10*
%TO.P,R18,1*%
%TO.N,Net-(J25-Pad2)*%
X130296920Y-78257400D03*
D12*
%TO.P,R18,2*%
%TO.N,GND*%
X140456920Y-78257400D03*
%TD*%
D15*
%TO.P,U2,1*%
%TO.N,Net-(D26-Pad2)*%
X133096200Y-121710920D03*
D16*
%TO.P,U2,2,-*%
%TO.N,Net-(R3-Pad1)*%
X133096200Y-124250920D03*
%TO.P,U2,3,+*%
%TO.N,Net-(R2-Pad1)*%
X133096200Y-126790920D03*
%TO.P,U2,4,V+*%
%TO.N,+12V*%
X133096200Y-129330920D03*
%TO.P,U2,5,+*%
%TO.N,Net-(D10-Pad1)*%
X133096200Y-131870920D03*
%TO.P,U2,6,-*%
%TO.N,Net-(R13-Pad2)*%
X133096200Y-134410920D03*
%TO.P,U2,7*%
X133096200Y-136950920D03*
%TO.P,U2,8*%
%TO.N,Net-(R22-Pad2)*%
X140716200Y-136950920D03*
%TO.P,U2,9,-*%
X140716200Y-134410920D03*
%TO.P,U2,10,+*%
%TO.N,Net-(J10-Pad3)*%
X140716200Y-131870920D03*
%TO.P,U2,11,V-*%
%TO.N,-12V*%
X140716200Y-129330920D03*
%TO.P,U2,12,+*%
%TO.N,Net-(R15-Pad2)*%
X140716200Y-126790920D03*
%TO.P,U2,13,-*%
%TO.N,Net-(R14-Pad1)*%
X140716200Y-124250920D03*
%TO.P,U2,14*%
%TO.N,Net-(D29-Pad2)*%
X140716200Y-121710920D03*
%TD*%
D17*
%TO.P,F1,1*%
%TO.N,Net-(F1-Pad1)*%
X161442400Y-132461000D03*
%TO.P,F1,2*%
%TO.N,+12V*%
X156362400Y-132451000D03*
%TD*%
%TO.P,F2,1*%
%TO.N,Net-(F2-Pad1)*%
X161671000Y-142544800D03*
%TO.P,F2,2*%
%TO.N,-12V*%
X156591000Y-142534800D03*
%TD*%
D18*
%TO.N,GND*%
X66608960Y-71440040D03*
X151638000Y-96235520D03*
X66451480Y-63251080D03*
X158399480Y-96662240D03*
X140456920Y-75361800D03*
X140075920Y-70784720D03*
%TO.N,Net-(D10-Pad1)*%
X86202520Y-102321360D03*
X85958680Y-96347280D03*
X85313520Y-82448400D03*
X85841840Y-117576600D03*
X81427320Y-138226800D03*
X81320640Y-123885960D03*
%TO.N,Net-(J10-Pad1)*%
X54554120Y-112095280D03*
X65186560Y-132308600D03*
X111841280Y-116398040D03*
X62443360Y-112201960D03*
X62484000Y-91003120D03*
X111876840Y-121076720D03*
X54259480Y-90881200D03*
X74960480Y-131942840D03*
%TO.N,+12V*%
X114305080Y-130063240D03*
X116606320Y-97429320D03*
X140350240Y-100563680D03*
X151724360Y-100599240D03*
X125359160Y-129900680D03*
X122214640Y-97185480D03*
%TO.N,Net-(D29-Pad2)*%
X143474440Y-111201200D03*
X143157228Y-103385332D03*
%TO.N,Net-(J10-Pad3)*%
X72242680Y-136083040D03*
X132816600Y-115285520D03*
X132273040Y-108432600D03*
X72171560Y-140060680D03*
%TO.N,Net-(R14-Pad1)*%
X146512280Y-111069120D03*
X146512280Y-103164640D03*
%TO.N,Net-(U1-Pad3)*%
X102590600Y-61055830D03*
X102725220Y-68211700D03*
%TD*%
D19*
%TO.N,GND*%
X140075920Y-74980800D02*
X140456920Y-75361800D01*
X66451480Y-71282560D02*
X66608960Y-71440040D01*
X158353760Y-96707960D02*
X158399480Y-96662240D01*
X151577040Y-96707960D02*
X158353760Y-96707960D01*
X66451480Y-63251080D02*
X66451480Y-71282560D01*
X140075920Y-70784720D02*
X140075920Y-74980800D01*
%TO.N,Net-(D10-Pad1)*%
X85841840Y-102682040D02*
X86202520Y-102321360D01*
X85638640Y-96027240D02*
X85958680Y-96347280D01*
X81320640Y-123885960D02*
X81320640Y-138120120D01*
X85638640Y-88270080D02*
X85638640Y-96027240D01*
X85841840Y-117576600D02*
X85841840Y-102682040D01*
X85313520Y-87944960D02*
X85638640Y-88270080D01*
X81320640Y-138120120D02*
X81427320Y-138226800D01*
X85313520Y-82448400D02*
X85313520Y-87944960D01*
%TO.N,Net-(D26-Pad2)*%
X133096200Y-121710920D02*
X133096200Y-121285200D01*
%TO.N,Net-(J10-Pad1)*%
X62484000Y-91003120D02*
X54381400Y-91003120D01*
X62443360Y-112201960D02*
X54660800Y-112201960D01*
X54660800Y-112201960D02*
X54554120Y-112095280D01*
X65186560Y-132308600D02*
X74594720Y-132308600D01*
X74594720Y-132308600D02*
X74960480Y-131942840D01*
X54381400Y-91003120D02*
X54259480Y-90881200D01*
X111841280Y-121041160D02*
X111876840Y-121076720D01*
X111841280Y-116398040D02*
X111841280Y-121041160D01*
%TO.N,+12V*%
X125196600Y-130063240D02*
X125359160Y-129900680D01*
X116606320Y-97429320D02*
X121970800Y-97429320D01*
X140350240Y-100563680D02*
X151688800Y-100563680D01*
X114305080Y-130063240D02*
X125196600Y-130063240D01*
X151688800Y-100563680D02*
X151724360Y-100599240D01*
X121970800Y-97429320D02*
X122214640Y-97185480D01*
%TO.N,Net-(D29-Pad2)*%
X143474440Y-103702544D02*
X143157228Y-103385332D01*
X143474440Y-111201200D02*
X143474440Y-103702544D01*
%TO.N,Net-(J10-Pad3)*%
X72242680Y-136083040D02*
X72242680Y-139989560D01*
X132283200Y-109138720D02*
X132283200Y-114786610D01*
X72242680Y-139989560D02*
X72171560Y-140060680D01*
X132283200Y-114786610D02*
X132506720Y-115010130D01*
%TO.N,Net-(R14-Pad1)*%
X146512280Y-103164640D02*
X146512280Y-111069120D01*
%TO.N,Net-(U1-Pad3)*%
X102725220Y-68211700D02*
X102725220Y-61190450D01*
X102725220Y-61190450D02*
X102590600Y-61055830D01*
%TD*%
M02*
