%TF.GenerationSoftware,KiCad,Pcbnew,(6.0.0)*%
%TF.CreationDate,2022-02-13T17:17:33+01:00*%
%TF.ProjectId,SynthBaby8,53796e74-6842-4616-9279-382e6b696361,rev?*%
%TF.SameCoordinates,Original*%
%TF.FileFunction,Legend,Top*%
%TF.FilePolarity,Positive*%
%FSLAX46Y46*%
G04 Gerber Fmt 4.6, Leading zero omitted, Abs format (unit mm)*
G04 Created by KiCad (PCBNEW (6.0.0)) date 2022-02-13 17:17:33*
%MOMM*%
%LPD*%
G01*
G04 APERTURE LIST*
%ADD10C,0.150000*%
%ADD11C,0.120000*%
G04 APERTURE END LIST*
D10*
%TO.C,C2*%
X109591173Y-62298222D02*
X109543554Y-62345841D01*
X109400697Y-62393460D01*
X109305459Y-62393460D01*
X109162601Y-62345841D01*
X109067363Y-62250603D01*
X109019744Y-62155365D01*
X108972125Y-61964889D01*
X108972125Y-61822032D01*
X109019744Y-61631556D01*
X109067363Y-61536318D01*
X109162601Y-61441080D01*
X109305459Y-61393460D01*
X109400697Y-61393460D01*
X109543554Y-61441080D01*
X109591173Y-61488699D01*
X109972125Y-61488699D02*
X110019744Y-61441080D01*
X110114982Y-61393460D01*
X110353078Y-61393460D01*
X110448316Y-61441080D01*
X110495935Y-61488699D01*
X110543554Y-61583937D01*
X110543554Y-61679175D01*
X110495935Y-61822032D01*
X109924506Y-62393460D01*
X110543554Y-62393460D01*
%TO.C,D1*%
X83079364Y-87764060D02*
X83079364Y-86764060D01*
X83317460Y-86764060D01*
X83460317Y-86811680D01*
X83555555Y-86906918D01*
X83603174Y-87002156D01*
X83650793Y-87192632D01*
X83650793Y-87335489D01*
X83603174Y-87525965D01*
X83555555Y-87621203D01*
X83460317Y-87716441D01*
X83317460Y-87764060D01*
X83079364Y-87764060D01*
X84603174Y-87764060D02*
X84031745Y-87764060D01*
X84317460Y-87764060D02*
X84317460Y-86764060D01*
X84222221Y-86906918D01*
X84126983Y-87002156D01*
X84031745Y-87049775D01*
%TO.C,D2*%
X64870104Y-72579940D02*
X64870104Y-71579940D01*
X65108200Y-71579940D01*
X65251057Y-71627560D01*
X65346295Y-71722798D01*
X65393914Y-71818036D01*
X65441533Y-72008512D01*
X65441533Y-72151369D01*
X65393914Y-72341845D01*
X65346295Y-72437083D01*
X65251057Y-72532321D01*
X65108200Y-72579940D01*
X64870104Y-72579940D01*
X65822485Y-71675179D02*
X65870104Y-71627560D01*
X65965342Y-71579940D01*
X66203438Y-71579940D01*
X66298676Y-71627560D01*
X66346295Y-71675179D01*
X66393914Y-71770417D01*
X66393914Y-71865655D01*
X66346295Y-72008512D01*
X65774866Y-72579940D01*
X66393914Y-72579940D01*
%TO.C,D3*%
X65324764Y-95122440D02*
X65324764Y-94122440D01*
X65562860Y-94122440D01*
X65705717Y-94170060D01*
X65800955Y-94265298D01*
X65848574Y-94360536D01*
X65896193Y-94551012D01*
X65896193Y-94693869D01*
X65848574Y-94884345D01*
X65800955Y-94979583D01*
X65705717Y-95074821D01*
X65562860Y-95122440D01*
X65324764Y-95122440D01*
X66229526Y-94122440D02*
X66848574Y-94122440D01*
X66515240Y-94503393D01*
X66658098Y-94503393D01*
X66753336Y-94551012D01*
X66800955Y-94598631D01*
X66848574Y-94693869D01*
X66848574Y-94931964D01*
X66800955Y-95027202D01*
X66753336Y-95074821D01*
X66658098Y-95122440D01*
X66372383Y-95122440D01*
X66277145Y-95074821D01*
X66229526Y-95027202D01*
%TO.C,D4*%
X83645784Y-129790900D02*
X83645784Y-128790900D01*
X83883880Y-128790900D01*
X84026737Y-128838520D01*
X84121975Y-128933758D01*
X84169594Y-129028996D01*
X84217213Y-129219472D01*
X84217213Y-129362329D01*
X84169594Y-129552805D01*
X84121975Y-129648043D01*
X84026737Y-129743281D01*
X83883880Y-129790900D01*
X83645784Y-129790900D01*
X85074356Y-129124234D02*
X85074356Y-129790900D01*
X84836260Y-128743281D02*
X84598165Y-129457567D01*
X85217213Y-129457567D01*
%TO.C,D6*%
X83765164Y-64561160D02*
X83765164Y-63561160D01*
X84003260Y-63561160D01*
X84146117Y-63608780D01*
X84241355Y-63704018D01*
X84288974Y-63799256D01*
X84336593Y-63989732D01*
X84336593Y-64132589D01*
X84288974Y-64323065D01*
X84241355Y-64418303D01*
X84146117Y-64513541D01*
X84003260Y-64561160D01*
X83765164Y-64561160D01*
X85193736Y-63561160D02*
X85003260Y-63561160D01*
X84908021Y-63608780D01*
X84860402Y-63656399D01*
X84765164Y-63799256D01*
X84717545Y-63989732D01*
X84717545Y-64370684D01*
X84765164Y-64465922D01*
X84812783Y-64513541D01*
X84908021Y-64561160D01*
X85098498Y-64561160D01*
X85193736Y-64513541D01*
X85241355Y-64465922D01*
X85288974Y-64370684D01*
X85288974Y-64132589D01*
X85241355Y-64037351D01*
X85193736Y-63989732D01*
X85098498Y-63942113D01*
X84908021Y-63942113D01*
X84812783Y-63989732D01*
X84765164Y-64037351D01*
X84717545Y-64132589D01*
%TO.C,D7*%
X83147944Y-108894320D02*
X83147944Y-107894320D01*
X83386040Y-107894320D01*
X83528897Y-107941940D01*
X83624135Y-108037178D01*
X83671754Y-108132416D01*
X83719373Y-108322892D01*
X83719373Y-108465749D01*
X83671754Y-108656225D01*
X83624135Y-108751463D01*
X83528897Y-108846701D01*
X83386040Y-108894320D01*
X83147944Y-108894320D01*
X84052706Y-107894320D02*
X84719373Y-107894320D01*
X84290801Y-108894320D01*
%TO.C,D8*%
X64641504Y-116077440D02*
X64641504Y-115077440D01*
X64879600Y-115077440D01*
X65022457Y-115125060D01*
X65117695Y-115220298D01*
X65165314Y-115315536D01*
X65212933Y-115506012D01*
X65212933Y-115648869D01*
X65165314Y-115839345D01*
X65117695Y-115934583D01*
X65022457Y-116029821D01*
X64879600Y-116077440D01*
X64641504Y-116077440D01*
X65784361Y-115506012D02*
X65689123Y-115458393D01*
X65641504Y-115410774D01*
X65593885Y-115315536D01*
X65593885Y-115267917D01*
X65641504Y-115172679D01*
X65689123Y-115125060D01*
X65784361Y-115077440D01*
X65974838Y-115077440D01*
X66070076Y-115125060D01*
X66117695Y-115172679D01*
X66165314Y-115267917D01*
X66165314Y-115315536D01*
X66117695Y-115410774D01*
X66070076Y-115458393D01*
X65974838Y-115506012D01*
X65784361Y-115506012D01*
X65689123Y-115553631D01*
X65641504Y-115601250D01*
X65593885Y-115696488D01*
X65593885Y-115886964D01*
X65641504Y-115982202D01*
X65689123Y-116029821D01*
X65784361Y-116077440D01*
X65974838Y-116077440D01*
X66070076Y-116029821D01*
X66117695Y-115982202D01*
X66165314Y-115886964D01*
X66165314Y-115696488D01*
X66117695Y-115601250D01*
X66070076Y-115553631D01*
X65974838Y-115506012D01*
%TO.C,D9*%
X87956164Y-97905460D02*
X87956164Y-96905460D01*
X88194260Y-96905460D01*
X88337117Y-96953080D01*
X88432355Y-97048318D01*
X88479974Y-97143556D01*
X88527593Y-97334032D01*
X88527593Y-97476889D01*
X88479974Y-97667365D01*
X88432355Y-97762603D01*
X88337117Y-97857841D01*
X88194260Y-97905460D01*
X87956164Y-97905460D01*
X89003783Y-97905460D02*
X89194260Y-97905460D01*
X89289498Y-97857841D01*
X89337117Y-97810222D01*
X89432355Y-97667365D01*
X89479974Y-97476889D01*
X89479974Y-97095937D01*
X89432355Y-97000699D01*
X89384736Y-96953080D01*
X89289498Y-96905460D01*
X89099021Y-96905460D01*
X89003783Y-96953080D01*
X88956164Y-97000699D01*
X88908545Y-97095937D01*
X88908545Y-97334032D01*
X88956164Y-97429270D01*
X89003783Y-97476889D01*
X89099021Y-97524508D01*
X89289498Y-97524508D01*
X89384736Y-97476889D01*
X89432355Y-97429270D01*
X89479974Y-97334032D01*
X84622355Y-98225460D02*
X84622355Y-97225460D01*
X85193783Y-98225460D02*
X84765212Y-97654032D01*
X85193783Y-97225460D02*
X84622355Y-97796889D01*
%TO.C,D10*%
X58582394Y-84057380D02*
X58582394Y-83057380D01*
X58820489Y-83057380D01*
X58963346Y-83105000D01*
X59058584Y-83200238D01*
X59106203Y-83295476D01*
X59153822Y-83485952D01*
X59153822Y-83628809D01*
X59106203Y-83819285D01*
X59058584Y-83914523D01*
X58963346Y-84009761D01*
X58820489Y-84057380D01*
X58582394Y-84057380D01*
X60106203Y-84057380D02*
X59534775Y-84057380D01*
X59820489Y-84057380D02*
X59820489Y-83057380D01*
X59725251Y-83200238D01*
X59630013Y-83295476D01*
X59534775Y-83343095D01*
X60725251Y-83057380D02*
X60820489Y-83057380D01*
X60915727Y-83105000D01*
X60963346Y-83152619D01*
X61010965Y-83247857D01*
X61058584Y-83438333D01*
X61058584Y-83676428D01*
X61010965Y-83866904D01*
X60963346Y-83962142D01*
X60915727Y-84009761D01*
X60820489Y-84057380D01*
X60725251Y-84057380D01*
X60630013Y-84009761D01*
X60582394Y-83962142D01*
X60534775Y-83866904D01*
X60487156Y-83676428D01*
X60487156Y-83438333D01*
X60534775Y-83247857D01*
X60582394Y-83152619D01*
X60630013Y-83105000D01*
X60725251Y-83057380D01*
X55724775Y-84377380D02*
X55724775Y-83377380D01*
X56296203Y-84377380D02*
X55867632Y-83805952D01*
X56296203Y-83377380D02*
X55724775Y-83948809D01*
%TO.C,D11*%
X58739874Y-105576260D02*
X58739874Y-104576260D01*
X58977969Y-104576260D01*
X59120826Y-104623880D01*
X59216064Y-104719118D01*
X59263683Y-104814356D01*
X59311302Y-105004832D01*
X59311302Y-105147689D01*
X59263683Y-105338165D01*
X59216064Y-105433403D01*
X59120826Y-105528641D01*
X58977969Y-105576260D01*
X58739874Y-105576260D01*
X60263683Y-105576260D02*
X59692255Y-105576260D01*
X59977969Y-105576260D02*
X59977969Y-104576260D01*
X59882731Y-104719118D01*
X59787493Y-104814356D01*
X59692255Y-104861975D01*
X61216064Y-105576260D02*
X60644636Y-105576260D01*
X60930350Y-105576260D02*
X60930350Y-104576260D01*
X60835112Y-104719118D01*
X60739874Y-104814356D01*
X60644636Y-104861975D01*
X55882255Y-105896260D02*
X55882255Y-104896260D01*
X56453683Y-105896260D02*
X56025112Y-105324832D01*
X56453683Y-104896260D02*
X55882255Y-105467689D01*
%TO.C,D12*%
X90830234Y-136498220D02*
X90830234Y-135498220D01*
X91068329Y-135498220D01*
X91211186Y-135545840D01*
X91306424Y-135641078D01*
X91354043Y-135736316D01*
X91401662Y-135926792D01*
X91401662Y-136069649D01*
X91354043Y-136260125D01*
X91306424Y-136355363D01*
X91211186Y-136450601D01*
X91068329Y-136498220D01*
X90830234Y-136498220D01*
X92354043Y-136498220D02*
X91782615Y-136498220D01*
X92068329Y-136498220D02*
X92068329Y-135498220D01*
X91973091Y-135641078D01*
X91877853Y-135736316D01*
X91782615Y-135783935D01*
X92734996Y-135593459D02*
X92782615Y-135545840D01*
X92877853Y-135498220D01*
X93115948Y-135498220D01*
X93211186Y-135545840D01*
X93258805Y-135593459D01*
X93306424Y-135688697D01*
X93306424Y-135783935D01*
X93258805Y-135926792D01*
X92687377Y-136498220D01*
X93306424Y-136498220D01*
X87972615Y-136818220D02*
X87972615Y-135818220D01*
X88544043Y-136818220D02*
X88115472Y-136246792D01*
X88544043Y-135818220D02*
X87972615Y-136389649D01*
%TO.C,D14*%
X88711874Y-76251960D02*
X88711874Y-75251960D01*
X88949969Y-75251960D01*
X89092826Y-75299580D01*
X89188064Y-75394818D01*
X89235683Y-75490056D01*
X89283302Y-75680532D01*
X89283302Y-75823389D01*
X89235683Y-76013865D01*
X89188064Y-76109103D01*
X89092826Y-76204341D01*
X88949969Y-76251960D01*
X88711874Y-76251960D01*
X90235683Y-76251960D02*
X89664255Y-76251960D01*
X89949969Y-76251960D02*
X89949969Y-75251960D01*
X89854731Y-75394818D01*
X89759493Y-75490056D01*
X89664255Y-75537675D01*
X91092826Y-75585294D02*
X91092826Y-76251960D01*
X90854731Y-75204341D02*
X90616636Y-75918627D01*
X91235683Y-75918627D01*
X85854255Y-76571960D02*
X85854255Y-75571960D01*
X86425683Y-76571960D02*
X85997112Y-76000532D01*
X86425683Y-75571960D02*
X85854255Y-76143389D01*
%TO.C,D15*%
X88437554Y-119404020D02*
X88437554Y-118404020D01*
X88675649Y-118404020D01*
X88818506Y-118451640D01*
X88913744Y-118546878D01*
X88961363Y-118642116D01*
X89008982Y-118832592D01*
X89008982Y-118975449D01*
X88961363Y-119165925D01*
X88913744Y-119261163D01*
X88818506Y-119356401D01*
X88675649Y-119404020D01*
X88437554Y-119404020D01*
X89961363Y-119404020D02*
X89389935Y-119404020D01*
X89675649Y-119404020D02*
X89675649Y-118404020D01*
X89580411Y-118546878D01*
X89485173Y-118642116D01*
X89389935Y-118689735D01*
X90866125Y-118404020D02*
X90389935Y-118404020D01*
X90342316Y-118880211D01*
X90389935Y-118832592D01*
X90485173Y-118784973D01*
X90723268Y-118784973D01*
X90818506Y-118832592D01*
X90866125Y-118880211D01*
X90913744Y-118975449D01*
X90913744Y-119213544D01*
X90866125Y-119308782D01*
X90818506Y-119356401D01*
X90723268Y-119404020D01*
X90485173Y-119404020D01*
X90389935Y-119356401D01*
X90342316Y-119308782D01*
X85579935Y-119724020D02*
X85579935Y-118724020D01*
X86151363Y-119724020D02*
X85722792Y-119152592D01*
X86151363Y-118724020D02*
X85579935Y-119295449D01*
%TO.C,D16*%
X65795994Y-126663340D02*
X65795994Y-125663340D01*
X66034089Y-125663340D01*
X66176946Y-125710960D01*
X66272184Y-125806198D01*
X66319803Y-125901436D01*
X66367422Y-126091912D01*
X66367422Y-126234769D01*
X66319803Y-126425245D01*
X66272184Y-126520483D01*
X66176946Y-126615721D01*
X66034089Y-126663340D01*
X65795994Y-126663340D01*
X67319803Y-126663340D02*
X66748375Y-126663340D01*
X67034089Y-126663340D02*
X67034089Y-125663340D01*
X66938851Y-125806198D01*
X66843613Y-125901436D01*
X66748375Y-125949055D01*
X68176946Y-125663340D02*
X67986470Y-125663340D01*
X67891232Y-125710960D01*
X67843613Y-125758579D01*
X67748375Y-125901436D01*
X67700756Y-126091912D01*
X67700756Y-126472864D01*
X67748375Y-126568102D01*
X67795994Y-126615721D01*
X67891232Y-126663340D01*
X68081708Y-126663340D01*
X68176946Y-126615721D01*
X68224565Y-126568102D01*
X68272184Y-126472864D01*
X68272184Y-126234769D01*
X68224565Y-126139531D01*
X68176946Y-126091912D01*
X68081708Y-126044293D01*
X67891232Y-126044293D01*
X67795994Y-126091912D01*
X67748375Y-126139531D01*
X67700756Y-126234769D01*
X62938375Y-126983340D02*
X62938375Y-125983340D01*
X63509803Y-126983340D02*
X63081232Y-126411912D01*
X63509803Y-125983340D02*
X62938375Y-126554769D01*
%TO.C,D17*%
X92483774Y-87529560D02*
X92483774Y-86529560D01*
X92721869Y-86529560D01*
X92864726Y-86577180D01*
X92959964Y-86672418D01*
X93007583Y-86767656D01*
X93055202Y-86958132D01*
X93055202Y-87100989D01*
X93007583Y-87291465D01*
X92959964Y-87386703D01*
X92864726Y-87481941D01*
X92721869Y-87529560D01*
X92483774Y-87529560D01*
X94007583Y-87529560D02*
X93436155Y-87529560D01*
X93721869Y-87529560D02*
X93721869Y-86529560D01*
X93626631Y-86672418D01*
X93531393Y-86767656D01*
X93436155Y-86815275D01*
X94340917Y-86529560D02*
X95007583Y-86529560D01*
X94579012Y-87529560D01*
X89626155Y-87849560D02*
X89626155Y-86849560D01*
X90197583Y-87849560D02*
X89769012Y-87278132D01*
X90197583Y-86849560D02*
X89626155Y-87420989D01*
%TO.C,D18*%
X73207714Y-71123700D02*
X73207714Y-70123700D01*
X73445809Y-70123700D01*
X73588666Y-70171320D01*
X73683904Y-70266558D01*
X73731523Y-70361796D01*
X73779142Y-70552272D01*
X73779142Y-70695129D01*
X73731523Y-70885605D01*
X73683904Y-70980843D01*
X73588666Y-71076081D01*
X73445809Y-71123700D01*
X73207714Y-71123700D01*
X74731523Y-71123700D02*
X74160095Y-71123700D01*
X74445809Y-71123700D02*
X74445809Y-70123700D01*
X74350571Y-70266558D01*
X74255333Y-70361796D01*
X74160095Y-70409415D01*
X75302952Y-70552272D02*
X75207714Y-70504653D01*
X75160095Y-70457034D01*
X75112476Y-70361796D01*
X75112476Y-70314177D01*
X75160095Y-70218939D01*
X75207714Y-70171320D01*
X75302952Y-70123700D01*
X75493428Y-70123700D01*
X75588666Y-70171320D01*
X75636285Y-70218939D01*
X75683904Y-70314177D01*
X75683904Y-70361796D01*
X75636285Y-70457034D01*
X75588666Y-70504653D01*
X75493428Y-70552272D01*
X75302952Y-70552272D01*
X75207714Y-70599891D01*
X75160095Y-70647510D01*
X75112476Y-70742748D01*
X75112476Y-70933224D01*
X75160095Y-71028462D01*
X75207714Y-71076081D01*
X75302952Y-71123700D01*
X75493428Y-71123700D01*
X75588666Y-71076081D01*
X75636285Y-71028462D01*
X75683904Y-70933224D01*
X75683904Y-70742748D01*
X75636285Y-70647510D01*
X75588666Y-70599891D01*
X75493428Y-70552272D01*
X70350095Y-71443700D02*
X70350095Y-70443700D01*
X70921523Y-71443700D02*
X70492952Y-70872272D01*
X70921523Y-70443700D02*
X70350095Y-71015129D01*
%TO.C,D19*%
X74254194Y-93856700D02*
X74254194Y-92856700D01*
X74492289Y-92856700D01*
X74635146Y-92904320D01*
X74730384Y-92999558D01*
X74778003Y-93094796D01*
X74825622Y-93285272D01*
X74825622Y-93428129D01*
X74778003Y-93618605D01*
X74730384Y-93713843D01*
X74635146Y-93809081D01*
X74492289Y-93856700D01*
X74254194Y-93856700D01*
X75778003Y-93856700D02*
X75206575Y-93856700D01*
X75492289Y-93856700D02*
X75492289Y-92856700D01*
X75397051Y-92999558D01*
X75301813Y-93094796D01*
X75206575Y-93142415D01*
X76254194Y-93856700D02*
X76444670Y-93856700D01*
X76539908Y-93809081D01*
X76587527Y-93761462D01*
X76682765Y-93618605D01*
X76730384Y-93428129D01*
X76730384Y-93047177D01*
X76682765Y-92951939D01*
X76635146Y-92904320D01*
X76539908Y-92856700D01*
X76349432Y-92856700D01*
X76254194Y-92904320D01*
X76206575Y-92951939D01*
X76158956Y-93047177D01*
X76158956Y-93285272D01*
X76206575Y-93380510D01*
X76254194Y-93428129D01*
X76349432Y-93475748D01*
X76539908Y-93475748D01*
X76635146Y-93428129D01*
X76682765Y-93380510D01*
X76730384Y-93285272D01*
X71396575Y-94176700D02*
X71396575Y-93176700D01*
X71968003Y-94176700D02*
X71539432Y-93605272D01*
X71968003Y-93176700D02*
X71396575Y-93748129D01*
%TO.C,D20*%
X93720754Y-125306980D02*
X93720754Y-124306980D01*
X93958849Y-124306980D01*
X94101706Y-124354600D01*
X94196944Y-124449838D01*
X94244563Y-124545076D01*
X94292182Y-124735552D01*
X94292182Y-124878409D01*
X94244563Y-125068885D01*
X94196944Y-125164123D01*
X94101706Y-125259361D01*
X93958849Y-125306980D01*
X93720754Y-125306980D01*
X94673135Y-124402219D02*
X94720754Y-124354600D01*
X94815992Y-124306980D01*
X95054087Y-124306980D01*
X95149325Y-124354600D01*
X95196944Y-124402219D01*
X95244563Y-124497457D01*
X95244563Y-124592695D01*
X95196944Y-124735552D01*
X94625516Y-125306980D01*
X95244563Y-125306980D01*
X95863611Y-124306980D02*
X95958849Y-124306980D01*
X96054087Y-124354600D01*
X96101706Y-124402219D01*
X96149325Y-124497457D01*
X96196944Y-124687933D01*
X96196944Y-124926028D01*
X96149325Y-125116504D01*
X96101706Y-125211742D01*
X96054087Y-125259361D01*
X95958849Y-125306980D01*
X95863611Y-125306980D01*
X95768373Y-125259361D01*
X95720754Y-125211742D01*
X95673135Y-125116504D01*
X95625516Y-124926028D01*
X95625516Y-124687933D01*
X95673135Y-124497457D01*
X95720754Y-124402219D01*
X95768373Y-124354600D01*
X95863611Y-124306980D01*
X90863135Y-125626980D02*
X90863135Y-124626980D01*
X91434563Y-125626980D02*
X91005992Y-125055552D01*
X91434563Y-124626980D02*
X90863135Y-125198409D01*
%TO.C,D22*%
X93360074Y-65710960D02*
X93360074Y-64710960D01*
X93598169Y-64710960D01*
X93741026Y-64758580D01*
X93836264Y-64853818D01*
X93883883Y-64949056D01*
X93931502Y-65139532D01*
X93931502Y-65282389D01*
X93883883Y-65472865D01*
X93836264Y-65568103D01*
X93741026Y-65663341D01*
X93598169Y-65710960D01*
X93360074Y-65710960D01*
X94312455Y-64806199D02*
X94360074Y-64758580D01*
X94455312Y-64710960D01*
X94693407Y-64710960D01*
X94788645Y-64758580D01*
X94836264Y-64806199D01*
X94883883Y-64901437D01*
X94883883Y-64996675D01*
X94836264Y-65139532D01*
X94264836Y-65710960D01*
X94883883Y-65710960D01*
X95264836Y-64806199D02*
X95312455Y-64758580D01*
X95407693Y-64710960D01*
X95645788Y-64710960D01*
X95741026Y-64758580D01*
X95788645Y-64806199D01*
X95836264Y-64901437D01*
X95836264Y-64996675D01*
X95788645Y-65139532D01*
X95217217Y-65710960D01*
X95836264Y-65710960D01*
X90502455Y-66030960D02*
X90502455Y-65030960D01*
X91073883Y-66030960D02*
X90645312Y-65459532D01*
X91073883Y-65030960D02*
X90502455Y-65602389D01*
%TO.C,D23*%
X92958754Y-108850320D02*
X92958754Y-107850320D01*
X93196849Y-107850320D01*
X93339706Y-107897940D01*
X93434944Y-107993178D01*
X93482563Y-108088416D01*
X93530182Y-108278892D01*
X93530182Y-108421749D01*
X93482563Y-108612225D01*
X93434944Y-108707463D01*
X93339706Y-108802701D01*
X93196849Y-108850320D01*
X92958754Y-108850320D01*
X93911135Y-107945559D02*
X93958754Y-107897940D01*
X94053992Y-107850320D01*
X94292087Y-107850320D01*
X94387325Y-107897940D01*
X94434944Y-107945559D01*
X94482563Y-108040797D01*
X94482563Y-108136035D01*
X94434944Y-108278892D01*
X93863516Y-108850320D01*
X94482563Y-108850320D01*
X94815897Y-107850320D02*
X95434944Y-107850320D01*
X95101611Y-108231273D01*
X95244468Y-108231273D01*
X95339706Y-108278892D01*
X95387325Y-108326511D01*
X95434944Y-108421749D01*
X95434944Y-108659844D01*
X95387325Y-108755082D01*
X95339706Y-108802701D01*
X95244468Y-108850320D01*
X94958754Y-108850320D01*
X94863516Y-108802701D01*
X94815897Y-108755082D01*
X90101135Y-109170320D02*
X90101135Y-108170320D01*
X90672563Y-109170320D02*
X90243992Y-108598892D01*
X90672563Y-108170320D02*
X90101135Y-108741749D01*
%TO.C,D24*%
X74482794Y-114984420D02*
X74482794Y-113984420D01*
X74720889Y-113984420D01*
X74863746Y-114032040D01*
X74958984Y-114127278D01*
X75006603Y-114222516D01*
X75054222Y-114412992D01*
X75054222Y-114555849D01*
X75006603Y-114746325D01*
X74958984Y-114841563D01*
X74863746Y-114936801D01*
X74720889Y-114984420D01*
X74482794Y-114984420D01*
X75435175Y-114079659D02*
X75482794Y-114032040D01*
X75578032Y-113984420D01*
X75816127Y-113984420D01*
X75911365Y-114032040D01*
X75958984Y-114079659D01*
X76006603Y-114174897D01*
X76006603Y-114270135D01*
X75958984Y-114412992D01*
X75387556Y-114984420D01*
X76006603Y-114984420D01*
X76863746Y-114317754D02*
X76863746Y-114984420D01*
X76625651Y-113936801D02*
X76387556Y-114651087D01*
X77006603Y-114651087D01*
X71625175Y-115304420D02*
X71625175Y-114304420D01*
X72196603Y-115304420D02*
X71768032Y-114732992D01*
X72196603Y-114304420D02*
X71625175Y-114875849D01*
%TO.C,D27*%
X108452754Y-80501380D02*
X108452754Y-79501380D01*
X108690849Y-79501380D01*
X108833706Y-79549000D01*
X108928944Y-79644238D01*
X108976563Y-79739476D01*
X109024182Y-79929952D01*
X109024182Y-80072809D01*
X108976563Y-80263285D01*
X108928944Y-80358523D01*
X108833706Y-80453761D01*
X108690849Y-80501380D01*
X108452754Y-80501380D01*
X109405135Y-79596619D02*
X109452754Y-79549000D01*
X109547992Y-79501380D01*
X109786087Y-79501380D01*
X109881325Y-79549000D01*
X109928944Y-79596619D01*
X109976563Y-79691857D01*
X109976563Y-79787095D01*
X109928944Y-79929952D01*
X109357516Y-80501380D01*
X109976563Y-80501380D01*
X110309897Y-79501380D02*
X110976563Y-79501380D01*
X110547992Y-80501380D01*
X105595135Y-80821380D02*
X105595135Y-79821380D01*
X106166563Y-80821380D02*
X105737992Y-80249952D01*
X106166563Y-79821380D02*
X105595135Y-80392809D01*
%TO.C,J1*%
X87099340Y-96452013D02*
X87813626Y-96452013D01*
X87956483Y-96499632D01*
X88051721Y-96594870D01*
X88099340Y-96737727D01*
X88099340Y-96832965D01*
X88099340Y-95452013D02*
X88099340Y-96023441D01*
X88099340Y-95737727D02*
X87099340Y-95737727D01*
X87242198Y-95832965D01*
X87337436Y-95928203D01*
X87385055Y-96023441D01*
%TO.C,J2*%
X68610680Y-81902893D02*
X69324966Y-81902893D01*
X69467823Y-81950512D01*
X69563061Y-82045750D01*
X69610680Y-82188607D01*
X69610680Y-82283845D01*
X68705919Y-81474321D02*
X68658300Y-81426702D01*
X68610680Y-81331464D01*
X68610680Y-81093369D01*
X68658300Y-80998131D01*
X68705919Y-80950512D01*
X68801157Y-80902893D01*
X68896395Y-80902893D01*
X69039252Y-80950512D01*
X69610680Y-81521940D01*
X69610680Y-80902893D01*
%TO.C,J3*%
X69547940Y-103886593D02*
X70262226Y-103886593D01*
X70405083Y-103934212D01*
X70500321Y-104029450D01*
X70547940Y-104172307D01*
X70547940Y-104267545D01*
X69547940Y-103505640D02*
X69547940Y-102886593D01*
X69928893Y-103219926D01*
X69928893Y-103077069D01*
X69976512Y-102981831D01*
X70024131Y-102934212D01*
X70119369Y-102886593D01*
X70357464Y-102886593D01*
X70452702Y-102934212D01*
X70500321Y-102981831D01*
X70547940Y-103077069D01*
X70547940Y-103362783D01*
X70500321Y-103458021D01*
X70452702Y-103505640D01*
%TO.C,J4*%
X89481860Y-135303853D02*
X90196146Y-135303853D01*
X90339003Y-135351472D01*
X90434241Y-135446710D01*
X90481860Y-135589567D01*
X90481860Y-135684805D01*
X89815194Y-134399091D02*
X90481860Y-134399091D01*
X89434241Y-134637186D02*
X90148527Y-134875281D01*
X90148527Y-134256234D01*
%TO.C,J6*%
X88077240Y-74531813D02*
X88791526Y-74531813D01*
X88934383Y-74579432D01*
X89029621Y-74674670D01*
X89077240Y-74817527D01*
X89077240Y-74912765D01*
X88077240Y-73627051D02*
X88077240Y-73817527D01*
X88124860Y-73912765D01*
X88172479Y-73960384D01*
X88315336Y-74055622D01*
X88505812Y-74103241D01*
X88886764Y-74103241D01*
X88982002Y-74055622D01*
X89029621Y-74008003D01*
X89077240Y-73912765D01*
X89077240Y-73722289D01*
X89029621Y-73627051D01*
X88982002Y-73579432D01*
X88886764Y-73531813D01*
X88648669Y-73531813D01*
X88553431Y-73579432D01*
X88505812Y-73627051D01*
X88458193Y-73722289D01*
X88458193Y-73912765D01*
X88505812Y-74008003D01*
X88553431Y-74055622D01*
X88648669Y-74103241D01*
%TO.C,J7*%
X87460020Y-117760073D02*
X88174306Y-117760073D01*
X88317163Y-117807692D01*
X88412401Y-117902930D01*
X88460020Y-118045787D01*
X88460020Y-118141025D01*
X87460020Y-117379120D02*
X87460020Y-116712454D01*
X88460020Y-117141025D01*
%TO.C,J8*%
X68864680Y-124663793D02*
X69578966Y-124663793D01*
X69721823Y-124711412D01*
X69817061Y-124806650D01*
X69864680Y-124949507D01*
X69864680Y-125044745D01*
X69293252Y-124044745D02*
X69245633Y-124139983D01*
X69198014Y-124187602D01*
X69102776Y-124235221D01*
X69055157Y-124235221D01*
X68959919Y-124187602D01*
X68912300Y-124139983D01*
X68864680Y-124044745D01*
X68864680Y-123854269D01*
X68912300Y-123759031D01*
X68959919Y-123711412D01*
X69055157Y-123663793D01*
X69102776Y-123663793D01*
X69198014Y-123711412D01*
X69245633Y-123759031D01*
X69293252Y-123854269D01*
X69293252Y-124044745D01*
X69340871Y-124139983D01*
X69388490Y-124187602D01*
X69483728Y-124235221D01*
X69674204Y-124235221D01*
X69769442Y-124187602D01*
X69817061Y-124139983D01*
X69864680Y-124044745D01*
X69864680Y-123854269D01*
X69817061Y-123759031D01*
X69769442Y-123711412D01*
X69674204Y-123663793D01*
X69483728Y-123663793D01*
X69388490Y-123711412D01*
X69340871Y-123759031D01*
X69293252Y-123854269D01*
%TO.C,J9*%
X77756426Y-84376460D02*
X77756426Y-85090746D01*
X77708807Y-85233603D01*
X77613569Y-85328841D01*
X77470712Y-85376460D01*
X77375474Y-85376460D01*
X78280236Y-85376460D02*
X78470712Y-85376460D01*
X78565950Y-85328841D01*
X78613569Y-85281222D01*
X78708807Y-85138365D01*
X78756426Y-84947889D01*
X78756426Y-84566937D01*
X78708807Y-84471699D01*
X78661188Y-84424080D01*
X78565950Y-84376460D01*
X78375474Y-84376460D01*
X78280236Y-84424080D01*
X78232617Y-84471699D01*
X78184998Y-84566937D01*
X78184998Y-84805032D01*
X78232617Y-84900270D01*
X78280236Y-84947889D01*
X78375474Y-84995508D01*
X78565950Y-84995508D01*
X78661188Y-84947889D01*
X78708807Y-84900270D01*
X78756426Y-84805032D01*
%TO.C,J10*%
X59149716Y-69232980D02*
X59149716Y-69947266D01*
X59102097Y-70090123D01*
X59006859Y-70185361D01*
X58864001Y-70232980D01*
X58768763Y-70232980D01*
X60149716Y-70232980D02*
X59578287Y-70232980D01*
X59864001Y-70232980D02*
X59864001Y-69232980D01*
X59768763Y-69375838D01*
X59673525Y-69471076D01*
X59578287Y-69518695D01*
X60768763Y-69232980D02*
X60864001Y-69232980D01*
X60959240Y-69280600D01*
X61006859Y-69328219D01*
X61054478Y-69423457D01*
X61102097Y-69613933D01*
X61102097Y-69852028D01*
X61054478Y-70042504D01*
X61006859Y-70137742D01*
X60959240Y-70185361D01*
X60864001Y-70232980D01*
X60768763Y-70232980D01*
X60673525Y-70185361D01*
X60625906Y-70137742D01*
X60578287Y-70042504D01*
X60530668Y-69852028D01*
X60530668Y-69613933D01*
X60578287Y-69423457D01*
X60625906Y-69328219D01*
X60673525Y-69280600D01*
X60768763Y-69232980D01*
%TO.C,J11*%
X59500236Y-91955820D02*
X59500236Y-92670106D01*
X59452617Y-92812963D01*
X59357379Y-92908201D01*
X59214521Y-92955820D01*
X59119283Y-92955820D01*
X60500236Y-92955820D02*
X59928807Y-92955820D01*
X60214521Y-92955820D02*
X60214521Y-91955820D01*
X60119283Y-92098678D01*
X60024045Y-92193916D01*
X59928807Y-92241535D01*
X61452617Y-92955820D02*
X60881188Y-92955820D01*
X61166902Y-92955820D02*
X61166902Y-91955820D01*
X61071664Y-92098678D01*
X60976426Y-92193916D01*
X60881188Y-92241535D01*
%TO.C,J12*%
X77511376Y-126484580D02*
X77511376Y-127198866D01*
X77463757Y-127341723D01*
X77368519Y-127436961D01*
X77225661Y-127484580D01*
X77130423Y-127484580D01*
X78511376Y-127484580D02*
X77939947Y-127484580D01*
X78225661Y-127484580D02*
X78225661Y-126484580D01*
X78130423Y-126627438D01*
X78035185Y-126722676D01*
X77939947Y-126770295D01*
X78892328Y-126579819D02*
X78939947Y-126532200D01*
X79035185Y-126484580D01*
X79273280Y-126484580D01*
X79368519Y-126532200D01*
X79416138Y-126579819D01*
X79463757Y-126675057D01*
X79463757Y-126770295D01*
X79416138Y-126913152D01*
X78844709Y-127484580D01*
X79463757Y-127484580D01*
%TO.C,J14*%
X77839036Y-61135460D02*
X77839036Y-61849746D01*
X77791417Y-61992603D01*
X77696179Y-62087841D01*
X77553321Y-62135460D01*
X77458083Y-62135460D01*
X78839036Y-62135460D02*
X78267607Y-62135460D01*
X78553321Y-62135460D02*
X78553321Y-61135460D01*
X78458083Y-61278318D01*
X78362845Y-61373556D01*
X78267607Y-61421175D01*
X79696179Y-61468794D02*
X79696179Y-62135460D01*
X79458083Y-61087841D02*
X79219988Y-61802127D01*
X79839036Y-61802127D01*
%TO.C,J15*%
X77747596Y-105148580D02*
X77747596Y-105862866D01*
X77699977Y-106005723D01*
X77604739Y-106100961D01*
X77461881Y-106148580D01*
X77366643Y-106148580D01*
X78747596Y-106148580D02*
X78176167Y-106148580D01*
X78461881Y-106148580D02*
X78461881Y-105148580D01*
X78366643Y-105291438D01*
X78271405Y-105386676D01*
X78176167Y-105434295D01*
X79652358Y-105148580D02*
X79176167Y-105148580D01*
X79128548Y-105624771D01*
X79176167Y-105577152D01*
X79271405Y-105529533D01*
X79509500Y-105529533D01*
X79604739Y-105577152D01*
X79652358Y-105624771D01*
X79699977Y-105720009D01*
X79699977Y-105958104D01*
X79652358Y-106053342D01*
X79604739Y-106100961D01*
X79509500Y-106148580D01*
X79271405Y-106148580D01*
X79176167Y-106100961D01*
X79128548Y-106053342D01*
%TO.C,J16*%
X59672956Y-112733020D02*
X59672956Y-113447306D01*
X59625337Y-113590163D01*
X59530099Y-113685401D01*
X59387241Y-113733020D01*
X59292003Y-113733020D01*
X60672956Y-113733020D02*
X60101527Y-113733020D01*
X60387241Y-113733020D02*
X60387241Y-112733020D01*
X60292003Y-112875878D01*
X60196765Y-112971116D01*
X60101527Y-113018735D01*
X61530099Y-112733020D02*
X61339622Y-112733020D01*
X61244384Y-112780640D01*
X61196765Y-112828259D01*
X61101527Y-112971116D01*
X61053908Y-113161592D01*
X61053908Y-113542544D01*
X61101527Y-113637782D01*
X61149146Y-113685401D01*
X61244384Y-113733020D01*
X61434860Y-113733020D01*
X61530099Y-113685401D01*
X61577718Y-113637782D01*
X61625337Y-113542544D01*
X61625337Y-113304449D01*
X61577718Y-113209211D01*
X61530099Y-113161592D01*
X61434860Y-113113973D01*
X61244384Y-113113973D01*
X61149146Y-113161592D01*
X61101527Y-113209211D01*
X61053908Y-113304449D01*
%TO.C,J20*%
X167861716Y-144428780D02*
X167861716Y-145143066D01*
X167814097Y-145285923D01*
X167718859Y-145381161D01*
X167576001Y-145428780D01*
X167480763Y-145428780D01*
X168290287Y-144524019D02*
X168337906Y-144476400D01*
X168433144Y-144428780D01*
X168671240Y-144428780D01*
X168766478Y-144476400D01*
X168814097Y-144524019D01*
X168861716Y-144619257D01*
X168861716Y-144714495D01*
X168814097Y-144857352D01*
X168242668Y-145428780D01*
X168861716Y-145428780D01*
X169480763Y-144428780D02*
X169576001Y-144428780D01*
X169671240Y-144476400D01*
X169718859Y-144524019D01*
X169766478Y-144619257D01*
X169814097Y-144809733D01*
X169814097Y-145047828D01*
X169766478Y-145238304D01*
X169718859Y-145333542D01*
X169671240Y-145381161D01*
X169576001Y-145428780D01*
X169480763Y-145428780D01*
X169385525Y-145381161D01*
X169337906Y-145333542D01*
X169290287Y-145238304D01*
X169242668Y-145047828D01*
X169242668Y-144809733D01*
X169290287Y-144619257D01*
X169337906Y-144524019D01*
X169385525Y-144476400D01*
X169480763Y-144428780D01*
%TO.C,R5*%
X92375693Y-90467260D02*
X92042360Y-89991070D01*
X91804264Y-90467260D02*
X91804264Y-89467260D01*
X92185217Y-89467260D01*
X92280455Y-89514880D01*
X92328074Y-89562499D01*
X92375693Y-89657737D01*
X92375693Y-89800594D01*
X92328074Y-89895832D01*
X92280455Y-89943451D01*
X92185217Y-89991070D01*
X91804264Y-89991070D01*
X93280455Y-89467260D02*
X92804264Y-89467260D01*
X92756645Y-89943451D01*
X92804264Y-89895832D01*
X92899502Y-89848213D01*
X93137598Y-89848213D01*
X93232836Y-89895832D01*
X93280455Y-89943451D01*
X93328074Y-90038689D01*
X93328074Y-90276784D01*
X93280455Y-90372022D01*
X93232836Y-90419641D01*
X93137598Y-90467260D01*
X92899502Y-90467260D01*
X92804264Y-90419641D01*
X92756645Y-90372022D01*
%TO.C,R6*%
X74064833Y-75918140D02*
X73731500Y-75441950D01*
X73493404Y-75918140D02*
X73493404Y-74918140D01*
X73874357Y-74918140D01*
X73969595Y-74965760D01*
X74017214Y-75013379D01*
X74064833Y-75108617D01*
X74064833Y-75251474D01*
X74017214Y-75346712D01*
X73969595Y-75394331D01*
X73874357Y-75441950D01*
X73493404Y-75441950D01*
X74921976Y-74918140D02*
X74731500Y-74918140D01*
X74636261Y-74965760D01*
X74588642Y-75013379D01*
X74493404Y-75156236D01*
X74445785Y-75346712D01*
X74445785Y-75727664D01*
X74493404Y-75822902D01*
X74541023Y-75870521D01*
X74636261Y-75918140D01*
X74826738Y-75918140D01*
X74921976Y-75870521D01*
X74969595Y-75822902D01*
X75017214Y-75727664D01*
X75017214Y-75489569D01*
X74969595Y-75394331D01*
X74921976Y-75346712D01*
X74826738Y-75299093D01*
X74636261Y-75299093D01*
X74541023Y-75346712D01*
X74493404Y-75394331D01*
X74445785Y-75489569D01*
%TO.C,R7*%
X74633793Y-97990740D02*
X74300460Y-97514550D01*
X74062364Y-97990740D02*
X74062364Y-96990740D01*
X74443317Y-96990740D01*
X74538555Y-97038360D01*
X74586174Y-97085979D01*
X74633793Y-97181217D01*
X74633793Y-97324074D01*
X74586174Y-97419312D01*
X74538555Y-97466931D01*
X74443317Y-97514550D01*
X74062364Y-97514550D01*
X74967126Y-96990740D02*
X75633793Y-96990740D01*
X75205221Y-97990740D01*
%TO.C,R8*%
X93513613Y-129374980D02*
X93180280Y-128898790D01*
X92942184Y-129374980D02*
X92942184Y-128374980D01*
X93323137Y-128374980D01*
X93418375Y-128422600D01*
X93465994Y-128470219D01*
X93513613Y-128565457D01*
X93513613Y-128708314D01*
X93465994Y-128803552D01*
X93418375Y-128851171D01*
X93323137Y-128898790D01*
X92942184Y-128898790D01*
X94085041Y-128803552D02*
X93989803Y-128755933D01*
X93942184Y-128708314D01*
X93894565Y-128613076D01*
X93894565Y-128565457D01*
X93942184Y-128470219D01*
X93989803Y-128422600D01*
X94085041Y-128374980D01*
X94275518Y-128374980D01*
X94370756Y-128422600D01*
X94418375Y-128470219D01*
X94465994Y-128565457D01*
X94465994Y-128613076D01*
X94418375Y-128708314D01*
X94370756Y-128755933D01*
X94275518Y-128803552D01*
X94085041Y-128803552D01*
X93989803Y-128851171D01*
X93942184Y-128898790D01*
X93894565Y-128994028D01*
X93894565Y-129184504D01*
X93942184Y-129279742D01*
X93989803Y-129327361D01*
X94085041Y-129374980D01*
X94275518Y-129374980D01*
X94370756Y-129327361D01*
X94418375Y-129279742D01*
X94465994Y-129184504D01*
X94465994Y-128994028D01*
X94418375Y-128898790D01*
X94370756Y-128851171D01*
X94275518Y-128803552D01*
%TO.C,R10*%
X92775802Y-68724860D02*
X92442469Y-68248670D01*
X92204374Y-68724860D02*
X92204374Y-67724860D01*
X92585326Y-67724860D01*
X92680564Y-67772480D01*
X92728183Y-67820099D01*
X92775802Y-67915337D01*
X92775802Y-68058194D01*
X92728183Y-68153432D01*
X92680564Y-68201051D01*
X92585326Y-68248670D01*
X92204374Y-68248670D01*
X93728183Y-68724860D02*
X93156755Y-68724860D01*
X93442469Y-68724860D02*
X93442469Y-67724860D01*
X93347231Y-67867718D01*
X93251993Y-67962956D01*
X93156755Y-68010575D01*
X94347231Y-67724860D02*
X94442469Y-67724860D01*
X94537707Y-67772480D01*
X94585326Y-67820099D01*
X94632945Y-67915337D01*
X94680564Y-68105813D01*
X94680564Y-68343908D01*
X94632945Y-68534384D01*
X94585326Y-68629622D01*
X94537707Y-68677241D01*
X94442469Y-68724860D01*
X94347231Y-68724860D01*
X94251993Y-68677241D01*
X94204374Y-68629622D01*
X94156755Y-68534384D01*
X94109136Y-68343908D01*
X94109136Y-68105813D01*
X94156755Y-67915337D01*
X94204374Y-67820099D01*
X94251993Y-67772480D01*
X94347231Y-67724860D01*
%TO.C,R11*%
X92247482Y-111953120D02*
X91914149Y-111476930D01*
X91676054Y-111953120D02*
X91676054Y-110953120D01*
X92057006Y-110953120D01*
X92152244Y-111000740D01*
X92199863Y-111048359D01*
X92247482Y-111143597D01*
X92247482Y-111286454D01*
X92199863Y-111381692D01*
X92152244Y-111429311D01*
X92057006Y-111476930D01*
X91676054Y-111476930D01*
X93199863Y-111953120D02*
X92628435Y-111953120D01*
X92914149Y-111953120D02*
X92914149Y-110953120D01*
X92818911Y-111095978D01*
X92723673Y-111191216D01*
X92628435Y-111238835D01*
X94152244Y-111953120D02*
X93580816Y-111953120D01*
X93866530Y-111953120D02*
X93866530Y-110953120D01*
X93771292Y-111095978D01*
X93676054Y-111191216D01*
X93580816Y-111238835D01*
%TO.C,R12*%
X73563242Y-118577440D02*
X73229909Y-118101250D01*
X72991814Y-118577440D02*
X72991814Y-117577440D01*
X73372766Y-117577440D01*
X73468004Y-117625060D01*
X73515623Y-117672679D01*
X73563242Y-117767917D01*
X73563242Y-117910774D01*
X73515623Y-118006012D01*
X73468004Y-118053631D01*
X73372766Y-118101250D01*
X72991814Y-118101250D01*
X74515623Y-118577440D02*
X73944195Y-118577440D01*
X74229909Y-118577440D02*
X74229909Y-117577440D01*
X74134671Y-117720298D01*
X74039433Y-117815536D01*
X73944195Y-117863155D01*
X74896576Y-117672679D02*
X74944195Y-117625060D01*
X75039433Y-117577440D01*
X75277528Y-117577440D01*
X75372766Y-117625060D01*
X75420385Y-117672679D01*
X75468004Y-117767917D01*
X75468004Y-117863155D01*
X75420385Y-118006012D01*
X74848957Y-118577440D01*
X75468004Y-118577440D01*
%TO.C,U1*%
X109062615Y-60254080D02*
X109062615Y-61063604D01*
X109110234Y-61158842D01*
X109157853Y-61206461D01*
X109253091Y-61254080D01*
X109443567Y-61254080D01*
X109538805Y-61206461D01*
X109586424Y-61158842D01*
X109634043Y-61063604D01*
X109634043Y-60254080D01*
X110634043Y-61254080D02*
X110062615Y-61254080D01*
X110348329Y-61254080D02*
X110348329Y-60254080D01*
X110253091Y-60396938D01*
X110157853Y-60492176D01*
X110062615Y-60539795D01*
%TO.C,U3*%
X106360055Y-87830860D02*
X106360055Y-88640384D01*
X106407674Y-88735622D01*
X106455293Y-88783241D01*
X106550531Y-88830860D01*
X106741007Y-88830860D01*
X106836245Y-88783241D01*
X106883864Y-88735622D01*
X106931483Y-88640384D01*
X106931483Y-87830860D01*
X107312436Y-87830860D02*
X107931483Y-87830860D01*
X107598150Y-88211813D01*
X107741007Y-88211813D01*
X107836245Y-88259432D01*
X107883864Y-88307051D01*
X107931483Y-88402289D01*
X107931483Y-88640384D01*
X107883864Y-88735622D01*
X107836245Y-88783241D01*
X107741007Y-88830860D01*
X107455293Y-88830860D01*
X107360055Y-88783241D01*
X107312436Y-88735622D01*
%TO.C,C7*%
X107029593Y-84387322D02*
X106981974Y-84434941D01*
X106839117Y-84482560D01*
X106743879Y-84482560D01*
X106601021Y-84434941D01*
X106505783Y-84339703D01*
X106458164Y-84244465D01*
X106410545Y-84053989D01*
X106410545Y-83911132D01*
X106458164Y-83720656D01*
X106505783Y-83625418D01*
X106601021Y-83530180D01*
X106743879Y-83482560D01*
X106839117Y-83482560D01*
X106981974Y-83530180D01*
X107029593Y-83577799D01*
X107362926Y-83482560D02*
X108029593Y-83482560D01*
X107601021Y-84482560D01*
%TO.C,C1*%
X164556773Y-82470902D02*
X164509154Y-82518521D01*
X164366297Y-82566140D01*
X164271059Y-82566140D01*
X164128201Y-82518521D01*
X164032963Y-82423283D01*
X163985344Y-82328045D01*
X163937725Y-82137569D01*
X163937725Y-81994712D01*
X163985344Y-81804236D01*
X164032963Y-81708998D01*
X164128201Y-81613760D01*
X164271059Y-81566140D01*
X164366297Y-81566140D01*
X164509154Y-81613760D01*
X164556773Y-81661379D01*
X165509154Y-82566140D02*
X164937725Y-82566140D01*
X165223440Y-82566140D02*
X165223440Y-81566140D01*
X165128201Y-81708998D01*
X165032963Y-81804236D01*
X164937725Y-81851855D01*
%TO.C,D29*%
X116870314Y-91646900D02*
X116870314Y-90646900D01*
X117108409Y-90646900D01*
X117251266Y-90694520D01*
X117346504Y-90789758D01*
X117394123Y-90884996D01*
X117441742Y-91075472D01*
X117441742Y-91218329D01*
X117394123Y-91408805D01*
X117346504Y-91504043D01*
X117251266Y-91599281D01*
X117108409Y-91646900D01*
X116870314Y-91646900D01*
X117822695Y-90742139D02*
X117870314Y-90694520D01*
X117965552Y-90646900D01*
X118203647Y-90646900D01*
X118298885Y-90694520D01*
X118346504Y-90742139D01*
X118394123Y-90837377D01*
X118394123Y-90932615D01*
X118346504Y-91075472D01*
X117775076Y-91646900D01*
X118394123Y-91646900D01*
X118870314Y-91646900D02*
X119060790Y-91646900D01*
X119156028Y-91599281D01*
X119203647Y-91551662D01*
X119298885Y-91408805D01*
X119346504Y-91218329D01*
X119346504Y-90837377D01*
X119298885Y-90742139D01*
X119251266Y-90694520D01*
X119156028Y-90646900D01*
X118965552Y-90646900D01*
X118870314Y-90694520D01*
X118822695Y-90742139D01*
X118775076Y-90837377D01*
X118775076Y-91075472D01*
X118822695Y-91170710D01*
X118870314Y-91218329D01*
X118965552Y-91265948D01*
X119156028Y-91265948D01*
X119251266Y-91218329D01*
X119298885Y-91170710D01*
X119346504Y-91075472D01*
X114012695Y-91966900D02*
X114012695Y-90966900D01*
X114584123Y-91966900D02*
X114155552Y-91395472D01*
X114584123Y-90966900D02*
X114012695Y-91538329D01*
%TO.C,D30*%
X142971354Y-83598460D02*
X142971354Y-82598460D01*
X143209449Y-82598460D01*
X143352306Y-82646080D01*
X143447544Y-82741318D01*
X143495163Y-82836556D01*
X143542782Y-83027032D01*
X143542782Y-83169889D01*
X143495163Y-83360365D01*
X143447544Y-83455603D01*
X143352306Y-83550841D01*
X143209449Y-83598460D01*
X142971354Y-83598460D01*
X143876116Y-82598460D02*
X144495163Y-82598460D01*
X144161830Y-82979413D01*
X144304687Y-82979413D01*
X144399925Y-83027032D01*
X144447544Y-83074651D01*
X144495163Y-83169889D01*
X144495163Y-83407984D01*
X144447544Y-83503222D01*
X144399925Y-83550841D01*
X144304687Y-83598460D01*
X144018973Y-83598460D01*
X143923735Y-83550841D01*
X143876116Y-83503222D01*
X145114211Y-82598460D02*
X145209449Y-82598460D01*
X145304687Y-82646080D01*
X145352306Y-82693699D01*
X145399925Y-82788937D01*
X145447544Y-82979413D01*
X145447544Y-83217508D01*
X145399925Y-83407984D01*
X145352306Y-83503222D01*
X145304687Y-83550841D01*
X145209449Y-83598460D01*
X145114211Y-83598460D01*
X145018973Y-83550841D01*
X144971354Y-83503222D01*
X144923735Y-83407984D01*
X144876116Y-83217508D01*
X144876116Y-82979413D01*
X144923735Y-82788937D01*
X144971354Y-82693699D01*
X145018973Y-82646080D01*
X145114211Y-82598460D01*
%TO.C,J17*%
X151229796Y-121660220D02*
X151229796Y-122374506D01*
X151182177Y-122517363D01*
X151086939Y-122612601D01*
X150944081Y-122660220D01*
X150848843Y-122660220D01*
X152229796Y-122660220D02*
X151658367Y-122660220D01*
X151944081Y-122660220D02*
X151944081Y-121660220D01*
X151848843Y-121803078D01*
X151753605Y-121898316D01*
X151658367Y-121945935D01*
X152563129Y-121660220D02*
X153229796Y-121660220D01*
X152801224Y-122660220D01*
%TO.C,R14*%
X136045020Y-89263457D02*
X135568830Y-89596790D01*
X136045020Y-89834885D02*
X135045020Y-89834885D01*
X135045020Y-89453933D01*
X135092640Y-89358695D01*
X135140259Y-89311076D01*
X135235497Y-89263457D01*
X135378354Y-89263457D01*
X135473592Y-89311076D01*
X135521211Y-89358695D01*
X135568830Y-89453933D01*
X135568830Y-89834885D01*
X136045020Y-88311076D02*
X136045020Y-88882504D01*
X136045020Y-88596790D02*
X135045020Y-88596790D01*
X135187878Y-88692028D01*
X135283116Y-88787266D01*
X135330735Y-88882504D01*
X135378354Y-87453933D02*
X136045020Y-87453933D01*
X134997401Y-87692028D02*
X135711687Y-87930123D01*
X135711687Y-87311076D01*
%TO.C,R15*%
X151376820Y-122232657D02*
X150900630Y-122565990D01*
X151376820Y-122804085D02*
X150376820Y-122804085D01*
X150376820Y-122423133D01*
X150424440Y-122327895D01*
X150472059Y-122280276D01*
X150567297Y-122232657D01*
X150710154Y-122232657D01*
X150805392Y-122280276D01*
X150853011Y-122327895D01*
X150900630Y-122423133D01*
X150900630Y-122804085D01*
X151376820Y-121280276D02*
X151376820Y-121851704D01*
X151376820Y-121565990D02*
X150376820Y-121565990D01*
X150519678Y-121661228D01*
X150614916Y-121756466D01*
X150662535Y-121851704D01*
X150376820Y-120375514D02*
X150376820Y-120851704D01*
X150853011Y-120899323D01*
X150805392Y-120851704D01*
X150757773Y-120756466D01*
X150757773Y-120518371D01*
X150805392Y-120423133D01*
X150853011Y-120375514D01*
X150948249Y-120327895D01*
X151186344Y-120327895D01*
X151281582Y-120375514D01*
X151329201Y-120423133D01*
X151376820Y-120518371D01*
X151376820Y-120756466D01*
X151329201Y-120851704D01*
X151281582Y-120899323D01*
%TO.C,R19*%
X129186702Y-91346100D02*
X128853369Y-90869910D01*
X128615274Y-91346100D02*
X128615274Y-90346100D01*
X128996226Y-90346100D01*
X129091464Y-90393720D01*
X129139083Y-90441339D01*
X129186702Y-90536577D01*
X129186702Y-90679434D01*
X129139083Y-90774672D01*
X129091464Y-90822291D01*
X128996226Y-90869910D01*
X128615274Y-90869910D01*
X130139083Y-91346100D02*
X129567655Y-91346100D01*
X129853369Y-91346100D02*
X129853369Y-90346100D01*
X129758131Y-90488958D01*
X129662893Y-90584196D01*
X129567655Y-90631815D01*
X130615274Y-91346100D02*
X130805750Y-91346100D01*
X130900988Y-91298481D01*
X130948607Y-91250862D01*
X131043845Y-91108005D01*
X131091464Y-90917529D01*
X131091464Y-90536577D01*
X131043845Y-90441339D01*
X130996226Y-90393720D01*
X130900988Y-90346100D01*
X130710512Y-90346100D01*
X130615274Y-90393720D01*
X130567655Y-90441339D01*
X130520036Y-90536577D01*
X130520036Y-90774672D01*
X130567655Y-90869910D01*
X130615274Y-90917529D01*
X130710512Y-90965148D01*
X130900988Y-90965148D01*
X130996226Y-90917529D01*
X131043845Y-90869910D01*
X131091464Y-90774672D01*
%TO.C,R20*%
X152143222Y-81450260D02*
X151809889Y-80974070D01*
X151571794Y-81450260D02*
X151571794Y-80450260D01*
X151952746Y-80450260D01*
X152047984Y-80497880D01*
X152095603Y-80545499D01*
X152143222Y-80640737D01*
X152143222Y-80783594D01*
X152095603Y-80878832D01*
X152047984Y-80926451D01*
X151952746Y-80974070D01*
X151571794Y-80974070D01*
X152524175Y-80545499D02*
X152571794Y-80497880D01*
X152667032Y-80450260D01*
X152905127Y-80450260D01*
X153000365Y-80497880D01*
X153047984Y-80545499D01*
X153095603Y-80640737D01*
X153095603Y-80735975D01*
X153047984Y-80878832D01*
X152476556Y-81450260D01*
X153095603Y-81450260D01*
X153714651Y-80450260D02*
X153809889Y-80450260D01*
X153905127Y-80497880D01*
X153952746Y-80545499D01*
X154000365Y-80640737D01*
X154047984Y-80831213D01*
X154047984Y-81069308D01*
X154000365Y-81259784D01*
X153952746Y-81355022D01*
X153905127Y-81402641D01*
X153809889Y-81450260D01*
X153714651Y-81450260D01*
X153619413Y-81402641D01*
X153571794Y-81355022D01*
X153524175Y-81259784D01*
X153476556Y-81069308D01*
X153476556Y-80831213D01*
X153524175Y-80640737D01*
X153571794Y-80545499D01*
X153619413Y-80497880D01*
X153714651Y-80450260D01*
%TO.C,R21*%
X119036862Y-124889340D02*
X118703529Y-124413150D01*
X118465434Y-124889340D02*
X118465434Y-123889340D01*
X118846386Y-123889340D01*
X118941624Y-123936960D01*
X118989243Y-123984579D01*
X119036862Y-124079817D01*
X119036862Y-124222674D01*
X118989243Y-124317912D01*
X118941624Y-124365531D01*
X118846386Y-124413150D01*
X118465434Y-124413150D01*
X119417815Y-123984579D02*
X119465434Y-123936960D01*
X119560672Y-123889340D01*
X119798767Y-123889340D01*
X119894005Y-123936960D01*
X119941624Y-123984579D01*
X119989243Y-124079817D01*
X119989243Y-124175055D01*
X119941624Y-124317912D01*
X119370196Y-124889340D01*
X119989243Y-124889340D01*
X120941624Y-124889340D02*
X120370196Y-124889340D01*
X120655910Y-124889340D02*
X120655910Y-123889340D01*
X120560672Y-124032198D01*
X120465434Y-124127436D01*
X120370196Y-124175055D01*
%TO.C,R22*%
X148384340Y-138087337D02*
X147908150Y-138420670D01*
X148384340Y-138658765D02*
X147384340Y-138658765D01*
X147384340Y-138277813D01*
X147431960Y-138182575D01*
X147479579Y-138134956D01*
X147574817Y-138087337D01*
X147717674Y-138087337D01*
X147812912Y-138134956D01*
X147860531Y-138182575D01*
X147908150Y-138277813D01*
X147908150Y-138658765D01*
X147479579Y-137706384D02*
X147431960Y-137658765D01*
X147384340Y-137563527D01*
X147384340Y-137325432D01*
X147431960Y-137230194D01*
X147479579Y-137182575D01*
X147574817Y-137134956D01*
X147670055Y-137134956D01*
X147812912Y-137182575D01*
X148384340Y-137754003D01*
X148384340Y-137134956D01*
X147479579Y-136754003D02*
X147431960Y-136706384D01*
X147384340Y-136611146D01*
X147384340Y-136373051D01*
X147431960Y-136277813D01*
X147479579Y-136230194D01*
X147574817Y-136182575D01*
X147670055Y-136182575D01*
X147812912Y-136230194D01*
X148384340Y-136801622D01*
X148384340Y-136182575D01*
%TO.C,R23*%
X152143222Y-86438820D02*
X151809889Y-85962630D01*
X151571794Y-86438820D02*
X151571794Y-85438820D01*
X151952746Y-85438820D01*
X152047984Y-85486440D01*
X152095603Y-85534059D01*
X152143222Y-85629297D01*
X152143222Y-85772154D01*
X152095603Y-85867392D01*
X152047984Y-85915011D01*
X151952746Y-85962630D01*
X151571794Y-85962630D01*
X152524175Y-85534059D02*
X152571794Y-85486440D01*
X152667032Y-85438820D01*
X152905127Y-85438820D01*
X153000365Y-85486440D01*
X153047984Y-85534059D01*
X153095603Y-85629297D01*
X153095603Y-85724535D01*
X153047984Y-85867392D01*
X152476556Y-86438820D01*
X153095603Y-86438820D01*
X153428937Y-85438820D02*
X154047984Y-85438820D01*
X153714651Y-85819773D01*
X153857508Y-85819773D01*
X153952746Y-85867392D01*
X154000365Y-85915011D01*
X154047984Y-86010249D01*
X154047984Y-86248344D01*
X154000365Y-86343582D01*
X153952746Y-86391201D01*
X153857508Y-86438820D01*
X153571794Y-86438820D01*
X153476556Y-86391201D01*
X153428937Y-86343582D01*
%TO.C,R24*%
X121800382Y-71021380D02*
X121467049Y-70545190D01*
X121228954Y-71021380D02*
X121228954Y-70021380D01*
X121609906Y-70021380D01*
X121705144Y-70069000D01*
X121752763Y-70116619D01*
X121800382Y-70211857D01*
X121800382Y-70354714D01*
X121752763Y-70449952D01*
X121705144Y-70497571D01*
X121609906Y-70545190D01*
X121228954Y-70545190D01*
X122181335Y-70116619D02*
X122228954Y-70069000D01*
X122324192Y-70021380D01*
X122562287Y-70021380D01*
X122657525Y-70069000D01*
X122705144Y-70116619D01*
X122752763Y-70211857D01*
X122752763Y-70307095D01*
X122705144Y-70449952D01*
X122133716Y-71021380D01*
X122752763Y-71021380D01*
X123609906Y-70354714D02*
X123609906Y-71021380D01*
X123371811Y-69973761D02*
X123133716Y-70688047D01*
X123752763Y-70688047D01*
%TO.C,U4*%
X164190775Y-80571540D02*
X164190775Y-81381064D01*
X164238394Y-81476302D01*
X164286013Y-81523921D01*
X164381251Y-81571540D01*
X164571727Y-81571540D01*
X164666965Y-81523921D01*
X164714584Y-81476302D01*
X164762203Y-81381064D01*
X164762203Y-80571540D01*
X165666965Y-80904874D02*
X165666965Y-81571540D01*
X165428870Y-80523921D02*
X165190775Y-81238207D01*
X165809822Y-81238207D01*
%TO.C,C3*%
X136922853Y-115601382D02*
X136875234Y-115649001D01*
X136732377Y-115696620D01*
X136637139Y-115696620D01*
X136494281Y-115649001D01*
X136399043Y-115553763D01*
X136351424Y-115458525D01*
X136303805Y-115268049D01*
X136303805Y-115125192D01*
X136351424Y-114934716D01*
X136399043Y-114839478D01*
X136494281Y-114744240D01*
X136637139Y-114696620D01*
X136732377Y-114696620D01*
X136875234Y-114744240D01*
X136922853Y-114791859D01*
X137256186Y-114696620D02*
X137875234Y-114696620D01*
X137541900Y-115077573D01*
X137684758Y-115077573D01*
X137779996Y-115125192D01*
X137827615Y-115172811D01*
X137875234Y-115268049D01*
X137875234Y-115506144D01*
X137827615Y-115601382D01*
X137779996Y-115649001D01*
X137684758Y-115696620D01*
X137399043Y-115696620D01*
X137303805Y-115649001D01*
X137256186Y-115601382D01*
%TO.C,C4*%
X114463462Y-84539746D02*
X114511081Y-84587365D01*
X114558700Y-84730222D01*
X114558700Y-84825460D01*
X114511081Y-84968318D01*
X114415843Y-85063556D01*
X114320605Y-85111175D01*
X114130129Y-85158794D01*
X113987272Y-85158794D01*
X113796796Y-85111175D01*
X113701558Y-85063556D01*
X113606320Y-84968318D01*
X113558700Y-84825460D01*
X113558700Y-84730222D01*
X113606320Y-84587365D01*
X113653939Y-84539746D01*
X113892034Y-83682603D02*
X114558700Y-83682603D01*
X113511081Y-83920699D02*
X114225367Y-84158794D01*
X114225367Y-83539746D01*
%TO.C,D5*%
X127349024Y-101170180D02*
X127349024Y-100170180D01*
X127587120Y-100170180D01*
X127729977Y-100217800D01*
X127825215Y-100313038D01*
X127872834Y-100408276D01*
X127920453Y-100598752D01*
X127920453Y-100741609D01*
X127872834Y-100932085D01*
X127825215Y-101027323D01*
X127729977Y-101122561D01*
X127587120Y-101170180D01*
X127349024Y-101170180D01*
X128825215Y-100170180D02*
X128349024Y-100170180D01*
X128301405Y-100646371D01*
X128349024Y-100598752D01*
X128444262Y-100551133D01*
X128682358Y-100551133D01*
X128777596Y-100598752D01*
X128825215Y-100646371D01*
X128872834Y-100741609D01*
X128872834Y-100979704D01*
X128825215Y-101074942D01*
X128777596Y-101122561D01*
X128682358Y-101170180D01*
X128444262Y-101170180D01*
X128349024Y-101122561D01*
X128301405Y-101074942D01*
%TO.C,D13*%
X120472034Y-115841140D02*
X120472034Y-114841140D01*
X120710129Y-114841140D01*
X120852986Y-114888760D01*
X120948224Y-114983998D01*
X120995843Y-115079236D01*
X121043462Y-115269712D01*
X121043462Y-115412569D01*
X120995843Y-115603045D01*
X120948224Y-115698283D01*
X120852986Y-115793521D01*
X120710129Y-115841140D01*
X120472034Y-115841140D01*
X121995843Y-115841140D02*
X121424415Y-115841140D01*
X121710129Y-115841140D02*
X121710129Y-114841140D01*
X121614891Y-114983998D01*
X121519653Y-115079236D01*
X121424415Y-115126855D01*
X122329177Y-114841140D02*
X122948224Y-114841140D01*
X122614891Y-115222093D01*
X122757748Y-115222093D01*
X122852986Y-115269712D01*
X122900605Y-115317331D01*
X122948224Y-115412569D01*
X122948224Y-115650664D01*
X122900605Y-115745902D01*
X122852986Y-115793521D01*
X122757748Y-115841140D01*
X122472034Y-115841140D01*
X122376796Y-115793521D01*
X122329177Y-115745902D01*
X125234415Y-115521140D02*
X125234415Y-114521140D01*
X125805843Y-115521140D02*
X125377272Y-114949712D01*
X125805843Y-114521140D02*
X125234415Y-115092569D01*
%TO.C,D21*%
X117053194Y-105229020D02*
X117053194Y-104229020D01*
X117291289Y-104229020D01*
X117434146Y-104276640D01*
X117529384Y-104371878D01*
X117577003Y-104467116D01*
X117624622Y-104657592D01*
X117624622Y-104800449D01*
X117577003Y-104990925D01*
X117529384Y-105086163D01*
X117434146Y-105181401D01*
X117291289Y-105229020D01*
X117053194Y-105229020D01*
X118005575Y-104324259D02*
X118053194Y-104276640D01*
X118148432Y-104229020D01*
X118386527Y-104229020D01*
X118481765Y-104276640D01*
X118529384Y-104324259D01*
X118577003Y-104419497D01*
X118577003Y-104514735D01*
X118529384Y-104657592D01*
X117957956Y-105229020D01*
X118577003Y-105229020D01*
X119529384Y-105229020D02*
X118957956Y-105229020D01*
X119243670Y-105229020D02*
X119243670Y-104229020D01*
X119148432Y-104371878D01*
X119053194Y-104467116D01*
X118957956Y-104514735D01*
X121815575Y-104909020D02*
X121815575Y-103909020D01*
X122387003Y-104909020D02*
X121958432Y-104337592D01*
X122387003Y-103909020D02*
X121815575Y-104480449D01*
%TO.C,D25*%
X137185234Y-61114380D02*
X137185234Y-60114380D01*
X137423329Y-60114380D01*
X137566186Y-60162000D01*
X137661424Y-60257238D01*
X137709043Y-60352476D01*
X137756662Y-60542952D01*
X137756662Y-60685809D01*
X137709043Y-60876285D01*
X137661424Y-60971523D01*
X137566186Y-61066761D01*
X137423329Y-61114380D01*
X137185234Y-61114380D01*
X138137615Y-60209619D02*
X138185234Y-60162000D01*
X138280472Y-60114380D01*
X138518567Y-60114380D01*
X138613805Y-60162000D01*
X138661424Y-60209619D01*
X138709043Y-60304857D01*
X138709043Y-60400095D01*
X138661424Y-60542952D01*
X138089996Y-61114380D01*
X138709043Y-61114380D01*
X139613805Y-60114380D02*
X139137615Y-60114380D01*
X139089996Y-60590571D01*
X139137615Y-60542952D01*
X139232853Y-60495333D01*
X139470948Y-60495333D01*
X139566186Y-60542952D01*
X139613805Y-60590571D01*
X139661424Y-60685809D01*
X139661424Y-60923904D01*
X139613805Y-61019142D01*
X139566186Y-61066761D01*
X139470948Y-61114380D01*
X139232853Y-61114380D01*
X139137615Y-61066761D01*
X139089996Y-61019142D01*
%TO.C,D26*%
X116849994Y-88238220D02*
X116849994Y-87238220D01*
X117088089Y-87238220D01*
X117230946Y-87285840D01*
X117326184Y-87381078D01*
X117373803Y-87476316D01*
X117421422Y-87666792D01*
X117421422Y-87809649D01*
X117373803Y-88000125D01*
X117326184Y-88095363D01*
X117230946Y-88190601D01*
X117088089Y-88238220D01*
X116849994Y-88238220D01*
X117802375Y-87333459D02*
X117849994Y-87285840D01*
X117945232Y-87238220D01*
X118183327Y-87238220D01*
X118278565Y-87285840D01*
X118326184Y-87333459D01*
X118373803Y-87428697D01*
X118373803Y-87523935D01*
X118326184Y-87666792D01*
X117754756Y-88238220D01*
X118373803Y-88238220D01*
X119230946Y-87238220D02*
X119040470Y-87238220D01*
X118945232Y-87285840D01*
X118897613Y-87333459D01*
X118802375Y-87476316D01*
X118754756Y-87666792D01*
X118754756Y-88047744D01*
X118802375Y-88142982D01*
X118849994Y-88190601D01*
X118945232Y-88238220D01*
X119135708Y-88238220D01*
X119230946Y-88190601D01*
X119278565Y-88142982D01*
X119326184Y-88047744D01*
X119326184Y-87809649D01*
X119278565Y-87714411D01*
X119230946Y-87666792D01*
X119135708Y-87619173D01*
X118945232Y-87619173D01*
X118849994Y-87666792D01*
X118802375Y-87714411D01*
X118754756Y-87809649D01*
X113992375Y-88558220D02*
X113992375Y-87558220D01*
X114563803Y-88558220D02*
X114135232Y-87986792D01*
X114563803Y-87558220D02*
X113992375Y-88129649D01*
%TO.C,D28*%
X119877674Y-69762260D02*
X119877674Y-68762260D01*
X120115769Y-68762260D01*
X120258626Y-68809880D01*
X120353864Y-68905118D01*
X120401483Y-69000356D01*
X120449102Y-69190832D01*
X120449102Y-69333689D01*
X120401483Y-69524165D01*
X120353864Y-69619403D01*
X120258626Y-69714641D01*
X120115769Y-69762260D01*
X119877674Y-69762260D01*
X120830055Y-68857499D02*
X120877674Y-68809880D01*
X120972912Y-68762260D01*
X121211007Y-68762260D01*
X121306245Y-68809880D01*
X121353864Y-68857499D01*
X121401483Y-68952737D01*
X121401483Y-69047975D01*
X121353864Y-69190832D01*
X120782436Y-69762260D01*
X121401483Y-69762260D01*
X121972912Y-69190832D02*
X121877674Y-69143213D01*
X121830055Y-69095594D01*
X121782436Y-69000356D01*
X121782436Y-68952737D01*
X121830055Y-68857499D01*
X121877674Y-68809880D01*
X121972912Y-68762260D01*
X122163388Y-68762260D01*
X122258626Y-68809880D01*
X122306245Y-68857499D01*
X122353864Y-68952737D01*
X122353864Y-69000356D01*
X122306245Y-69095594D01*
X122258626Y-69143213D01*
X122163388Y-69190832D01*
X121972912Y-69190832D01*
X121877674Y-69238451D01*
X121830055Y-69286070D01*
X121782436Y-69381308D01*
X121782436Y-69571784D01*
X121830055Y-69667022D01*
X121877674Y-69714641D01*
X121972912Y-69762260D01*
X122163388Y-69762260D01*
X122258626Y-69714641D01*
X122306245Y-69667022D01*
X122353864Y-69571784D01*
X122353864Y-69381308D01*
X122306245Y-69286070D01*
X122258626Y-69238451D01*
X122163388Y-69190832D01*
X117020055Y-70082260D02*
X117020055Y-69082260D01*
X117591483Y-70082260D02*
X117162912Y-69510832D01*
X117591483Y-69082260D02*
X117020055Y-69653689D01*
%TO.C,J5*%
X122147900Y-110091813D02*
X122862186Y-110091813D01*
X123005043Y-110139432D01*
X123100281Y-110234670D01*
X123147900Y-110377527D01*
X123147900Y-110472765D01*
X122147900Y-109139432D02*
X122147900Y-109615622D01*
X122624091Y-109663241D01*
X122576472Y-109615622D01*
X122528853Y-109520384D01*
X122528853Y-109282289D01*
X122576472Y-109187051D01*
X122624091Y-109139432D01*
X122719329Y-109091813D01*
X122957424Y-109091813D01*
X123052662Y-109139432D01*
X123100281Y-109187051D01*
X123147900Y-109282289D01*
X123147900Y-109520384D01*
X123100281Y-109615622D01*
X123052662Y-109663241D01*
%TO.C,J13*%
X133109436Y-97848620D02*
X133109436Y-98562906D01*
X133061817Y-98705763D01*
X132966579Y-98801001D01*
X132823721Y-98848620D01*
X132728483Y-98848620D01*
X134109436Y-98848620D02*
X133538007Y-98848620D01*
X133823721Y-98848620D02*
X133823721Y-97848620D01*
X133728483Y-97991478D01*
X133633245Y-98086716D01*
X133538007Y-98134335D01*
X134442769Y-97848620D02*
X135061817Y-97848620D01*
X134728483Y-98229573D01*
X134871340Y-98229573D01*
X134966579Y-98277192D01*
X135014198Y-98324811D01*
X135061817Y-98420049D01*
X135061817Y-98658144D01*
X135014198Y-98753382D01*
X134966579Y-98801001D01*
X134871340Y-98848620D01*
X134585626Y-98848620D01*
X134490388Y-98801001D01*
X134442769Y-98753382D01*
%TO.C,J18*%
X131839436Y-69783260D02*
X131839436Y-70497546D01*
X131791817Y-70640403D01*
X131696579Y-70735641D01*
X131553721Y-70783260D01*
X131458483Y-70783260D01*
X132839436Y-70783260D02*
X132268007Y-70783260D01*
X132553721Y-70783260D02*
X132553721Y-69783260D01*
X132458483Y-69926118D01*
X132363245Y-70021356D01*
X132268007Y-70068975D01*
X133410864Y-70211832D02*
X133315626Y-70164213D01*
X133268007Y-70116594D01*
X133220388Y-70021356D01*
X133220388Y-69973737D01*
X133268007Y-69878499D01*
X133315626Y-69830880D01*
X133410864Y-69783260D01*
X133601340Y-69783260D01*
X133696579Y-69830880D01*
X133744198Y-69878499D01*
X133791817Y-69973737D01*
X133791817Y-70021356D01*
X133744198Y-70116594D01*
X133696579Y-70164213D01*
X133601340Y-70211832D01*
X133410864Y-70211832D01*
X133315626Y-70259451D01*
X133268007Y-70307070D01*
X133220388Y-70402308D01*
X133220388Y-70592784D01*
X133268007Y-70688022D01*
X133315626Y-70735641D01*
X133410864Y-70783260D01*
X133601340Y-70783260D01*
X133696579Y-70735641D01*
X133744198Y-70688022D01*
X133791817Y-70592784D01*
X133791817Y-70402308D01*
X133744198Y-70307070D01*
X133696579Y-70259451D01*
X133601340Y-70211832D01*
%TO.C,J19*%
X145646876Y-143194340D02*
X145646876Y-143908626D01*
X145599257Y-144051483D01*
X145504019Y-144146721D01*
X145361161Y-144194340D01*
X145265923Y-144194340D01*
X146646876Y-144194340D02*
X146075447Y-144194340D01*
X146361161Y-144194340D02*
X146361161Y-143194340D01*
X146265923Y-143337198D01*
X146170685Y-143432436D01*
X146075447Y-143480055D01*
X147123066Y-144194340D02*
X147313542Y-144194340D01*
X147408780Y-144146721D01*
X147456400Y-144099102D01*
X147551638Y-143956245D01*
X147599257Y-143765769D01*
X147599257Y-143384817D01*
X147551638Y-143289579D01*
X147504019Y-143241960D01*
X147408780Y-143194340D01*
X147218304Y-143194340D01*
X147123066Y-143241960D01*
X147075447Y-143289579D01*
X147027828Y-143384817D01*
X147027828Y-143622912D01*
X147075447Y-143718150D01*
X147123066Y-143765769D01*
X147218304Y-143813388D01*
X147408780Y-143813388D01*
X147504019Y-143765769D01*
X147551638Y-143718150D01*
X147599257Y-143622912D01*
%TO.C,J21*%
X114567436Y-130929580D02*
X114567436Y-131643866D01*
X114519817Y-131786723D01*
X114424579Y-131881961D01*
X114281721Y-131929580D01*
X114186483Y-131929580D01*
X114996007Y-131024819D02*
X115043626Y-130977200D01*
X115138864Y-130929580D01*
X115376960Y-130929580D01*
X115472198Y-130977200D01*
X115519817Y-131024819D01*
X115567436Y-131120057D01*
X115567436Y-131215295D01*
X115519817Y-131358152D01*
X114948388Y-131929580D01*
X115567436Y-131929580D01*
X116519817Y-131929580D02*
X115948388Y-131929580D01*
X116234102Y-131929580D02*
X116234102Y-130929580D01*
X116138864Y-131072438D01*
X116043626Y-131167676D01*
X115948388Y-131215295D01*
%TO.C,J22*%
X114481076Y-117731740D02*
X114481076Y-118446026D01*
X114433457Y-118588883D01*
X114338219Y-118684121D01*
X114195361Y-118731740D01*
X114100123Y-118731740D01*
X114909647Y-117826979D02*
X114957266Y-117779360D01*
X115052504Y-117731740D01*
X115290600Y-117731740D01*
X115385838Y-117779360D01*
X115433457Y-117826979D01*
X115481076Y-117922217D01*
X115481076Y-118017455D01*
X115433457Y-118160312D01*
X114862028Y-118731740D01*
X115481076Y-118731740D01*
X115862028Y-117826979D02*
X115909647Y-117779360D01*
X116004885Y-117731740D01*
X116242980Y-117731740D01*
X116338219Y-117779360D01*
X116385838Y-117826979D01*
X116433457Y-117922217D01*
X116433457Y-118017455D01*
X116385838Y-118160312D01*
X115814409Y-118731740D01*
X116433457Y-118731740D01*
%TO.C,J23*%
X124508996Y-58732620D02*
X124508996Y-59446906D01*
X124461377Y-59589763D01*
X124366139Y-59685001D01*
X124223281Y-59732620D01*
X124128043Y-59732620D01*
X124937567Y-58827859D02*
X124985186Y-58780240D01*
X125080424Y-58732620D01*
X125318520Y-58732620D01*
X125413758Y-58780240D01*
X125461377Y-58827859D01*
X125508996Y-58923097D01*
X125508996Y-59018335D01*
X125461377Y-59161192D01*
X124889948Y-59732620D01*
X125508996Y-59732620D01*
X125842329Y-58732620D02*
X126461377Y-58732620D01*
X126128043Y-59113573D01*
X126270900Y-59113573D01*
X126366139Y-59161192D01*
X126413758Y-59208811D01*
X126461377Y-59304049D01*
X126461377Y-59542144D01*
X126413758Y-59637382D01*
X126366139Y-59685001D01*
X126270900Y-59732620D01*
X125985186Y-59732620D01*
X125889948Y-59685001D01*
X125842329Y-59637382D01*
%TO.C,J24*%
X143437076Y-75745540D02*
X143437076Y-76459826D01*
X143389457Y-76602683D01*
X143294219Y-76697921D01*
X143151361Y-76745540D01*
X143056123Y-76745540D01*
X143865647Y-75840779D02*
X143913266Y-75793160D01*
X144008504Y-75745540D01*
X144246600Y-75745540D01*
X144341838Y-75793160D01*
X144389457Y-75840779D01*
X144437076Y-75936017D01*
X144437076Y-76031255D01*
X144389457Y-76174112D01*
X143818028Y-76745540D01*
X144437076Y-76745540D01*
X145294219Y-76078874D02*
X145294219Y-76745540D01*
X145056123Y-75697921D02*
X144818028Y-76412207D01*
X145437076Y-76412207D01*
%TO.C,J25*%
X130030956Y-69304100D02*
X130030956Y-70018386D01*
X129983337Y-70161243D01*
X129888099Y-70256481D01*
X129745241Y-70304100D01*
X129650003Y-70304100D01*
X130459527Y-69399339D02*
X130507146Y-69351720D01*
X130602384Y-69304100D01*
X130840480Y-69304100D01*
X130935718Y-69351720D01*
X130983337Y-69399339D01*
X131030956Y-69494577D01*
X131030956Y-69589815D01*
X130983337Y-69732672D01*
X130411908Y-70304100D01*
X131030956Y-70304100D01*
X131935718Y-69304100D02*
X131459527Y-69304100D01*
X131411908Y-69780291D01*
X131459527Y-69732672D01*
X131554765Y-69685053D01*
X131792860Y-69685053D01*
X131888099Y-69732672D01*
X131935718Y-69780291D01*
X131983337Y-69875529D01*
X131983337Y-70113624D01*
X131935718Y-70208862D01*
X131888099Y-70256481D01*
X131792860Y-70304100D01*
X131554765Y-70304100D01*
X131459527Y-70256481D01*
X131411908Y-70208862D01*
%TO.C,R1*%
X122368013Y-72885380D02*
X122034680Y-72409190D01*
X121796584Y-72885380D02*
X121796584Y-71885380D01*
X122177537Y-71885380D01*
X122272775Y-71933000D01*
X122320394Y-71980619D01*
X122368013Y-72075857D01*
X122368013Y-72218714D01*
X122320394Y-72313952D01*
X122272775Y-72361571D01*
X122177537Y-72409190D01*
X121796584Y-72409190D01*
X123320394Y-72885380D02*
X122748965Y-72885380D01*
X123034680Y-72885380D02*
X123034680Y-71885380D01*
X122939441Y-72028238D01*
X122844203Y-72123476D01*
X122748965Y-72171095D01*
%TO.C,R2*%
X137609533Y-139143300D02*
X137276200Y-138667110D01*
X137038104Y-139143300D02*
X137038104Y-138143300D01*
X137419057Y-138143300D01*
X137514295Y-138190920D01*
X137561914Y-138238539D01*
X137609533Y-138333777D01*
X137609533Y-138476634D01*
X137561914Y-138571872D01*
X137514295Y-138619491D01*
X137419057Y-138667110D01*
X137038104Y-138667110D01*
X137990485Y-138238539D02*
X138038104Y-138190920D01*
X138133342Y-138143300D01*
X138371438Y-138143300D01*
X138466676Y-138190920D01*
X138514295Y-138238539D01*
X138561914Y-138333777D01*
X138561914Y-138429015D01*
X138514295Y-138571872D01*
X137942866Y-139143300D01*
X138561914Y-139143300D01*
%TO.C,R3*%
X124537173Y-138361500D02*
X124203840Y-137885310D01*
X123965744Y-138361500D02*
X123965744Y-137361500D01*
X124346697Y-137361500D01*
X124441935Y-137409120D01*
X124489554Y-137456739D01*
X124537173Y-137551977D01*
X124537173Y-137694834D01*
X124489554Y-137790072D01*
X124441935Y-137837691D01*
X124346697Y-137885310D01*
X123965744Y-137885310D01*
X124870506Y-137361500D02*
X125489554Y-137361500D01*
X125156220Y-137742453D01*
X125299078Y-137742453D01*
X125394316Y-137790072D01*
X125441935Y-137837691D01*
X125489554Y-137932929D01*
X125489554Y-138171024D01*
X125441935Y-138266262D01*
X125394316Y-138313881D01*
X125299078Y-138361500D01*
X125013363Y-138361500D01*
X124918125Y-138313881D01*
X124870506Y-138266262D01*
%TO.C,R4*%
X127393780Y-119236786D02*
X126917590Y-119570120D01*
X127393780Y-119808215D02*
X126393780Y-119808215D01*
X126393780Y-119427262D01*
X126441400Y-119332024D01*
X126489019Y-119284405D01*
X126584257Y-119236786D01*
X126727114Y-119236786D01*
X126822352Y-119284405D01*
X126869971Y-119332024D01*
X126917590Y-119427262D01*
X126917590Y-119808215D01*
X126727114Y-118379643D02*
X127393780Y-118379643D01*
X126346161Y-118617739D02*
X127060447Y-118855834D01*
X127060447Y-118236786D01*
%TO.C,R9*%
X119502893Y-108725140D02*
X119169560Y-108248950D01*
X118931464Y-108725140D02*
X118931464Y-107725140D01*
X119312417Y-107725140D01*
X119407655Y-107772760D01*
X119455274Y-107820379D01*
X119502893Y-107915617D01*
X119502893Y-108058474D01*
X119455274Y-108153712D01*
X119407655Y-108201331D01*
X119312417Y-108248950D01*
X118931464Y-108248950D01*
X119979083Y-108725140D02*
X120169560Y-108725140D01*
X120264798Y-108677521D01*
X120312417Y-108629902D01*
X120407655Y-108487045D01*
X120455274Y-108296569D01*
X120455274Y-107915617D01*
X120407655Y-107820379D01*
X120360036Y-107772760D01*
X120264798Y-107725140D01*
X120074321Y-107725140D01*
X119979083Y-107772760D01*
X119931464Y-107820379D01*
X119883845Y-107915617D01*
X119883845Y-108153712D01*
X119931464Y-108248950D01*
X119979083Y-108296569D01*
X120074321Y-108344188D01*
X120264798Y-108344188D01*
X120360036Y-108296569D01*
X120407655Y-108248950D01*
X120455274Y-108153712D01*
%TO.C,R13*%
X123776502Y-134830900D02*
X123443169Y-134354710D01*
X123205074Y-134830900D02*
X123205074Y-133830900D01*
X123586026Y-133830900D01*
X123681264Y-133878520D01*
X123728883Y-133926139D01*
X123776502Y-134021377D01*
X123776502Y-134164234D01*
X123728883Y-134259472D01*
X123681264Y-134307091D01*
X123586026Y-134354710D01*
X123205074Y-134354710D01*
X124728883Y-134830900D02*
X124157455Y-134830900D01*
X124443169Y-134830900D02*
X124443169Y-133830900D01*
X124347931Y-133973758D01*
X124252693Y-134068996D01*
X124157455Y-134116615D01*
X125062217Y-133830900D02*
X125681264Y-133830900D01*
X125347931Y-134211853D01*
X125490788Y-134211853D01*
X125586026Y-134259472D01*
X125633645Y-134307091D01*
X125681264Y-134402329D01*
X125681264Y-134640424D01*
X125633645Y-134735662D01*
X125586026Y-134783281D01*
X125490788Y-134830900D01*
X125205074Y-134830900D01*
X125109836Y-134783281D01*
X125062217Y-134735662D01*
%TO.C,R16*%
X133240542Y-56741140D02*
X132907209Y-56264950D01*
X132669114Y-56741140D02*
X132669114Y-55741140D01*
X133050066Y-55741140D01*
X133145304Y-55788760D01*
X133192923Y-55836379D01*
X133240542Y-55931617D01*
X133240542Y-56074474D01*
X133192923Y-56169712D01*
X133145304Y-56217331D01*
X133050066Y-56264950D01*
X132669114Y-56264950D01*
X134192923Y-56741140D02*
X133621495Y-56741140D01*
X133907209Y-56741140D02*
X133907209Y-55741140D01*
X133811971Y-55883998D01*
X133716733Y-55979236D01*
X133621495Y-56026855D01*
X135050066Y-55741140D02*
X134859590Y-55741140D01*
X134764352Y-55788760D01*
X134716733Y-55836379D01*
X134621495Y-55979236D01*
X134573876Y-56169712D01*
X134573876Y-56550664D01*
X134621495Y-56645902D01*
X134669114Y-56693521D01*
X134764352Y-56741140D01*
X134954828Y-56741140D01*
X135050066Y-56693521D01*
X135097685Y-56645902D01*
X135145304Y-56550664D01*
X135145304Y-56312569D01*
X135097685Y-56217331D01*
X135050066Y-56169712D01*
X134954828Y-56122093D01*
X134764352Y-56122093D01*
X134669114Y-56169712D01*
X134621495Y-56217331D01*
X134573876Y-56312569D01*
%TO.C,R17*%
X121693702Y-81150900D02*
X121360369Y-80674710D01*
X121122274Y-81150900D02*
X121122274Y-80150900D01*
X121503226Y-80150900D01*
X121598464Y-80198520D01*
X121646083Y-80246139D01*
X121693702Y-80341377D01*
X121693702Y-80484234D01*
X121646083Y-80579472D01*
X121598464Y-80627091D01*
X121503226Y-80674710D01*
X121122274Y-80674710D01*
X122646083Y-81150900D02*
X122074655Y-81150900D01*
X122360369Y-81150900D02*
X122360369Y-80150900D01*
X122265131Y-80293758D01*
X122169893Y-80388996D01*
X122074655Y-80436615D01*
X122979417Y-80150900D02*
X123646083Y-80150900D01*
X123217512Y-81150900D01*
%TO.C,R18*%
X134734062Y-76339780D02*
X134400729Y-75863590D01*
X134162634Y-76339780D02*
X134162634Y-75339780D01*
X134543586Y-75339780D01*
X134638824Y-75387400D01*
X134686443Y-75435019D01*
X134734062Y-75530257D01*
X134734062Y-75673114D01*
X134686443Y-75768352D01*
X134638824Y-75815971D01*
X134543586Y-75863590D01*
X134162634Y-75863590D01*
X135686443Y-76339780D02*
X135115015Y-76339780D01*
X135400729Y-76339780D02*
X135400729Y-75339780D01*
X135305491Y-75482638D01*
X135210253Y-75577876D01*
X135115015Y-75625495D01*
X136257872Y-75768352D02*
X136162634Y-75720733D01*
X136115015Y-75673114D01*
X136067396Y-75577876D01*
X136067396Y-75530257D01*
X136115015Y-75435019D01*
X136162634Y-75387400D01*
X136257872Y-75339780D01*
X136448348Y-75339780D01*
X136543586Y-75387400D01*
X136591205Y-75435019D01*
X136638824Y-75530257D01*
X136638824Y-75577876D01*
X136591205Y-75673114D01*
X136543586Y-75720733D01*
X136448348Y-75768352D01*
X136257872Y-75768352D01*
X136162634Y-75815971D01*
X136115015Y-75863590D01*
X136067396Y-75958828D01*
X136067396Y-76149304D01*
X136115015Y-76244542D01*
X136162634Y-76292161D01*
X136257872Y-76339780D01*
X136448348Y-76339780D01*
X136543586Y-76292161D01*
X136591205Y-76244542D01*
X136638824Y-76149304D01*
X136638824Y-75958828D01*
X136591205Y-75863590D01*
X136543586Y-75815971D01*
X136448348Y-75768352D01*
%TO.C,U2*%
X136144295Y-118833300D02*
X136144295Y-119642824D01*
X136191914Y-119738062D01*
X136239533Y-119785681D01*
X136334771Y-119833300D01*
X136525247Y-119833300D01*
X136620485Y-119785681D01*
X136668104Y-119738062D01*
X136715723Y-119642824D01*
X136715723Y-118833300D01*
X137144295Y-118928539D02*
X137191914Y-118880920D01*
X137287152Y-118833300D01*
X137525247Y-118833300D01*
X137620485Y-118880920D01*
X137668104Y-118928539D01*
X137715723Y-119023777D01*
X137715723Y-119119015D01*
X137668104Y-119261872D01*
X137096676Y-119833300D01*
X137715723Y-119833300D01*
%TO.C,M3*%
X55070476Y-125766980D02*
X55070476Y-124766980D01*
X55403809Y-125481266D01*
X55737142Y-124766980D01*
X55737142Y-125766980D01*
X56118095Y-124766980D02*
X56737142Y-124766980D01*
X56403809Y-125147933D01*
X56546666Y-125147933D01*
X56641904Y-125195552D01*
X56689523Y-125243171D01*
X56737142Y-125338409D01*
X56737142Y-125576504D01*
X56689523Y-125671742D01*
X56641904Y-125719361D01*
X56546666Y-125766980D01*
X56260952Y-125766980D01*
X56165714Y-125719361D01*
X56118095Y-125671742D01*
X55070476Y-138466980D02*
X55070476Y-137466980D01*
X55403809Y-138181266D01*
X55737142Y-137466980D01*
X55737142Y-138466980D01*
X56118095Y-137466980D02*
X56737142Y-137466980D01*
X56403809Y-137847933D01*
X56546666Y-137847933D01*
X56641904Y-137895552D01*
X56689523Y-137943171D01*
X56737142Y-138038409D01*
X56737142Y-138276504D01*
X56689523Y-138371742D01*
X56641904Y-138419361D01*
X56546666Y-138466980D01*
X56260952Y-138466980D01*
X56165714Y-138419361D01*
X56118095Y-138371742D01*
X55070476Y-62266980D02*
X55070476Y-61266980D01*
X55403809Y-61981266D01*
X55737142Y-61266980D01*
X55737142Y-62266980D01*
X56118095Y-61266980D02*
X56737142Y-61266980D01*
X56403809Y-61647933D01*
X56546666Y-61647933D01*
X56641904Y-61695552D01*
X56689523Y-61743171D01*
X56737142Y-61838409D01*
X56737142Y-62076504D01*
X56689523Y-62171742D01*
X56641904Y-62219361D01*
X56546666Y-62266980D01*
X56260952Y-62266980D01*
X56165714Y-62219361D01*
X56118095Y-62171742D01*
%TO.C,F1*%
X158459066Y-135339571D02*
X158125733Y-135339571D01*
X158125733Y-135863380D02*
X158125733Y-134863380D01*
X158601923Y-134863380D01*
X159506685Y-135863380D02*
X158935257Y-135863380D01*
X159220971Y-135863380D02*
X159220971Y-134863380D01*
X159125733Y-135006238D01*
X159030495Y-135101476D01*
X158935257Y-135149095D01*
%TO.C,F2*%
X158687666Y-145423371D02*
X158354333Y-145423371D01*
X158354333Y-145947180D02*
X158354333Y-144947180D01*
X158830523Y-144947180D01*
X159163857Y-145042419D02*
X159211476Y-144994800D01*
X159306714Y-144947180D01*
X159544809Y-144947180D01*
X159640047Y-144994800D01*
X159687666Y-145042419D01*
X159735285Y-145137657D01*
X159735285Y-145232895D01*
X159687666Y-145375752D01*
X159116238Y-145947180D01*
X159735285Y-145947180D01*
D11*
%TO.C,C2*%
X112377840Y-58386080D02*
X112377840Y-58071080D01*
X107137840Y-58386080D02*
X107137840Y-58071080D01*
X112377840Y-60811080D02*
X107137840Y-60811080D01*
X107137840Y-60811080D02*
X107137840Y-60496080D01*
X112377840Y-60811080D02*
X112377840Y-60496080D01*
X112377840Y-58071080D02*
X107137840Y-58071080D01*
%TO.C,D1*%
X85147460Y-90911680D02*
X85147460Y-93511680D01*
X82487460Y-90911680D02*
X85147460Y-90911680D01*
X82487460Y-89641680D02*
X82487460Y-88311680D01*
X82487460Y-90911680D02*
X82487460Y-93511680D01*
X82487460Y-88311680D02*
X83817460Y-88311680D01*
X82487460Y-93511680D02*
X85147460Y-93511680D01*
%TO.C,D2*%
X66938200Y-75727560D02*
X66938200Y-78327560D01*
X64278200Y-78327560D02*
X66938200Y-78327560D01*
X64278200Y-73127560D02*
X65608200Y-73127560D01*
X64278200Y-74457560D02*
X64278200Y-73127560D01*
X64278200Y-75727560D02*
X66938200Y-75727560D01*
X64278200Y-75727560D02*
X64278200Y-78327560D01*
%TO.C,D3*%
X64732860Y-100870060D02*
X67392860Y-100870060D01*
X67392860Y-98270060D02*
X67392860Y-100870060D01*
X64732860Y-95670060D02*
X66062860Y-95670060D01*
X64732860Y-97000060D02*
X64732860Y-95670060D01*
X64732860Y-98270060D02*
X64732860Y-100870060D01*
X64732860Y-98270060D02*
X67392860Y-98270060D01*
%TO.C,D4*%
X83053880Y-132938520D02*
X85713880Y-132938520D01*
X83053880Y-131668520D02*
X83053880Y-130338520D01*
X83053880Y-132938520D02*
X83053880Y-135538520D01*
X83053880Y-130338520D02*
X84383880Y-130338520D01*
X83053880Y-135538520D02*
X85713880Y-135538520D01*
X85713880Y-132938520D02*
X85713880Y-135538520D01*
%TO.C,D6*%
X83173260Y-67708780D02*
X85833260Y-67708780D01*
X83173260Y-66438780D02*
X83173260Y-65108780D01*
X83173260Y-67708780D02*
X83173260Y-70308780D01*
X83173260Y-70308780D02*
X85833260Y-70308780D01*
X83173260Y-65108780D02*
X84503260Y-65108780D01*
X85833260Y-67708780D02*
X85833260Y-70308780D01*
%TO.C,D7*%
X82556040Y-109441940D02*
X83886040Y-109441940D01*
X85216040Y-112041940D02*
X85216040Y-114641940D01*
X82556040Y-114641940D02*
X85216040Y-114641940D01*
X82556040Y-110771940D02*
X82556040Y-109441940D01*
X82556040Y-112041940D02*
X82556040Y-114641940D01*
X82556040Y-112041940D02*
X85216040Y-112041940D01*
%TO.C,D8*%
X64049600Y-116625060D02*
X65379600Y-116625060D01*
X64049600Y-117955060D02*
X64049600Y-116625060D01*
X64049600Y-119225060D02*
X66709600Y-119225060D01*
X66709600Y-119225060D02*
X66709600Y-121825060D01*
X64049600Y-119225060D02*
X64049600Y-121825060D01*
X64049600Y-121825060D02*
X66709600Y-121825060D01*
%TO.C,D9*%
X90814260Y-100693080D02*
X90814260Y-98453080D01*
X91464260Y-99573080D02*
X90814260Y-99573080D01*
X87414260Y-98453080D02*
X87414260Y-100693080D01*
X86574260Y-100693080D02*
X90814260Y-100693080D01*
X90814260Y-98453080D02*
X86574260Y-98453080D01*
X85924260Y-99573080D02*
X86574260Y-99573080D01*
X87174260Y-98453080D02*
X87174260Y-100693080D01*
X87294260Y-98453080D02*
X87294260Y-100693080D01*
X86574260Y-98453080D02*
X86574260Y-100693080D01*
%TO.C,D10*%
X61916680Y-86845000D02*
X61916680Y-84605000D01*
X61916680Y-84605000D02*
X57676680Y-84605000D01*
X58516680Y-84605000D02*
X58516680Y-86845000D01*
X58276680Y-84605000D02*
X58276680Y-86845000D01*
X57676680Y-84605000D02*
X57676680Y-86845000D01*
X57676680Y-86845000D02*
X61916680Y-86845000D01*
X58396680Y-84605000D02*
X58396680Y-86845000D01*
X62566680Y-85725000D02*
X61916680Y-85725000D01*
X57026680Y-85725000D02*
X57676680Y-85725000D01*
%TO.C,D11*%
X57834160Y-108363880D02*
X62074160Y-108363880D01*
X62724160Y-107243880D02*
X62074160Y-107243880D01*
X58554160Y-106123880D02*
X58554160Y-108363880D01*
X58434160Y-106123880D02*
X58434160Y-108363880D01*
X62074160Y-108363880D02*
X62074160Y-106123880D01*
X62074160Y-106123880D02*
X57834160Y-106123880D01*
X58674160Y-106123880D02*
X58674160Y-108363880D01*
X57834160Y-106123880D02*
X57834160Y-108363880D01*
X57184160Y-107243880D02*
X57834160Y-107243880D01*
%TO.C,D12*%
X90764520Y-137045840D02*
X90764520Y-139285840D01*
X89924520Y-139285840D02*
X94164520Y-139285840D01*
X94164520Y-139285840D02*
X94164520Y-137045840D01*
X90524520Y-137045840D02*
X90524520Y-139285840D01*
X94814520Y-138165840D02*
X94164520Y-138165840D01*
X89924520Y-137045840D02*
X89924520Y-139285840D01*
X94164520Y-137045840D02*
X89924520Y-137045840D01*
X89274520Y-138165840D02*
X89924520Y-138165840D01*
X90644520Y-137045840D02*
X90644520Y-139285840D01*
%TO.C,D14*%
X92696160Y-77919580D02*
X92046160Y-77919580D01*
X88526160Y-76799580D02*
X88526160Y-79039580D01*
X92046160Y-79039580D02*
X92046160Y-76799580D01*
X87806160Y-79039580D02*
X92046160Y-79039580D01*
X87806160Y-76799580D02*
X87806160Y-79039580D01*
X88646160Y-76799580D02*
X88646160Y-79039580D01*
X88406160Y-76799580D02*
X88406160Y-79039580D01*
X92046160Y-76799580D02*
X87806160Y-76799580D01*
X87156160Y-77919580D02*
X87806160Y-77919580D01*
%TO.C,D15*%
X92421840Y-121071640D02*
X91771840Y-121071640D01*
X87531840Y-122191640D02*
X91771840Y-122191640D01*
X87531840Y-119951640D02*
X87531840Y-122191640D01*
X88251840Y-119951640D02*
X88251840Y-122191640D01*
X88131840Y-119951640D02*
X88131840Y-122191640D01*
X88371840Y-119951640D02*
X88371840Y-122191640D01*
X91771840Y-122191640D02*
X91771840Y-119951640D01*
X91771840Y-119951640D02*
X87531840Y-119951640D01*
X86881840Y-121071640D02*
X87531840Y-121071640D01*
%TO.C,D16*%
X65610280Y-127210960D02*
X65610280Y-129450960D01*
X65490280Y-127210960D02*
X65490280Y-129450960D01*
X64890280Y-127210960D02*
X64890280Y-129450960D01*
X64890280Y-129450960D02*
X69130280Y-129450960D01*
X69130280Y-129450960D02*
X69130280Y-127210960D01*
X69780280Y-128330960D02*
X69130280Y-128330960D01*
X65730280Y-127210960D02*
X65730280Y-129450960D01*
X69130280Y-127210960D02*
X64890280Y-127210960D01*
X64240280Y-128330960D02*
X64890280Y-128330960D01*
%TO.C,D17*%
X92418060Y-88077180D02*
X92418060Y-90317180D01*
X90928060Y-89197180D02*
X91578060Y-89197180D01*
X91578060Y-90317180D02*
X95818060Y-90317180D01*
X95818060Y-88077180D02*
X91578060Y-88077180D01*
X92178060Y-88077180D02*
X92178060Y-90317180D01*
X96468060Y-89197180D02*
X95818060Y-89197180D01*
X91578060Y-88077180D02*
X91578060Y-90317180D01*
X95818060Y-90317180D02*
X95818060Y-88077180D01*
X92298060Y-88077180D02*
X92298060Y-90317180D01*
%TO.C,D18*%
X72302000Y-71671320D02*
X72302000Y-73911320D01*
X76542000Y-71671320D02*
X72302000Y-71671320D01*
X73022000Y-71671320D02*
X73022000Y-73911320D01*
X73142000Y-71671320D02*
X73142000Y-73911320D01*
X72302000Y-73911320D02*
X76542000Y-73911320D01*
X77192000Y-72791320D02*
X76542000Y-72791320D01*
X72902000Y-71671320D02*
X72902000Y-73911320D01*
X76542000Y-73911320D02*
X76542000Y-71671320D01*
X71652000Y-72791320D02*
X72302000Y-72791320D01*
%TO.C,D19*%
X77588480Y-96644320D02*
X77588480Y-94404320D01*
X78238480Y-95524320D02*
X77588480Y-95524320D01*
X72698480Y-95524320D02*
X73348480Y-95524320D01*
X73348480Y-94404320D02*
X73348480Y-96644320D01*
X73348480Y-96644320D02*
X77588480Y-96644320D01*
X74068480Y-94404320D02*
X74068480Y-96644320D01*
X74188480Y-94404320D02*
X74188480Y-96644320D01*
X77588480Y-94404320D02*
X73348480Y-94404320D01*
X73948480Y-94404320D02*
X73948480Y-96644320D01*
%TO.C,D20*%
X92815040Y-128094600D02*
X97055040Y-128094600D01*
X93655040Y-125854600D02*
X93655040Y-128094600D01*
X97055040Y-128094600D02*
X97055040Y-125854600D01*
X93415040Y-125854600D02*
X93415040Y-128094600D01*
X93535040Y-125854600D02*
X93535040Y-128094600D01*
X92165040Y-126974600D02*
X92815040Y-126974600D01*
X92815040Y-125854600D02*
X92815040Y-128094600D01*
X97705040Y-126974600D02*
X97055040Y-126974600D01*
X97055040Y-125854600D02*
X92815040Y-125854600D01*
%TO.C,D22*%
X96694360Y-66258580D02*
X92454360Y-66258580D01*
X93054360Y-66258580D02*
X93054360Y-68498580D01*
X93174360Y-66258580D02*
X93174360Y-68498580D01*
X92454360Y-66258580D02*
X92454360Y-68498580D01*
X97344360Y-67378580D02*
X96694360Y-67378580D01*
X93294360Y-66258580D02*
X93294360Y-68498580D01*
X96694360Y-68498580D02*
X96694360Y-66258580D01*
X92454360Y-68498580D02*
X96694360Y-68498580D01*
X91804360Y-67378580D02*
X92454360Y-67378580D01*
%TO.C,D23*%
X92053040Y-109397940D02*
X92053040Y-111637940D01*
X96293040Y-109397940D02*
X92053040Y-109397940D01*
X92653040Y-109397940D02*
X92653040Y-111637940D01*
X96943040Y-110517940D02*
X96293040Y-110517940D01*
X96293040Y-111637940D02*
X96293040Y-109397940D01*
X92773040Y-109397940D02*
X92773040Y-111637940D01*
X91403040Y-110517940D02*
X92053040Y-110517940D01*
X92053040Y-111637940D02*
X96293040Y-111637940D01*
X92893040Y-109397940D02*
X92893040Y-111637940D01*
%TO.C,D24*%
X77817080Y-115532040D02*
X73577080Y-115532040D01*
X74177080Y-115532040D02*
X74177080Y-117772040D01*
X77817080Y-117772040D02*
X77817080Y-115532040D01*
X73577080Y-117772040D02*
X77817080Y-117772040D01*
X72927080Y-116652040D02*
X73577080Y-116652040D01*
X78467080Y-116652040D02*
X77817080Y-116652040D01*
X73577080Y-115532040D02*
X73577080Y-117772040D01*
X74417080Y-115532040D02*
X74417080Y-117772040D01*
X74297080Y-115532040D02*
X74297080Y-117772040D01*
%TO.C,D27*%
X106897040Y-82169000D02*
X107547040Y-82169000D01*
X107547040Y-83289000D02*
X111787040Y-83289000D01*
X112437040Y-82169000D02*
X111787040Y-82169000D01*
X108147040Y-81049000D02*
X108147040Y-83289000D01*
X107547040Y-81049000D02*
X107547040Y-83289000D01*
X108387040Y-81049000D02*
X108387040Y-83289000D01*
X111787040Y-83289000D02*
X111787040Y-81049000D01*
X111787040Y-81049000D02*
X107547040Y-81049000D01*
X108267040Y-81049000D02*
X108267040Y-83289000D01*
%TO.C,J1*%
X96386960Y-97448680D02*
X96386960Y-94788680D01*
X89976960Y-97448680D02*
X88646960Y-97448680D01*
X88646960Y-97448680D02*
X88646960Y-96118680D01*
X91246960Y-94788680D02*
X96386960Y-94788680D01*
X91246960Y-97448680D02*
X96386960Y-97448680D01*
X91246960Y-97448680D02*
X91246960Y-94788680D01*
%TO.C,J2*%
X71488300Y-82899560D02*
X70158300Y-82899560D01*
X70158300Y-82899560D02*
X70158300Y-81569560D01*
X72758300Y-80239560D02*
X77898300Y-80239560D01*
X77898300Y-82899560D02*
X77898300Y-80239560D01*
X72758300Y-82899560D02*
X77898300Y-82899560D01*
X72758300Y-82899560D02*
X72758300Y-80239560D01*
%TO.C,J3*%
X73695560Y-104883260D02*
X78835560Y-104883260D01*
X73695560Y-102223260D02*
X78835560Y-102223260D01*
X73695560Y-104883260D02*
X73695560Y-102223260D01*
X71095560Y-104883260D02*
X71095560Y-103553260D01*
X78835560Y-104883260D02*
X78835560Y-102223260D01*
X72425560Y-104883260D02*
X71095560Y-104883260D01*
%TO.C,J4*%
X93629480Y-136300520D02*
X93629480Y-133640520D01*
X98769480Y-136300520D02*
X98769480Y-133640520D01*
X93629480Y-133640520D02*
X98769480Y-133640520D01*
X93629480Y-136300520D02*
X98769480Y-136300520D01*
X92359480Y-136300520D02*
X91029480Y-136300520D01*
X91029480Y-136300520D02*
X91029480Y-134970520D01*
%TO.C,J6*%
X92224860Y-72868480D02*
X97364860Y-72868480D01*
X92224860Y-75528480D02*
X92224860Y-72868480D01*
X92224860Y-75528480D02*
X97364860Y-75528480D01*
X97364860Y-75528480D02*
X97364860Y-72868480D01*
X89624860Y-75528480D02*
X89624860Y-74198480D01*
X90954860Y-75528480D02*
X89624860Y-75528480D01*
%TO.C,J7*%
X96747640Y-118756740D02*
X96747640Y-116096740D01*
X91607640Y-118756740D02*
X91607640Y-116096740D01*
X91607640Y-118756740D02*
X96747640Y-118756740D01*
X90337640Y-118756740D02*
X89007640Y-118756740D01*
X91607640Y-116096740D02*
X96747640Y-116096740D01*
X89007640Y-118756740D02*
X89007640Y-117426740D01*
%TO.C,J8*%
X70412300Y-125660460D02*
X70412300Y-124330460D01*
X73012300Y-125660460D02*
X78152300Y-125660460D01*
X73012300Y-123000460D02*
X78152300Y-123000460D01*
X73012300Y-125660460D02*
X73012300Y-123000460D01*
X78152300Y-125660460D02*
X78152300Y-123000460D01*
X71742300Y-125660460D02*
X70412300Y-125660460D01*
%TO.C,J9*%
X76759760Y-88524080D02*
X79419760Y-88524080D01*
X76759760Y-88524080D02*
X76759760Y-93664080D01*
X76759760Y-93664080D02*
X79419760Y-93664080D01*
X79419760Y-88524080D02*
X79419760Y-93664080D01*
X76759760Y-87254080D02*
X76759760Y-85924080D01*
X76759760Y-85924080D02*
X78089760Y-85924080D01*
%TO.C,J10*%
X58629240Y-78520600D02*
X61289240Y-78520600D01*
X58629240Y-73380600D02*
X58629240Y-78520600D01*
X61289240Y-73380600D02*
X61289240Y-78520600D01*
X58629240Y-73380600D02*
X61289240Y-73380600D01*
X58629240Y-72110600D02*
X58629240Y-70780600D01*
X58629240Y-70780600D02*
X59959240Y-70780600D01*
%TO.C,J11*%
X61639760Y-96103440D02*
X61639760Y-101243440D01*
X58979760Y-96103440D02*
X61639760Y-96103440D01*
X58979760Y-93503440D02*
X60309760Y-93503440D01*
X58979760Y-101243440D02*
X61639760Y-101243440D01*
X58979760Y-94833440D02*
X58979760Y-93503440D01*
X58979760Y-96103440D02*
X58979760Y-101243440D01*
%TO.C,J12*%
X76990900Y-135772200D02*
X79650900Y-135772200D01*
X76990900Y-130632200D02*
X76990900Y-135772200D01*
X76990900Y-130632200D02*
X79650900Y-130632200D01*
X76990900Y-129362200D02*
X76990900Y-128032200D01*
X79650900Y-130632200D02*
X79650900Y-135772200D01*
X76990900Y-128032200D02*
X78320900Y-128032200D01*
%TO.C,J14*%
X77318560Y-62683080D02*
X78648560Y-62683080D01*
X77318560Y-70423080D02*
X79978560Y-70423080D01*
X77318560Y-64013080D02*
X77318560Y-62683080D01*
X79978560Y-65283080D02*
X79978560Y-70423080D01*
X77318560Y-65283080D02*
X79978560Y-65283080D01*
X77318560Y-65283080D02*
X77318560Y-70423080D01*
%TO.C,J15*%
X77227120Y-106696200D02*
X78557120Y-106696200D01*
X77227120Y-108026200D02*
X77227120Y-106696200D01*
X77227120Y-109296200D02*
X79887120Y-109296200D01*
X77227120Y-114436200D02*
X79887120Y-114436200D01*
X77227120Y-109296200D02*
X77227120Y-114436200D01*
X79887120Y-109296200D02*
X79887120Y-114436200D01*
%TO.C,J16*%
X59152480Y-114280640D02*
X60482480Y-114280640D01*
X59152480Y-116880640D02*
X59152480Y-122020640D01*
X59152480Y-116880640D02*
X61812480Y-116880640D01*
X59152480Y-115610640D02*
X59152480Y-114280640D01*
X61812480Y-116880640D02*
X61812480Y-122020640D01*
X59152480Y-122020640D02*
X61812480Y-122020640D01*
%TO.C,J20*%
X171271240Y-123536400D02*
X166071240Y-123536400D01*
X171271240Y-141376400D02*
X168671240Y-141376400D01*
X168671240Y-143976400D02*
X166071240Y-143976400D01*
X168671240Y-141376400D02*
X168671240Y-143976400D01*
X171271240Y-141376400D02*
X171271240Y-123536400D01*
X171271240Y-142646400D02*
X171271240Y-143976400D01*
X166071240Y-143976400D02*
X166071240Y-123536400D01*
X171271240Y-143976400D02*
X169941240Y-143976400D01*
%TO.C,R5*%
X96582360Y-92384880D02*
X95812360Y-92384880D01*
X89272360Y-93754880D02*
X95812360Y-93754880D01*
X95812360Y-93754880D02*
X95812360Y-91014880D01*
X88502360Y-92384880D02*
X89272360Y-92384880D01*
X95812360Y-91014880D02*
X89272360Y-91014880D01*
X89272360Y-91014880D02*
X89272360Y-93754880D01*
%TO.C,R6*%
X77501500Y-79205760D02*
X77501500Y-76465760D01*
X70961500Y-79205760D02*
X77501500Y-79205760D01*
X70191500Y-77835760D02*
X70961500Y-77835760D01*
X70961500Y-76465760D02*
X70961500Y-79205760D01*
X78271500Y-77835760D02*
X77501500Y-77835760D01*
X77501500Y-76465760D02*
X70961500Y-76465760D01*
%TO.C,R7*%
X71530460Y-101278360D02*
X78070460Y-101278360D01*
X78070460Y-101278360D02*
X78070460Y-98538360D01*
X71530460Y-98538360D02*
X71530460Y-101278360D01*
X78070460Y-98538360D02*
X71530460Y-98538360D01*
X78840460Y-99908360D02*
X78070460Y-99908360D01*
X70760460Y-99908360D02*
X71530460Y-99908360D01*
%TO.C,R8*%
X97720280Y-131292600D02*
X96950280Y-131292600D01*
X90410280Y-132662600D02*
X96950280Y-132662600D01*
X90410280Y-129922600D02*
X90410280Y-132662600D01*
X89640280Y-131292600D02*
X90410280Y-131292600D01*
X96950280Y-132662600D02*
X96950280Y-129922600D01*
X96950280Y-129922600D02*
X90410280Y-129922600D01*
%TO.C,R10*%
X96688660Y-72012480D02*
X96688660Y-69272480D01*
X97458660Y-70642480D02*
X96688660Y-70642480D01*
X96688660Y-69272480D02*
X90148660Y-69272480D01*
X89378660Y-70642480D02*
X90148660Y-70642480D01*
X90148660Y-72012480D02*
X96688660Y-72012480D01*
X90148660Y-69272480D02*
X90148660Y-72012480D01*
%TO.C,R11*%
X96160340Y-115240740D02*
X96160340Y-112500740D01*
X96930340Y-113870740D02*
X96160340Y-113870740D01*
X96160340Y-112500740D02*
X89620340Y-112500740D01*
X89620340Y-112500740D02*
X89620340Y-115240740D01*
X88850340Y-113870740D02*
X89620340Y-113870740D01*
X89620340Y-115240740D02*
X96160340Y-115240740D01*
%TO.C,R12*%
X70166100Y-120495060D02*
X70936100Y-120495060D01*
X77476100Y-121865060D02*
X77476100Y-119125060D01*
X77476100Y-119125060D02*
X70936100Y-119125060D01*
X70936100Y-119125060D02*
X70936100Y-121865060D01*
X70936100Y-121865060D02*
X77476100Y-121865060D01*
X78246100Y-120495060D02*
X77476100Y-120495060D01*
%TO.C,U1*%
X112074520Y-61801700D02*
X110824520Y-61801700D01*
X112074520Y-79701700D02*
X112074520Y-61801700D01*
X107574520Y-79701700D02*
X112074520Y-79701700D01*
X108824520Y-61801700D02*
X107574520Y-61801700D01*
X107574520Y-61801700D02*
X107574520Y-79701700D01*
X108824520Y-61801700D02*
G75*
G03*
X110824520Y-61801700I1000000J0D01*
G01*
%TO.C,U3*%
X106121960Y-89378480D02*
X104871960Y-89378480D01*
X104871960Y-89378480D02*
X104871960Y-109818480D01*
X109371960Y-109818480D02*
X109371960Y-89378480D01*
X109371960Y-89378480D02*
X108121960Y-89378480D01*
X104871960Y-109818480D02*
X109371960Y-109818480D01*
X106121960Y-89378480D02*
G75*
G03*
X108121960Y-89378480I1000000J0D01*
G01*
%TO.C,C7*%
X104576260Y-85160180D02*
X104576260Y-85475180D01*
X109816260Y-85160180D02*
X109816260Y-85475180D01*
X104576260Y-87900180D02*
X109816260Y-87900180D01*
X104576260Y-87585180D02*
X104576260Y-87900180D01*
X109816260Y-87585180D02*
X109816260Y-87900180D01*
X104576260Y-85160180D02*
X109816260Y-85160180D01*
%TO.C,C1*%
X167343440Y-80983760D02*
X167343440Y-80668760D01*
X167343440Y-78243760D02*
X162103440Y-78243760D01*
X162103440Y-80983760D02*
X162103440Y-80668760D01*
X162103440Y-78558760D02*
X162103440Y-78243760D01*
X167343440Y-78558760D02*
X167343440Y-78243760D01*
X167343440Y-80983760D02*
X162103440Y-80983760D01*
%TO.C,D29*%
X116804600Y-92194520D02*
X116804600Y-94434520D01*
X116564600Y-92194520D02*
X116564600Y-94434520D01*
X120854600Y-93314520D02*
X120204600Y-93314520D01*
X116684600Y-92194520D02*
X116684600Y-94434520D01*
X115964600Y-94434520D02*
X120204600Y-94434520D01*
X120204600Y-94434520D02*
X120204600Y-92194520D01*
X115314600Y-93314520D02*
X115964600Y-93314520D01*
X120204600Y-92194520D02*
X115964600Y-92194520D01*
X115964600Y-92194520D02*
X115964600Y-94434520D01*
%TO.C,D30*%
X142855640Y-84146080D02*
X144185640Y-84146080D01*
X142855640Y-85476080D02*
X142855640Y-84146080D01*
X142855640Y-86746080D02*
X145515640Y-86746080D01*
X145515640Y-86746080D02*
X145515640Y-89346080D01*
X142855640Y-86746080D02*
X142855640Y-89346080D01*
X142855640Y-89346080D02*
X145515640Y-89346080D01*
%TO.C,J17*%
X153369320Y-121207840D02*
X152039320Y-121207840D01*
X153369320Y-118607840D02*
X153369320Y-116007840D01*
X153369320Y-118607840D02*
X150709320Y-118607840D01*
X153369320Y-116007840D02*
X150709320Y-116007840D01*
X153369320Y-119877840D02*
X153369320Y-121207840D01*
X150709320Y-118607840D02*
X150709320Y-116007840D01*
%TO.C,R14*%
X139332640Y-85350600D02*
X136592640Y-85350600D01*
X137962640Y-84580600D02*
X137962640Y-85350600D01*
X136592640Y-91890600D02*
X139332640Y-91890600D01*
X136592640Y-85350600D02*
X136592640Y-91890600D01*
X137962640Y-92660600D02*
X137962640Y-91890600D01*
X139332640Y-91890600D02*
X139332640Y-85350600D01*
%TO.C,R15*%
X149924440Y-124859800D02*
X149924440Y-118319800D01*
X147184440Y-118319800D02*
X147184440Y-124859800D01*
X149924440Y-118319800D02*
X147184440Y-118319800D01*
X148554440Y-125629800D02*
X148554440Y-124859800D01*
X147184440Y-124859800D02*
X149924440Y-124859800D01*
X148554440Y-117549800D02*
X148554440Y-118319800D01*
%TO.C,R19*%
X133099560Y-91893720D02*
X126559560Y-91893720D01*
X133869560Y-93263720D02*
X133099560Y-93263720D01*
X133099560Y-94633720D02*
X133099560Y-91893720D01*
X126559560Y-91893720D02*
X126559560Y-94633720D01*
X125789560Y-93263720D02*
X126559560Y-93263720D01*
X126559560Y-94633720D02*
X133099560Y-94633720D01*
%TO.C,R20*%
X156826080Y-83367880D02*
X156056080Y-83367880D01*
X156056080Y-84737880D02*
X156056080Y-81997880D01*
X156056080Y-81997880D02*
X149516080Y-81997880D01*
X149516080Y-81997880D02*
X149516080Y-84737880D01*
X148746080Y-83367880D02*
X149516080Y-83367880D01*
X149516080Y-84737880D02*
X156056080Y-84737880D01*
%TO.C,R21*%
X123719720Y-126806960D02*
X122949720Y-126806960D01*
X116409720Y-128176960D02*
X122949720Y-128176960D01*
X122949720Y-125436960D02*
X116409720Y-125436960D01*
X122949720Y-128176960D02*
X122949720Y-125436960D01*
X115639720Y-126806960D02*
X116409720Y-126806960D01*
X116409720Y-125436960D02*
X116409720Y-128176960D01*
%TO.C,R22*%
X148931960Y-140714480D02*
X151671960Y-140714480D01*
X150301960Y-141484480D02*
X150301960Y-140714480D01*
X151671960Y-140714480D02*
X151671960Y-134174480D01*
X151671960Y-134174480D02*
X148931960Y-134174480D01*
X148931960Y-134174480D02*
X148931960Y-140714480D01*
X150301960Y-133404480D02*
X150301960Y-134174480D01*
%TO.C,R23*%
X156056080Y-89726440D02*
X156056080Y-86986440D01*
X156056080Y-86986440D02*
X149516080Y-86986440D01*
X149516080Y-86986440D02*
X149516080Y-89726440D01*
X148746080Y-88356440D02*
X149516080Y-88356440D01*
X149516080Y-89726440D02*
X156056080Y-89726440D01*
X156826080Y-88356440D02*
X156056080Y-88356440D01*
%TO.C,R24*%
X119173240Y-66829000D02*
X119173240Y-69569000D01*
X118403240Y-68199000D02*
X119173240Y-68199000D01*
X126483240Y-68199000D02*
X125713240Y-68199000D01*
X125713240Y-69569000D02*
X125713240Y-66829000D01*
X119173240Y-69569000D02*
X125713240Y-69569000D01*
X125713240Y-66829000D02*
X119173240Y-66829000D01*
%TO.C,U4*%
X167202680Y-92399160D02*
X167202680Y-82119160D01*
X163952680Y-82119160D02*
X162702680Y-82119160D01*
X162702680Y-82119160D02*
X162702680Y-92399160D01*
X162702680Y-92399160D02*
X167202680Y-92399160D01*
X167202680Y-82119160D02*
X165952680Y-82119160D01*
X163952680Y-82119160D02*
G75*
G03*
X165952680Y-82119160I1000000J0D01*
G01*
%TO.C,C3*%
X134469520Y-119114240D02*
X139709520Y-119114240D01*
X134469520Y-116374240D02*
X139709520Y-116374240D01*
X139709520Y-116374240D02*
X139709520Y-116689240D01*
X134469520Y-116374240D02*
X134469520Y-116689240D01*
X134469520Y-118799240D02*
X134469520Y-119114240D01*
X139709520Y-118799240D02*
X139709520Y-119114240D01*
%TO.C,C4*%
X115236320Y-86993080D02*
X115551320Y-86993080D01*
X117976320Y-86993080D02*
X117976320Y-81753080D01*
X117661320Y-86993080D02*
X117976320Y-86993080D01*
X115236320Y-81753080D02*
X115551320Y-81753080D01*
X115236320Y-86993080D02*
X115236320Y-81753080D01*
X117661320Y-81753080D02*
X117976320Y-81753080D01*
%TO.C,D5*%
X129417120Y-104317800D02*
X129417120Y-106917800D01*
X126757120Y-101717800D02*
X128087120Y-101717800D01*
X126757120Y-103047800D02*
X126757120Y-101717800D01*
X126757120Y-106917800D02*
X129417120Y-106917800D01*
X126757120Y-104317800D02*
X129417120Y-104317800D01*
X126757120Y-104317800D02*
X126757120Y-106917800D01*
%TO.C,D13*%
X119566320Y-112148760D02*
X119566320Y-114388760D01*
X123806320Y-112148760D02*
X119566320Y-112148760D01*
X123206320Y-114388760D02*
X123206320Y-112148760D01*
X123806320Y-114388760D02*
X123806320Y-112148760D01*
X119566320Y-114388760D02*
X123806320Y-114388760D01*
X123086320Y-114388760D02*
X123086320Y-112148760D01*
X122966320Y-114388760D02*
X122966320Y-112148760D01*
X118916320Y-113268760D02*
X119566320Y-113268760D01*
X124456320Y-113268760D02*
X123806320Y-113268760D01*
%TO.C,D21*%
X119787480Y-103776640D02*
X119787480Y-101536640D01*
X116147480Y-101536640D02*
X116147480Y-103776640D01*
X120387480Y-103776640D02*
X120387480Y-101536640D01*
X120387480Y-101536640D02*
X116147480Y-101536640D01*
X115497480Y-102656640D02*
X116147480Y-102656640D01*
X119547480Y-103776640D02*
X119547480Y-101536640D01*
X121037480Y-102656640D02*
X120387480Y-102656640D01*
X116147480Y-103776640D02*
X120387480Y-103776640D01*
X119667480Y-103776640D02*
X119667480Y-101536640D01*
%TO.C,D25*%
X137069520Y-64262000D02*
X139729520Y-64262000D01*
X137069520Y-61662000D02*
X138399520Y-61662000D01*
X137069520Y-64262000D02*
X137069520Y-66862000D01*
X137069520Y-62992000D02*
X137069520Y-61662000D01*
X139729520Y-64262000D02*
X139729520Y-66862000D01*
X137069520Y-66862000D02*
X139729520Y-66862000D01*
%TO.C,D26*%
X116784280Y-88785840D02*
X116784280Y-91025840D01*
X115294280Y-89905840D02*
X115944280Y-89905840D01*
X115944280Y-91025840D02*
X120184280Y-91025840D01*
X120834280Y-89905840D02*
X120184280Y-89905840D01*
X116664280Y-88785840D02*
X116664280Y-91025840D01*
X115944280Y-88785840D02*
X115944280Y-91025840D01*
X120184280Y-91025840D02*
X120184280Y-88785840D01*
X120184280Y-88785840D02*
X115944280Y-88785840D01*
X116544280Y-88785840D02*
X116544280Y-91025840D01*
%TO.C,D28*%
X123211960Y-72549880D02*
X123211960Y-70309880D01*
X123861960Y-71429880D02*
X123211960Y-71429880D01*
X119691960Y-70309880D02*
X119691960Y-72549880D01*
X123211960Y-70309880D02*
X118971960Y-70309880D01*
X118971960Y-72549880D02*
X123211960Y-72549880D01*
X118321960Y-71429880D02*
X118971960Y-71429880D01*
X119571960Y-70309880D02*
X119571960Y-72549880D01*
X118971960Y-70309880D02*
X118971960Y-72549880D01*
X119811960Y-70309880D02*
X119811960Y-72549880D01*
%TO.C,J5*%
X119095520Y-111088480D02*
X113955520Y-111088480D01*
X119095520Y-108428480D02*
X113955520Y-108428480D01*
X120365520Y-108428480D02*
X121695520Y-108428480D01*
X113955520Y-108428480D02*
X113955520Y-111088480D01*
X121695520Y-108428480D02*
X121695520Y-109758480D01*
X119095520Y-108428480D02*
X119095520Y-111088480D01*
%TO.C,J13*%
X132588960Y-99396240D02*
X133918960Y-99396240D01*
X135248960Y-101996240D02*
X135248960Y-107136240D01*
X132588960Y-101996240D02*
X135248960Y-101996240D01*
X132588960Y-100726240D02*
X132588960Y-99396240D01*
X132588960Y-101996240D02*
X132588960Y-107136240D01*
X132588960Y-107136240D02*
X135248960Y-107136240D01*
%TO.C,J18*%
X132648960Y-66730880D02*
X132648960Y-69330880D01*
X135248960Y-61590880D02*
X130048960Y-61590880D01*
X132648960Y-69330880D02*
X130048960Y-69330880D01*
X130048960Y-69330880D02*
X130048960Y-61590880D01*
X135248960Y-68000880D02*
X135248960Y-69330880D01*
X135248960Y-69330880D02*
X133918960Y-69330880D01*
X135248960Y-66730880D02*
X132648960Y-66730880D01*
X135248960Y-66730880D02*
X135248960Y-61590880D01*
%TO.C,J19*%
X147786400Y-141411960D02*
X147786400Y-142741960D01*
X147786400Y-135001960D02*
X145126400Y-135001960D01*
X147786400Y-140141960D02*
X147786400Y-135001960D01*
X145126400Y-140141960D02*
X145126400Y-135001960D01*
X147786400Y-140141960D02*
X145126400Y-140141960D01*
X147786400Y-142741960D02*
X146456400Y-142741960D01*
%TO.C,J21*%
X114046960Y-133807200D02*
X114046960Y-132477200D01*
X114046960Y-135077200D02*
X114046960Y-137677200D01*
X114046960Y-132477200D02*
X115376960Y-132477200D01*
X114046960Y-135077200D02*
X116706960Y-135077200D01*
X116706960Y-135077200D02*
X116706960Y-137677200D01*
X114046960Y-137677200D02*
X116706960Y-137677200D01*
%TO.C,J22*%
X116620600Y-121879360D02*
X116620600Y-124479360D01*
X113960600Y-119279360D02*
X115290600Y-119279360D01*
X113960600Y-124479360D02*
X116620600Y-124479360D01*
X113960600Y-121879360D02*
X113960600Y-124479360D01*
X113960600Y-121879360D02*
X116620600Y-121879360D01*
X113960600Y-120609360D02*
X113960600Y-119279360D01*
%TO.C,J23*%
X123988520Y-61610240D02*
X123988520Y-60280240D01*
X126648520Y-62880240D02*
X126648520Y-65480240D01*
X123988520Y-62880240D02*
X123988520Y-65480240D01*
X123988520Y-62880240D02*
X126648520Y-62880240D01*
X123988520Y-65480240D02*
X126648520Y-65480240D01*
X123988520Y-60280240D02*
X125318520Y-60280240D01*
%TO.C,J24*%
X142916600Y-78623160D02*
X142916600Y-77293160D01*
X145576600Y-79893160D02*
X145576600Y-82493160D01*
X142916600Y-77293160D02*
X144246600Y-77293160D01*
X142916600Y-82493160D02*
X145576600Y-82493160D01*
X142916600Y-79893160D02*
X142916600Y-82493160D01*
X142916600Y-79893160D02*
X145576600Y-79893160D01*
%TO.C,J25*%
X129510480Y-73451720D02*
X129510480Y-76051720D01*
X129510480Y-76051720D02*
X132170480Y-76051720D01*
X129510480Y-70851720D02*
X130840480Y-70851720D01*
X129510480Y-72181720D02*
X129510480Y-70851720D01*
X132170480Y-73451720D02*
X132170480Y-76051720D01*
X129510480Y-73451720D02*
X132170480Y-73451720D01*
%TO.C,R1*%
X126574680Y-74803000D02*
X125804680Y-74803000D01*
X118494680Y-74803000D02*
X119264680Y-74803000D01*
X119264680Y-76173000D02*
X125804680Y-76173000D01*
X125804680Y-73433000D02*
X119264680Y-73433000D01*
X119264680Y-73433000D02*
X119264680Y-76173000D01*
X125804680Y-76173000D02*
X125804680Y-73433000D01*
%TO.C,R2*%
X141046200Y-139690920D02*
X134506200Y-139690920D01*
X141046200Y-142430920D02*
X141046200Y-139690920D01*
X134506200Y-142430920D02*
X141046200Y-142430920D01*
X134506200Y-139690920D02*
X134506200Y-142430920D01*
X133736200Y-141060920D02*
X134506200Y-141060920D01*
X141816200Y-141060920D02*
X141046200Y-141060920D01*
%TO.C,R3*%
X127973840Y-141649120D02*
X127973840Y-138909120D01*
X121433840Y-141649120D02*
X127973840Y-141649120D01*
X121433840Y-138909120D02*
X121433840Y-141649120D01*
X127973840Y-138909120D02*
X121433840Y-138909120D01*
X128743840Y-140279120D02*
X127973840Y-140279120D01*
X120663840Y-140279120D02*
X121433840Y-140279120D01*
%TO.C,R4*%
X129311400Y-115030120D02*
X129311400Y-115800120D01*
X130681400Y-115800120D02*
X127941400Y-115800120D01*
X129311400Y-123110120D02*
X129311400Y-122340120D01*
X127941400Y-122340120D02*
X130681400Y-122340120D01*
X127941400Y-115800120D02*
X127941400Y-122340120D01*
X130681400Y-122340120D02*
X130681400Y-115800120D01*
%TO.C,R9*%
X123709560Y-105902760D02*
X122939560Y-105902760D01*
X122939560Y-104532760D02*
X116399560Y-104532760D01*
X115629560Y-105902760D02*
X116399560Y-105902760D01*
X116399560Y-107272760D02*
X122939560Y-107272760D01*
X122939560Y-107272760D02*
X122939560Y-104532760D01*
X116399560Y-104532760D02*
X116399560Y-107272760D01*
%TO.C,R13*%
X128459360Y-136748520D02*
X127689360Y-136748520D01*
X127689360Y-135378520D02*
X121149360Y-135378520D01*
X120379360Y-136748520D02*
X121149360Y-136748520D01*
X121149360Y-138118520D02*
X127689360Y-138118520D01*
X121149360Y-135378520D02*
X121149360Y-138118520D01*
X127689360Y-138118520D02*
X127689360Y-135378520D01*
%TO.C,R16*%
X130613400Y-60028760D02*
X137153400Y-60028760D01*
X137923400Y-58658760D02*
X137153400Y-58658760D01*
X137153400Y-60028760D02*
X137153400Y-57288760D01*
X137153400Y-57288760D02*
X130613400Y-57288760D01*
X130613400Y-57288760D02*
X130613400Y-60028760D01*
X129843400Y-58658760D02*
X130613400Y-58658760D01*
%TO.C,R17*%
X125606560Y-76958520D02*
X119066560Y-76958520D01*
X126376560Y-78328520D02*
X125606560Y-78328520D01*
X119066560Y-79698520D02*
X125606560Y-79698520D01*
X119066560Y-76958520D02*
X119066560Y-79698520D01*
X118296560Y-78328520D02*
X119066560Y-78328520D01*
X125606560Y-79698520D02*
X125606560Y-76958520D01*
%TO.C,R18*%
X131336920Y-78257400D02*
X132106920Y-78257400D01*
X139416920Y-78257400D02*
X138646920Y-78257400D01*
X138646920Y-76887400D02*
X132106920Y-76887400D01*
X132106920Y-79627400D02*
X138646920Y-79627400D01*
X132106920Y-76887400D02*
X132106920Y-79627400D01*
X138646920Y-79627400D02*
X138646920Y-76887400D01*
%TO.C,U2*%
X134656200Y-120380920D02*
X134656200Y-138280920D01*
X135906200Y-120380920D02*
X134656200Y-120380920D01*
X134656200Y-138280920D02*
X139156200Y-138280920D01*
X139156200Y-120380920D02*
X137906200Y-120380920D01*
X139156200Y-138280920D02*
X139156200Y-120380920D01*
X135906200Y-120380920D02*
G75*
G03*
X137906200Y-120380920I1000000J0D01*
G01*
%TO.C,F1*%
X163272400Y-134581000D02*
X154532400Y-134581000D01*
X154532400Y-130341000D02*
X154532400Y-134581000D01*
X154532400Y-130341000D02*
X163272400Y-130341000D01*
X163272400Y-134581000D02*
X163272400Y-130341000D01*
%TO.C,F2*%
X163501000Y-144664800D02*
X163501000Y-140424800D01*
X154761000Y-140424800D02*
X163501000Y-140424800D01*
X154761000Y-140424800D02*
X154761000Y-144664800D01*
X163501000Y-144664800D02*
X154761000Y-144664800D01*
%TD*%
M02*
