%TF.GenerationSoftware,KiCad,Pcbnew,(6.0.0)*%
%TF.CreationDate,2022-02-13T17:17:33+01:00*%
%TF.ProjectId,SynthBaby8,53796e74-6842-4616-9279-382e6b696361,rev?*%
%TF.SameCoordinates,Original*%
%TF.FileFunction,Soldermask,Bot*%
%TF.FilePolarity,Negative*%
%FSLAX46Y46*%
G04 Gerber Fmt 4.6, Leading zero omitted, Abs format (unit mm)*
G04 Created by KiCad (PCBNEW (6.0.0)) date 2022-02-13 17:17:33*
%MOMM*%
%LPD*%
G01*
G04 APERTURE LIST*
%ADD10C,1.900000*%
%ADD11R,1.700000X1.700000*%
%ADD12O,1.900000X1.900000*%
%ADD13R,1.600000X1.600000*%
%ADD14O,1.700000X1.700000*%
%ADD15R,2.400000X1.600000*%
%ADD16O,2.400000X1.600000*%
%ADD17C,3.200000*%
%ADD18C,2.000000*%
G04 APERTURE END LIST*
D10*
%TO.C,C2*%
X112257840Y-59441080D03*
X107257840Y-59441080D03*
%TD*%
D11*
%TO.C,D1*%
X83817460Y-89641680D03*
D12*
X83817460Y-92181680D03*
%TD*%
D11*
%TO.C,D2*%
X65608200Y-74457560D03*
D12*
X65608200Y-76997560D03*
%TD*%
D11*
%TO.C,D3*%
X66062860Y-97000060D03*
D12*
X66062860Y-99540060D03*
%TD*%
D11*
%TO.C,D4*%
X84383880Y-131668520D03*
D12*
X84383880Y-134208520D03*
%TD*%
D11*
%TO.C,D6*%
X84503260Y-66438780D03*
D12*
X84503260Y-68978780D03*
%TD*%
D11*
%TO.C,D7*%
X83886040Y-110771940D03*
D12*
X83886040Y-113311940D03*
%TD*%
D11*
%TO.C,D8*%
X65379600Y-117955060D03*
D12*
X65379600Y-120495060D03*
%TD*%
D13*
%TO.C,D9*%
X84884260Y-99573080D03*
D12*
X92504260Y-99573080D03*
%TD*%
D13*
%TO.C,D10*%
X55986680Y-85725000D03*
D12*
X63606680Y-85725000D03*
%TD*%
D13*
%TO.C,D11*%
X56144160Y-107243880D03*
D12*
X63764160Y-107243880D03*
%TD*%
D13*
%TO.C,D12*%
X88234520Y-138165840D03*
D12*
X95854520Y-138165840D03*
%TD*%
D13*
%TO.C,D14*%
X86116160Y-77919580D03*
D12*
X93736160Y-77919580D03*
%TD*%
D13*
%TO.C,D15*%
X85841840Y-121071640D03*
D12*
X93461840Y-121071640D03*
%TD*%
D13*
%TO.C,D16*%
X63200280Y-128330960D03*
D12*
X70820280Y-128330960D03*
%TD*%
D13*
%TO.C,D17*%
X89888060Y-89197180D03*
D12*
X97508060Y-89197180D03*
%TD*%
D13*
%TO.C,D18*%
X70612000Y-72791320D03*
D12*
X78232000Y-72791320D03*
%TD*%
D13*
%TO.C,D19*%
X71658480Y-95524320D03*
D12*
X79278480Y-95524320D03*
%TD*%
D13*
%TO.C,D20*%
X91125040Y-126974600D03*
D12*
X98745040Y-126974600D03*
%TD*%
D13*
%TO.C,D22*%
X90764360Y-67378580D03*
D12*
X98384360Y-67378580D03*
%TD*%
D13*
%TO.C,D23*%
X90363040Y-110517940D03*
D12*
X97983040Y-110517940D03*
%TD*%
D13*
%TO.C,D24*%
X71887080Y-116652040D03*
D12*
X79507080Y-116652040D03*
%TD*%
D13*
%TO.C,D27*%
X105857040Y-82169000D03*
D12*
X113477040Y-82169000D03*
%TD*%
D11*
%TO.C,J1*%
X89976960Y-96118680D03*
D12*
X92516960Y-96118680D03*
X95056960Y-96118680D03*
%TD*%
D11*
%TO.C,J2*%
X71488300Y-81569560D03*
D12*
X74028300Y-81569560D03*
X76568300Y-81569560D03*
%TD*%
D11*
%TO.C,J3*%
X72425560Y-103553260D03*
D12*
X74965560Y-103553260D03*
X77505560Y-103553260D03*
%TD*%
D11*
%TO.C,J4*%
X92359480Y-134970520D03*
D12*
X94899480Y-134970520D03*
X97439480Y-134970520D03*
%TD*%
D11*
%TO.C,J6*%
X90954860Y-74198480D03*
D12*
X93494860Y-74198480D03*
X96034860Y-74198480D03*
%TD*%
D11*
%TO.C,J7*%
X90337640Y-117426740D03*
D12*
X92877640Y-117426740D03*
X95417640Y-117426740D03*
%TD*%
D11*
%TO.C,J8*%
X71742300Y-124330460D03*
D12*
X74282300Y-124330460D03*
X76822300Y-124330460D03*
%TD*%
D11*
%TO.C,J9*%
X78089760Y-87254080D03*
D12*
X78089760Y-89794080D03*
X78089760Y-92334080D03*
%TD*%
D11*
%TO.C,J10*%
X59959240Y-72110600D03*
D12*
X59959240Y-74650600D03*
X59959240Y-77190600D03*
%TD*%
D11*
%TO.C,J11*%
X60309760Y-94833440D03*
D12*
X60309760Y-97373440D03*
X60309760Y-99913440D03*
%TD*%
D11*
%TO.C,J12*%
X78320900Y-129362200D03*
D12*
X78320900Y-131902200D03*
X78320900Y-134442200D03*
%TD*%
D11*
%TO.C,J14*%
X78648560Y-64013080D03*
D12*
X78648560Y-66553080D03*
X78648560Y-69093080D03*
%TD*%
D11*
%TO.C,J15*%
X78557120Y-108026200D03*
D12*
X78557120Y-110566200D03*
X78557120Y-113106200D03*
%TD*%
D11*
%TO.C,J16*%
X60482480Y-115610640D03*
D12*
X60482480Y-118150640D03*
X60482480Y-120690640D03*
%TD*%
D11*
%TO.C,J20*%
X169941240Y-142646400D03*
D14*
X167401240Y-142646400D03*
X169941240Y-140106400D03*
X167401240Y-140106400D03*
X169941240Y-137566400D03*
X167401240Y-137566400D03*
X169941240Y-135026400D03*
X167401240Y-135026400D03*
X169941240Y-132486400D03*
X167401240Y-132486400D03*
X169941240Y-129946400D03*
X167401240Y-129946400D03*
X169941240Y-127406400D03*
X167401240Y-127406400D03*
X169941240Y-124866400D03*
X167401240Y-124866400D03*
%TD*%
D10*
%TO.C,R5*%
X87462360Y-92384880D03*
D12*
X97622360Y-92384880D03*
%TD*%
D10*
%TO.C,R6*%
X69151500Y-77835760D03*
D12*
X79311500Y-77835760D03*
%TD*%
D10*
%TO.C,R7*%
X69720460Y-99908360D03*
D12*
X79880460Y-99908360D03*
%TD*%
D10*
%TO.C,R8*%
X88600280Y-131292600D03*
D12*
X98760280Y-131292600D03*
%TD*%
D10*
%TO.C,R10*%
X88338660Y-70642480D03*
D12*
X98498660Y-70642480D03*
%TD*%
D10*
%TO.C,R11*%
X87810340Y-113870740D03*
D12*
X97970340Y-113870740D03*
%TD*%
D10*
%TO.C,R12*%
X69126100Y-120495060D03*
D12*
X79286100Y-120495060D03*
%TD*%
D15*
%TO.C,U1*%
X106014520Y-63131700D03*
D16*
X106014520Y-65671700D03*
X106014520Y-68211700D03*
X106014520Y-70751700D03*
X106014520Y-73291700D03*
X106014520Y-75831700D03*
X106014520Y-78371700D03*
X113634520Y-78371700D03*
X113634520Y-75831700D03*
X113634520Y-73291700D03*
X113634520Y-70751700D03*
X113634520Y-68211700D03*
X113634520Y-65671700D03*
X113634520Y-63131700D03*
%TD*%
D15*
%TO.C,U3*%
X103311960Y-90708480D03*
D16*
X103311960Y-93248480D03*
X103311960Y-95788480D03*
X103311960Y-98328480D03*
X103311960Y-100868480D03*
X103311960Y-103408480D03*
X103311960Y-105948480D03*
X103311960Y-108488480D03*
X110931960Y-108488480D03*
X110931960Y-105948480D03*
X110931960Y-103408480D03*
X110931960Y-100868480D03*
X110931960Y-98328480D03*
X110931960Y-95788480D03*
X110931960Y-93248480D03*
X110931960Y-90708480D03*
%TD*%
D10*
%TO.C,C7*%
X104696260Y-86530180D03*
X109696260Y-86530180D03*
%TD*%
%TO.C,C1*%
X167223440Y-79613760D03*
X162223440Y-79613760D03*
%TD*%
D13*
%TO.C,D29*%
X114274600Y-93314520D03*
D12*
X121894600Y-93314520D03*
%TD*%
D11*
%TO.C,D30*%
X144185640Y-85476080D03*
D12*
X144185640Y-88016080D03*
%TD*%
D11*
%TO.C,J17*%
X152039320Y-119877840D03*
D12*
X152039320Y-117337840D03*
%TD*%
D10*
%TO.C,R14*%
X137962640Y-93700600D03*
D12*
X137962640Y-83540600D03*
%TD*%
D10*
%TO.C,R15*%
X148554440Y-116509800D03*
D12*
X148554440Y-126669800D03*
%TD*%
D10*
%TO.C,R19*%
X124749560Y-93263720D03*
D12*
X134909560Y-93263720D03*
%TD*%
D10*
%TO.C,R20*%
X147706080Y-83367880D03*
D12*
X157866080Y-83367880D03*
%TD*%
D10*
%TO.C,R21*%
X114599720Y-126806960D03*
D12*
X124759720Y-126806960D03*
%TD*%
D10*
%TO.C,R22*%
X150301960Y-142524480D03*
D12*
X150301960Y-132364480D03*
%TD*%
D10*
%TO.C,R23*%
X147706080Y-88356440D03*
D12*
X157866080Y-88356440D03*
%TD*%
D10*
%TO.C,R24*%
X127523240Y-68199000D03*
D12*
X117363240Y-68199000D03*
%TD*%
D15*
%TO.C,U4*%
X161142680Y-83449160D03*
D16*
X161142680Y-85989160D03*
X161142680Y-88529160D03*
X161142680Y-91069160D03*
X168762680Y-91069160D03*
X168762680Y-88529160D03*
X168762680Y-85989160D03*
X168762680Y-83449160D03*
%TD*%
D10*
%TO.C,C3*%
X134589520Y-117744240D03*
X139589520Y-117744240D03*
%TD*%
%TO.C,C4*%
X116606320Y-86873080D03*
X116606320Y-81873080D03*
%TD*%
D11*
%TO.C,D5*%
X128087120Y-103047800D03*
D12*
X128087120Y-105587800D03*
%TD*%
D13*
%TO.C,D13*%
X125496320Y-113268760D03*
D12*
X117876320Y-113268760D03*
%TD*%
D13*
%TO.C,D21*%
X122077480Y-102656640D03*
D12*
X114457480Y-102656640D03*
%TD*%
D11*
%TO.C,D25*%
X138399520Y-62992000D03*
D12*
X138399520Y-65532000D03*
%TD*%
D13*
%TO.C,D26*%
X114254280Y-89905840D03*
D12*
X121874280Y-89905840D03*
%TD*%
D13*
%TO.C,D28*%
X117281960Y-71429880D03*
D12*
X124901960Y-71429880D03*
%TD*%
D11*
%TO.C,J5*%
X120365520Y-109758480D03*
D12*
X117825520Y-109758480D03*
X115285520Y-109758480D03*
%TD*%
D11*
%TO.C,J13*%
X133918960Y-100726240D03*
D12*
X133918960Y-103266240D03*
X133918960Y-105806240D03*
%TD*%
D11*
%TO.C,J18*%
X133918960Y-68000880D03*
D14*
X131378960Y-68000880D03*
X133918960Y-65460880D03*
X131378960Y-65460880D03*
X133918960Y-62920880D03*
X131378960Y-62920880D03*
%TD*%
D11*
%TO.C,J19*%
X146456400Y-141411960D03*
D12*
X146456400Y-138871960D03*
X146456400Y-136331960D03*
%TD*%
D11*
%TO.C,J21*%
X115376960Y-133807200D03*
D12*
X115376960Y-136347200D03*
%TD*%
D11*
%TO.C,J22*%
X115290600Y-120609360D03*
D12*
X115290600Y-123149360D03*
%TD*%
D11*
%TO.C,J23*%
X125318520Y-61610240D03*
D12*
X125318520Y-64150240D03*
%TD*%
D11*
%TO.C,J24*%
X144246600Y-78623160D03*
D12*
X144246600Y-81163160D03*
%TD*%
D11*
%TO.C,J25*%
X130840480Y-72181720D03*
D12*
X130840480Y-74721720D03*
%TD*%
D10*
%TO.C,R1*%
X117454680Y-74803000D03*
D12*
X127614680Y-74803000D03*
%TD*%
D10*
%TO.C,R2*%
X132696200Y-141060920D03*
D12*
X142856200Y-141060920D03*
%TD*%
D10*
%TO.C,R3*%
X119623840Y-140279120D03*
D12*
X129783840Y-140279120D03*
%TD*%
D10*
%TO.C,R4*%
X129311400Y-124150120D03*
D12*
X129311400Y-113990120D03*
%TD*%
D10*
%TO.C,R9*%
X124749560Y-105902760D03*
D12*
X114589560Y-105902760D03*
%TD*%
D10*
%TO.C,R13*%
X119339360Y-136748520D03*
D12*
X129499360Y-136748520D03*
%TD*%
D10*
%TO.C,R16*%
X128803400Y-58658760D03*
D12*
X138963400Y-58658760D03*
%TD*%
D10*
%TO.C,R17*%
X127416560Y-78328520D03*
D12*
X117256560Y-78328520D03*
%TD*%
D10*
%TO.C,R18*%
X130296920Y-78257400D03*
D12*
X140456920Y-78257400D03*
%TD*%
D15*
%TO.C,U2*%
X133096200Y-121710920D03*
D16*
X133096200Y-124250920D03*
X133096200Y-126790920D03*
X133096200Y-129330920D03*
X133096200Y-131870920D03*
X133096200Y-134410920D03*
X133096200Y-136950920D03*
X140716200Y-136950920D03*
X140716200Y-134410920D03*
X140716200Y-131870920D03*
X140716200Y-129330920D03*
X140716200Y-126790920D03*
X140716200Y-124250920D03*
X140716200Y-121710920D03*
%TD*%
D17*
%TO.C,M3*%
X55880000Y-129514600D03*
%TD*%
%TO.C,M3*%
X55880000Y-142214600D03*
%TD*%
%TO.C,M3*%
X55880000Y-66014600D03*
%TD*%
D18*
%TO.C,F1*%
X161442400Y-132461000D03*
X156362400Y-132451000D03*
%TD*%
%TO.C,F2*%
X161671000Y-142544800D03*
X156591000Y-142534800D03*
%TD*%
M02*
